# This file uses meters as units for non-parametric coordinates.

mtllib obj_P0001.mtl
g default
v 2.162590 25.000000 -2.162495
v 0.000000 25.000000 -3.058281
v -2.162628 25.000000 -2.162495
v -3.058434 25.000000 0.000134
v -2.162628 25.000000 2.162724
v 0.000000 25.000000 3.058510
v 2.162590 25.000000 2.162724
v 3.058434 25.000000 0.000134
v 0.000000 -0.000001 -3.058281
v -2.162628 -0.000001 -2.162495
v -3.058434 -0.000001 0.000134
v -2.162628 -0.000001 2.162724
v 0.000000 -0.000001 3.058510
v 2.162590 -0.000001 2.162724
v 3.058434 -0.000001 0.000134
v 2.162590 -0.000001 -2.162495
v 0.000000 25.000000 0.000114
v 0.000000 -0.000001 0.000134
vt 0.424067 0.549371
vt 0.424075 0.611871
vt 0.465040 0.611866
vt 0.429920 0.549370
vt 0.429927 0.611870
vt 0.435772 0.549369
vt 0.435779 0.611869
vt 0.441623 0.549369
vt 0.441631 0.611868
vt 0.447476 0.549368
vt 0.447483 0.611868
vt 0.453328 0.549367
vt 0.453335 0.611867
vt 0.459180 0.549366
vt 0.459187 0.611866
vt 0.465032 0.549366
vt 0.470884 0.549365
vt 0.470891 0.611865
vt 0.274213 0.030151
vt 0.268361 0.030151
vt 0.271287 0.023087
vt 0.264223 0.026013
vt 0.264223 0.020161
vt 0.268361 0.016023
vt 0.274213 0.016023
vt 0.278351 0.020161
vt 0.278351 0.026013
vt 0.268361 0.016023
vt 0.274213 0.016023
vt 0.271287 0.023087
vt 0.264223 0.020161
vt 0.264223 0.026013
vt 0.268361 0.030151
vt 0.274213 0.030151
vt 0.278351 0.026013
vt 0.278351 0.020161
vn 0.707105 0.000000 -0.707109
vn 0.000000 0.000000 -1.000000
vn -0.000000 0.000000 -1.000000
vn 0.707107 0.000000 -0.707106
vn -0.707105 0.000000 -0.707109
vn -0.707103 0.000000 -0.707111
vn -1.000000 0.000000 0.000000
vn -1.000000 0.000000 -0.000000
vn -0.707100 0.000000 0.707113
vn -0.707104 0.000000 0.707109
vn 0.000000 0.000000 1.000000
vn 0.000000 0.000000 1.000000
vn 0.707100 0.000000 0.707113
vn 0.707109 0.000000 0.707105
vn 1.000000 0.000000 0.000000
vn 1.000000 0.000000 0.000000
vn 0.000000 1.000000 0.000000
vn 0.000000 1.000000 0.000000
vn 0.000000 1.000000 0.000000
vn 0.000000 1.000000 0.000000
vn 0.000000 1.000000 0.000000
vn 0.000000 1.000000 0.000000
vn 0.000000 1.000000 0.000000
vn 0.000000 1.000000 0.000000
vn 0.000000 1.000000 0.000000
vn 0.000000 1.000000 0.000000
vn 0.000000 1.000000 0.000000
vn 0.000000 1.000000 0.000000
vn 0.000000 1.000000 0.000000
vn 0.000000 1.000000 0.000000
vn 0.000000 1.000000 0.000000
vn 0.000000 1.000000 0.000000
vn 0.000000 1.000000 0.000000
vn 0.000000 1.000000 0.000000
vn 0.000000 1.000000 0.000000
vn 0.000000 1.000000 0.000000
vn 0.000000 1.000000 0.000000
vn 0.000000 1.000000 0.000000
vn 0.000000 1.000000 0.000000
vn 0.000000 1.000000 0.000000
vn 0.000000 -1.000000 0.000000
vn 0.000000 -1.000000 0.000000
vn 0.000000 -1.000000 0.000000
vn 0.000000 -1.000000 0.000000
vn 0.000000 -1.000000 0.000000
vn 0.000000 -1.000000 0.000000
vn 0.000000 -1.000000 0.000000
vn 0.000000 -1.000000 0.000000
vn 0.000000 -1.000000 0.000000
vn 0.000000 -1.000000 0.000000
vn 0.000000 -1.000000 0.000000
vn 0.000000 -1.000000 0.000000
vn 0.000000 -1.000000 0.000000
vn 0.000000 -1.000000 0.000000
vn 0.000000 -1.000000 0.000000
vn 0.000000 -1.000000 0.000000
vn 0.000000 -1.000000 0.000000
vn 0.000000 -1.000000 0.000000
vn 0.000000 -1.000000 0.000000
vn 0.000000 -1.000000 0.000000
vn 0.000000 -1.000000 0.000000
vn 0.000000 -1.000000 0.000000
vn 0.000000 -1.000000 0.000000
vn 0.000000 -1.000000 0.000000
s 1
g obj_P0001 Props Assets
usemtl lambert3SG
f 16/16/1 9/17/2 2/18/3 1/3/4
f 9/1/2 10/4/5 3/5/6 2/2/3
f 10/4/5 11/6/7 4/7/8 3/5/6
f 11/6/7 12/8/9 5/9/10 4/7/8
f 12/8/9 13/10/11 6/11/12 5/9/10
f 13/10/11 14/12/13 7/13/14 6/11/12
f 14/12/13 15/14/15 8/15/16 7/13/14
f 15/14/15 16/16/1 1/3/4 8/15/16
s off
f 1/19/17 2/20/18 17/21/19
f 2/20/20 3/22/21 17/21/22
f 3/22/23 4/23/24 17/21/25
f 4/23/26 5/24/27 17/21/28
f 5/24/29 6/25/30 17/21/31
f 6/25/32 7/26/33 17/21/34
f 7/26/35 8/27/36 17/21/37
f 8/27/38 1/19/39 17/21/40
f 10/28/41 9/29/42 18/30/43
f 11/31/44 10/28/45 18/30/46
f 12/32/47 11/31/48 18/30/49
f 13/33/50 12/32/51 18/30/52
f 14/34/53 13/33/54 18/30/55
f 15/35/56 14/34/57 18/30/58
f 16/36/59 15/35/60 18/30/61
f 9/29/62 16/36/63 18/30/64
