# This file uses meters as units for non-parametric coordinates.

mtllib obj_P0003_c.mtl
g default
v 0.000000 0.000000 0.000000
v 25.000000 0.000000 0.000000
v 25.000000 0.000000 25.000000
v 0.000000 0.000000 25.000000
vt 0.380640 -0.400004
vt 0.443140 -0.400004
vt 0.443140 -0.462504
vt 0.380640 -0.462504
vn 0.000000 1.000000 0.000000
vn 0.000000 1.000000 0.000000
vn 0.000000 1.000000 0.000000
vn 0.000000 1.000000 0.000000
s off
g obj_P0003_c Props Assets
usemtl lambert3SG
f 4/4/1 3/3/2 2/2/3 1/1/4
