# This file uses meters as units for non-parametric coordinates.

mtllib obj_P0003_a.mtl
g default
v 25.000000 0.000000 50.000000
v 25.000000 0.000000 0.000000
v 0.000000 0.000000 50.000000
v 0.000000 0.000000 0.000000
v 0.000000 0.000000 25.000000
vt 0.505640 -0.525004
vt 0.505640 -0.400004
vt 0.443140 -0.525004
vt 0.443140 -0.400004
vt 0.443140 -0.462504
vn 0.000000 1.000000 0.000000
vn 0.000000 1.000000 0.000000
vn 0.000000 1.000000 0.000000
vn 0.000000 1.000000 0.000000
vn 0.000000 1.000000 0.000000
s off
g obj_P0003_a Props Assets
usemtl lambert3SG
f 5/5/1 3/3/2 1/1/3 2/2/4 4/4/5
