# This file uses meters as units for non-parametric coordinates.

mtllib obj_P0007.mtl
g default
v 6.849258 75.000000 -8.884033
v 6.849257 75.000000 8.884064
v 6.849258 150.000000 -8.884033
v 6.849257 150.000000 8.884064
v 24.617321 150.000000 -8.884033
v 24.617321 150.000000 8.884094
v 24.617321 75.000000 -8.884033
v 24.617321 75.000000 8.884094
v 15.733288 75.000000 11.845367
v 15.733288 150.000000 11.845367
v 15.733292 75.000000 -11.845337
v 15.733292 150.000000 -11.845337
v 3.887916 75.000000 0.000031
v 3.887916 150.000000 0.000031
v 27.578663 150.000000 0.000000
v 27.578663 75.000000 0.000000
vt 0.537027 -0.990133
vt 0.537027 -0.802633
vt 0.700907 -0.802633
vt 0.560438 -0.990133
vt 0.560438 -0.802633
vt 0.654084 -0.802633
vt 0.630672 -0.802633
vt 0.630672 -0.990133
vt 0.654084 -0.990133
vt 0.607261 -0.802633
vt 0.607261 -0.990133
vt 0.583849 -0.990133
vt 0.583849 -0.802633
vt 0.677495 -0.990133
vt 0.677495 -0.802633
vt 0.700907 -0.990133
vt 0.724318 -0.990133
vt 0.724318 -0.802633
vn -0.707107 0.000000 -0.707107
vn -1.000000 0.000000 -0.000000
vn -1.000000 0.000000 -0.000000
vn -0.707107 0.000000 -0.707107
vn -0.707106 0.000000 0.707108
vn -0.707106 0.000000 0.707108
vn 0.707106 0.000000 -0.707108
vn 1.000000 0.000000 0.000000
vn 1.000000 0.000000 0.000000
vn 0.707106 0.000000 -0.707108
vn 0.707107 0.000000 0.707107
vn 0.707107 0.000000 0.707107
vn -0.000002 0.000000 1.000000
vn -0.000002 0.000000 1.000000
vn 0.000000 0.000000 -1.000000
vn 0.000000 0.000000 -1.000000
s 1
g obj_P0007 Props Assets
usemtl lambert3SG
f 1/16/1 13/17/2 14/18/3 3/3/4
f 13/1/2 2/4/5 4/5/6 14/2/3
f 5/6/7 15/7/8 16/8/9 7/9/10
f 15/7/8 6/10/11 8/11/12 16/8/9
f 4/5/6 2/4/5 9/12/13 10/13/14
f 9/12/13 8/11/12 6/10/11 10/13/14
f 5/6/7 7/9/10 11/14/15 12/15/16
f 11/14/15 1/16/1 3/3/4 12/15/16
