# This file uses meters as units for non-parametric coordinates.

mtllib obj_P0009_a.mtl
g default
v 0.000000 0.000000 0.000000
v 25.000000 0.000000 0.000000
v 25.000000 0.000000 25.000000
v 0.000000 0.000000 25.000000
vt 0.380640 -0.275004
vt 0.443140 -0.275004
vt 0.443140 -0.337504
vt 0.380640 -0.337504
vn 0.000000 1.000000 0.000000
vn 0.000000 1.000000 0.000000
vn 0.000000 1.000000 0.000000
vn 0.000000 1.000000 0.000000
s off
g obj_P0009_a Props Assets
usemtl lambert3SG
f 4/4/1 3/3/2 2/2/3 1/1/4
