# This file uses meters as units for non-parametric coordinates.

mtllib obj_P0004.mtl
g default
v -5.001392 -2.033243 27.412792
v 5.001392 -2.033243 27.412792
v -4.098892 0.480611 26.499973
v 4.098911 0.480611 26.499973
v -4.098892 0.480609 -26.500286
v 4.098911 0.480609 -26.500286
v -5.001392 -2.033245 -27.412794
v 5.001392 -2.033245 -27.412794
v -2.965031 0.480611 25.389324
v 2.964954 0.480611 25.389324
v 2.964954 0.480609 -25.389141
v -2.965031 0.480609 -25.389141
v -2.515117 -0.480609 24.575001
v 2.515049 -0.480609 24.575001
v 2.515049 -0.480612 -24.574818
v -2.515117 -0.480612 -24.574818
vt 0.899913 0.424863
vt 0.935882 0.424863
vt 0.929768 0.430190
vt 0.906016 0.430190
vt 0.911519 0.435856
vt 0.924264 0.435856
vt 0.924264 0.559268
vt 0.911519 0.559268
vt 0.906016 0.564981
vt 0.929768 0.564981
vt 0.935882 0.570316
vt 0.899913 0.570316
vt 0.926827 0.433137
vt 0.908958 0.433137
vt 0.926827 0.562007
vt 0.908958 0.562007
vn -0.590422 0.674909 0.442607
vn 0.590422 0.674909 0.442607
vn 0.683507 0.653228 0.325747
vn -0.683508 0.653227 0.325747
vn 0.000000 1.000000 0.000000
vn 0.000000 1.000000 0.000000
vn 0.000000 1.000000 0.000000
vn 0.000000 1.000000 0.000000
vn -0.683508 0.653227 -0.325747
vn 0.683507 0.653228 -0.325747
vn 0.590422 0.674909 -0.442607
vn -0.590422 0.674909 -0.442607
vn 0.590422 0.674909 0.442607
vn 0.590422 0.674909 -0.442607
vn 0.683507 0.653228 -0.325747
vn 0.683507 0.653228 0.325747
vn -0.590422 0.674909 -0.442607
vn -0.590422 0.674909 0.442607
vn -0.683508 0.653227 0.325747
vn -0.683508 0.653227 -0.325747
vn -0.683508 0.653227 0.325747
vn 0.683507 0.653228 0.325747
vn 0.000000 1.000000 0.000000
vn 0.000000 1.000000 0.000000
vn 0.683507 0.653228 0.325747
vn 0.683507 0.653228 -0.325747
vn 0.000000 1.000000 0.000000
vn 0.000000 1.000000 0.000000
vn 0.683507 0.653228 -0.325747
vn -0.683508 0.653227 -0.325747
vn 0.000000 1.000000 0.000000
vn 0.000000 1.000000 0.000000
vn -0.683508 0.653227 -0.325747
vn -0.683508 0.653227 0.325747
vn 0.000000 1.000000 0.000000
vn 0.000000 1.000000 0.000000
vn 0.000000 0.614345 -0.789038
vn 0.000000 0.614345 -0.789038
vn 0.000000 0.614345 -0.789038
vn 0.000000 0.614345 -0.789038
vn -0.931595 0.363499 0.000000
vn -0.931595 0.363499 0.000000
vn -0.931595 0.363499 0.000000
vn -0.931595 0.363499 0.000000
vn 0.000000 0.614345 0.789038
vn 0.000000 0.614345 0.789038
vn 0.000000 0.614344 0.789038
vn 0.000000 0.614345 0.789038
vn 0.931581 0.363535 0.000000
vn 0.931581 0.363535 0.000000
vn 0.931581 0.363535 0.000000
vn 0.931581 0.363535 0.000000
s off
g obj_P0004 Props Assets
usemtl lambert3SG
f 1/1/1 2/2/2 4/3/3 3/4/4
f 13/5/5 14/6/6 15/7/7 16/8/8
f 5/9/9 6/10/10 8/11/11 7/12/12
f 2/2/13 8/11/14 6/10/15 4/3/16
f 7/12/17 1/1/18 3/4/19 5/9/20
f 3/4/21 4/3/22 10/13/23 9/14/24
f 4/3/25 6/10/26 11/15/27 10/13/28
f 6/10/29 5/9/30 12/16/31 11/15/32
f 5/9/33 3/4/34 9/14/35 12/16/36
f 9/14/37 10/13/38 14/6/39 13/5/40
f 10/13/41 11/15/42 15/7/43 14/6/44
f 11/15/45 12/16/46 16/8/47 15/7/48
f 12/16/49 9/14/50 13/5/51 16/8/52
