# This file uses meters as units for non-parametric coordinates.

mtllib obj_P0010.mtl
g default
v -12.542450 -0.094364 -1.067055
v -1.188461 -0.094364 -1.067055
v -12.542488 0.680363 -1.067055
v -1.188461 0.680363 -1.067055
v -12.556744 0.680363 -24.662994
v -1.188461 0.680363 -24.662994
v -12.543030 -0.094364 -24.662994
v -1.188461 -0.094364 -24.662994
vt 0.620532 0.556229
vt 0.588387 0.556237
vt 0.589823 0.554960
vt 0.619005 0.555063
vt 0.589900 0.494752
vt 0.619102 0.494871
vt 0.588372 0.493587
vt 0.620526 0.493589
vn 0.000000 0.000000 1.000000
vn 0.000000 0.000000 1.000000
vn 0.000000 0.000000 1.000000
vn 0.000000 0.000000 1.000000
vn 0.000000 1.000000 -0.000000
vn 0.000000 1.000000 -0.000000
vn 0.000000 1.000000 -0.000000
vn 0.000000 1.000000 -0.000000
vn 0.000000 0.000000 -1.000000
vn 0.000000 0.000000 -1.000000
vn 0.000000 0.000000 -1.000000
vn 0.000000 0.000000 -1.000000
vn 1.000000 0.000000 0.000000
vn 1.000000 0.000000 0.000000
vn 1.000000 0.000000 0.000000
vn 1.000000 0.000000 0.000000
vn -0.999961 -0.008874 0.000314
vn -0.999961 -0.008874 0.000314
vn -0.999961 -0.008874 0.000314
vn -0.999961 -0.008874 0.000314
s off
g obj_P0010 Props Assets
usemtl lambert3SG
f 1/1/1 2/2/2 4/3/3 3/4/4
f 3/4/5 4/3/6 6/5/7 5/6/8
f 5/6/9 6/5/10 8/7/11 7/8/12
f 2/2/13 8/7/14 6/5/15 4/3/16
f 7/8/17 1/1/18 3/4/19 5/6/20
