# This file uses meters as units for non-parametric coordinates.

mtllib obj_P0002_c.mtl
g default
v 2.162590 2.310540 -2.162514
v 0.000000 2.310540 -3.058300
v -2.162628 2.310540 -2.162514
v -3.058434 2.310540 0.000114
v -2.162628 2.310540 2.162704
v 0.000000 2.310540 3.058481
v 2.162590 2.310540 2.162704
v 3.058434 2.310540 0.000114
v 2.828636 2.310540 -2.828522
v 0.000000 2.310540 -4.000206
v -2.828674 2.310540 -2.828522
v -4.000282 2.310540 0.000114
v -2.828674 2.310540 2.828751
v 0.000000 2.310540 4.000397
v 2.828636 2.310540 2.828751
v 4.000282 2.310540 0.000114
v 2.828636 -0.000022 -2.828522
v 0.000000 -0.000022 -4.000206
v -2.828674 -0.000022 -2.828522
v -4.000282 -0.000022 0.000114
v -2.828674 -0.000022 2.828751
v 0.000000 -0.000022 4.000397
v 2.828636 -0.000022 2.828751
v 4.000282 -0.000022 0.000114
v 0.000000 24.999977 -3.058300
v -2.162628 24.999977 -2.162514
v -3.058434 24.999977 0.000114
v -2.162628 24.999977 2.162704
v 0.000000 24.999977 3.058481
v 2.162590 24.999977 2.162704
v 3.058434 24.999977 0.000114
v 2.162590 24.999977 -2.162514
v 0.000000 24.999977 0.000105
v 0.000000 -0.000022 0.000114
vt 0.079041 0.499979
vt 0.122037 0.499979
vt 0.075594 0.498057
vt 0.083848 0.499979
vt 0.083848 0.498057
vt 0.090344 0.499979
vt 0.090344 0.498057
vt 0.096694 0.499979
vt 0.096694 0.498057
vt 0.102910 0.499979
vt 0.102910 0.498057
vt 0.109220 0.499979
vt 0.109220 0.498057
vt 0.115554 0.499979
vt 0.115554 0.498057
vt 0.075594 0.492363
vt 0.083848 0.492363
vt 0.090344 0.492363
vt 0.096694 0.492363
vt 0.102910 0.492363
vt 0.109220 0.492363
vt 0.115554 0.492363
vt 0.083848 0.556879
vt 0.079041 0.556879
vt 0.090344 0.556879
vt 0.096694 0.556879
vt 0.102910 0.556879
vt 0.109220 0.556879
vt 0.115554 0.556879
vt 0.122037 0.556879
vt 0.130086 0.498057
vt 0.122037 0.498057
vt 0.122037 0.492363
vt 0.130085 0.492363
vt 0.126814 0.499979
vt 0.126814 0.556879
vt 0.264223 0.020161
vt 0.268361 0.016023
vt 0.271287 0.023087
vt 0.274213 0.016023
vt 0.278351 0.020161
vt 0.278351 0.026013
vt 0.274213 0.030151
vt 0.268361 0.030151
vt 0.264223 0.026013
vt 0.280527 0.026914
vt 0.275115 0.032327
vt 0.267460 0.032326
vt 0.275115 0.013847
vt 0.280527 0.019260
vt 0.271287 0.023087
vt 0.267460 0.013848
vt 0.262048 0.019260
vt 0.262048 0.026914
vn 0.000000 1.000000 0.000000
vn 0.000000 1.000000 0.000000
vn 0.000000 1.000000 0.000000
vn 0.000000 1.000000 0.000000
vn 0.000000 1.000000 -0.000001
vn 0.000000 1.000000 0.000000
vn 0.000000 1.000000 0.000000
vn 0.000000 1.000000 -0.000001
vn 0.000000 1.000000 -0.000001
vn 0.000000 1.000000 -0.000001
vn 0.000000 1.000000 -0.000001
vn 0.000000 1.000000 -0.000001
vn 0.000000 1.000000 0.000000
vn 0.000000 1.000000 -0.000001
vn 0.000000 1.000000 -0.000001
vn 0.000000 1.000000 0.000000
vn 0.000000 1.000000 0.000000
vn 0.000000 1.000000 0.000000
vn 0.000000 1.000000 0.000000
vn 0.000000 1.000000 0.000000
vn 0.000000 1.000000 0.000001
vn 0.000000 1.000000 0.000000
vn 0.000000 1.000000 0.000000
vn 0.000000 1.000000 0.000001
vn 0.000000 1.000000 0.000001
vn 0.000000 1.000000 0.000001
vn 0.000000 1.000000 0.000001
vn 0.000000 1.000000 0.000001
vn 0.000000 1.000000 0.000000
vn 0.000000 1.000000 0.000001
vn 0.000000 1.000000 0.000001
vn 0.000000 1.000000 0.000000
vn -0.000000 0.000000 -1.000000
vn 0.707108 0.000000 -0.707106
vn 0.707108 0.000000 -0.707106
vn -0.000000 0.000000 -1.000000
vn -0.707104 0.000000 -0.707109
vn -0.707104 0.000000 -0.707109
vn -1.000000 0.000000 -0.000000
vn -1.000000 0.000000 -0.000000
vn -0.707105 0.000000 0.707108
vn -0.707105 0.000000 0.707108
vn 0.000000 0.000000 1.000000
vn 0.000000 0.000000 1.000000
vn 0.707109 0.000000 0.707105
vn 0.707109 0.000000 0.707105
vn 1.000000 0.000000 0.000000
vn 1.000000 0.000000 0.000000
vn -0.000000 0.000000 -1.000000
vn -0.707103 0.000000 -0.707111
vn -0.707105 0.000000 -0.707109
vn -0.000000 0.000000 -1.000000
vn -1.000000 0.000000 -0.000000
vn -1.000000 0.000000 -0.000000
vn -0.707104 0.000000 0.707109
vn -0.707099 0.000000 0.707115
vn 0.000000 0.000000 1.000000
vn -0.000000 0.000000 1.000000
vn 0.707109 0.000000 0.707105
vn 0.707099 0.000000 0.707115
vn 1.000000 0.000000 0.000000
vn 1.000000 0.000000 0.000000
vn 0.707107 0.000000 -0.707106
vn 0.707105 0.000000 -0.707109
vn 0.000000 1.000000 0.000000
vn 0.000000 1.000000 0.000000
vn 0.000000 1.000000 0.000000
vn 0.000000 1.000000 -0.000001
vn 0.000000 1.000000 -0.000001
vn 0.000000 1.000000 -0.000001
vn 0.000000 1.000000 0.000000
vn 0.000000 1.000000 0.000000
vn 0.000000 1.000000 0.000000
vn 0.000000 1.000000 0.000000
vn 0.000000 1.000000 0.000000
vn 0.000000 1.000000 0.000000
vn 0.000000 1.000000 0.000000
vn 0.000000 1.000000 0.000000
vn 0.000000 1.000000 0.000000
vn 0.000000 1.000000 0.000001
vn 0.000000 1.000000 0.000001
vn 0.000000 1.000000 0.000001
vn 0.000000 1.000000 0.000000
vn 0.000000 1.000000 0.000000
vn 0.000000 1.000000 0.000000
vn 0.000000 1.000000 0.000000
vn 0.000000 1.000000 0.000000
vn 0.000000 1.000000 0.000000
vn 0.000000 -1.000000 0.000000
vn 0.000000 -1.000000 0.000000
vn 0.000000 -1.000000 0.000000
vn 0.000000 -1.000000 0.000000
vn 0.000000 -1.000000 0.000000
vn 0.000000 -1.000000 0.000000
vn 0.000000 -1.000000 0.000000
vn 0.000000 -1.000000 0.000000
vn 0.000000 -1.000000 0.000000
vn 0.000000 -1.000000 0.000000
vn 0.000000 -1.000000 0.000000
vn 0.000000 -1.000000 0.000000
vn 0.000000 -1.000000 0.000000
vn 0.000000 -1.000000 0.000000
vn 0.000000 -1.000000 0.000000
vn 0.000000 -1.000000 0.000000
vn 0.000000 -1.000000 0.000000
vn 0.000000 -1.000000 0.000000
vn 0.000000 -1.000000 0.000000
vn 0.000000 -1.000000 0.000000
vn 0.000000 -1.000000 0.000000
vn 0.000000 -1.000000 0.000000
vn 0.000000 -1.000000 0.000000
vn 0.000000 -1.000000 0.000000
s off
g obj_P0002_c Props Assets
usemtl lambert3SG
f 2/35/1 1/2/2 9/32/3 10/31/4
f 3/4/5 2/1/6 10/3/7 11/5/8
f 4/6/9 3/4/10 11/5/11 12/7/12
f 5/8/13 4/6/14 12/7/15 13/9/16
f 6/10/17 5/8/18 13/9/19 14/11/20
f 7/12/21 6/10/22 14/11/23 15/13/24
f 8/14/25 7/12/26 15/13/27 16/15/28
f 1/2/29 8/14/30 16/15/31 9/32/32
s 1
f 10/31/33 9/32/34 17/33/35 18/34/36
f 11/5/37 10/3/33 18/16/36 19/17/38
f 12/7/39 11/5/37 19/17/38 20/18/40
f 13/9/41 12/7/39 20/18/40 21/19/42
f 14/11/43 13/9/41 21/19/42 22/20/44
f 15/13/45 14/11/43 22/20/44 23/21/46
f 16/15/47 15/13/45 23/21/46 24/22/48
f 9/32/34 16/15/47 24/22/48 17/33/35
s 2
f 2/1/49 3/4/50 26/23/51 25/24/52
f 3/4/50 4/6/53 27/25/54 26/23/51
f 4/6/53 5/8/55 28/26/56 27/25/54
f 5/8/55 6/10/57 29/27/58 28/26/56
f 6/10/57 7/12/59 30/28/60 29/27/58
f 7/12/59 8/14/61 31/29/62 30/28/60
f 8/14/61 1/2/63 32/30/64 31/29/62
f 1/2/63 2/35/49 25/36/52 32/30/64
s off
f 25/37/65 26/38/66 33/39/67
f 26/38/68 27/40/69 33/39/70
f 27/40/71 28/41/72 33/39/73
f 28/41/74 29/42/75 33/39/76
f 29/42/77 30/43/78 33/39/79
f 30/43/80 31/44/81 33/39/82
f 31/44/83 32/45/84 33/39/85
f 32/45/86 25/37/87 33/39/88
f 18/49/89 17/50/90 34/51/91
f 19/52/92 18/49/93 34/51/94
f 20/53/95 19/52/96 34/51/97
f 21/54/98 20/53/99 34/51/100
f 22/48/101 21/54/102 34/51/103
f 23/47/104 22/48/105 34/51/106
f 24/46/107 23/47/108 34/51/109
f 17/50/110 24/46/111 34/51/112
