# This file uses meters as units for non-parametric coordinates.

mtllib obj_P0002_b.mtl
g default
v 2.881748 5.287371 -6.679844
v 0.000011 4.093693 -6.680016
v -2.881763 5.287371 -6.679844
v -4.075459 8.169162 -6.679386
v -2.881763 11.050943 -6.678928
v 0.000011 12.244612 -6.678776
v 2.881748 11.050943 -6.678928
v 4.075481 8.169162 -6.679386
v 2.605564 5.563621 -6.679787
v 0.000011 4.484381 -6.679939
v -2.605503 5.563621 -6.679787
v -3.684757 8.169162 -6.679386
v -2.605503 10.774683 -6.678986
v 0.000011 11.853932 -6.678833
v 2.605564 10.774683 -6.678986
v 3.684759 8.169162 -6.679386
v 0.000011 8.169400 -8.252472
v 2.605564 5.424058 -2.788586
v -2.605503 5.424058 -2.788586
v -2.605503 10.899553 -2.788452
v 2.605564 10.899553 -2.788452
v 2.881748 14.773401 -2.940983
v 0.000011 14.773401 -4.134640
v -2.881763 14.773401 -2.940983
v -4.075459 14.773401 -0.059170
v -2.881763 14.773401 2.822586
v 0.000011 14.773401 4.136711
v 2.881748 14.773401 2.822586
v 4.075481 14.773401 -0.059170
v 2.605564 14.773401 -2.664722
v 0.000011 14.773401 -3.743958
v -2.605503 14.773401 -2.664722
v -3.684757 14.773401 -0.059170
v -2.605503 14.773401 2.546326
v 0.000011 14.780232 3.747021
v 2.605564 14.773401 2.546326
v 3.684759 14.773401 -0.059170
v 0.000011 16.346493 -0.059170
v -3.684757 10.922762 0.061260
v -2.605503 10.922762 2.644077
v 0.083382 10.922772 3.826920
v 2.605564 10.922762 2.644077
v 3.684759 10.922762 0.061260
v 2.605564 5.398121 2.644077
v 0.083382 5.434722 3.826920
v -2.605503 5.398121 2.644077
v -2.671879 8.142123 2.644077
v 2.671940 8.142123 2.644077
v 2.881748 0.000001 -2.881798
v 0.000011 0.000001 -4.075474
v -2.881763 0.000001 -2.881798
v -4.075459 0.000001 -0.000023
v -2.881763 0.000001 2.881771
v 0.000011 0.000001 4.075447
v 2.881748 0.000001 2.881771
v 4.075481 0.000001 -0.000023
v 2.881748 1.580551 -2.881798
v 0.000011 1.580551 -4.075474
v -2.881763 1.580551 -2.881798
v -4.075459 1.580551 -0.000023
v -2.881763 1.580551 2.881771
v 0.000011 1.580551 4.075447
v 2.881748 1.580551 2.881771
v 4.075481 1.580551 -0.000023
v 2.605564 1.580551 -2.605556
v 0.000011 1.580551 -3.684792
v -2.605503 1.580551 -2.605556
v -3.684757 1.580551 -0.000023
v -2.605503 1.580551 2.605511
v 0.000011 1.580551 3.684746
v 2.605564 1.580551 2.605511
v 3.684759 1.580551 -0.000023
v 0.000011 0.000000 -0.000023
v -3.684757 5.398121 -0.000023
v 3.684759 5.398121 -0.000023
v -3.700970 8.155303 0.042511
v 3.823919 8.155972 -0.000671
v 0.083382 8.142123 3.826920
v 2.881748 16.346493 -2.940983
v 4.075481 16.346493 -0.059170
v 2.881748 16.346493 2.822586
v 0.000011 16.346493 4.136711
v -2.881763 16.346493 2.822586
v -4.075459 16.346493 -0.059170
v -2.881763 16.346493 -2.940983
v 0.000011 16.346493 -4.134640
v 4.075481 8.169329 -8.252472
v 2.881748 11.051110 -8.252014
v 0.000011 12.244786 -8.251862
v -2.881763 11.051110 -8.252014
v -4.075459 8.169329 -8.252472
v -2.881763 5.287547 -8.252911
v 0.000011 4.093865 -8.253101
v 2.881748 5.287547 -8.252911
v 3.730824 8.168680 -2.788509
v 0.000011 11.910061 -3.681129
v -3.730801 8.168680 -2.788509
v 0.000011 4.484013 -3.710732
vt 0.271287 0.023087
vt 0.074739 0.633594
vt 0.082137 0.633669
vt 0.267389 0.013674
vt 0.074977 0.565025
vt 0.275186 0.013674
vt 0.068199 0.565225
vt 0.261874 0.019188
vt 0.061429 0.565021
vt 0.261874 0.026986
vt 0.054003 0.564870
vt 0.267388 0.032500
vt 0.061390 0.633659
vt 0.275186 0.032500
vt 0.068076 0.633416
vt 0.068104 0.637501
vt 0.074649 0.632679
vt 0.081655 0.632877
vt 0.074926 0.565954
vt 0.068220 0.566148
vt 0.061514 0.565937
vt 0.054473 0.565672
vt 0.061438 0.632728
vt 0.068051 0.632490
vt 0.080899 0.627084
vt 0.075891 0.622268
vt 0.085892 0.620434
vt 0.087025 0.571478
vt 0.076196 0.576392
vt 0.086325 0.578525
vt 0.068197 0.576785
vt 0.075471 0.584330
vt 0.068202 0.584303
vt 0.060218 0.576348
vt 0.060910 0.584432
vt 0.055024 0.571591
vt 0.049958 0.578273
vt 0.049681 0.627498
vt 0.060240 0.622259
vt 0.050182 0.620443
vt 0.068040 0.621822
vt 0.060919 0.614098
vt 0.068089 0.614413
vt 0.075249 0.614282
vt 0.267386 0.032637
vt 0.045303 0.620721
vt 0.049278 0.620493
vt 0.048883 0.627944
vt 0.261873 0.027122
vt 0.049030 0.578278
vt 0.261875 0.019324
vt 0.049793 0.585170
vt 0.267391 0.013811
vt 0.050264 0.592178
vt 0.275304 0.013535
vt 0.050334 0.599388
vt 0.280701 0.019328
vt 0.050280 0.606617
vt 0.280700 0.027126
vt 0.049892 0.613644
vt 0.050699 0.585092
vt 0.051142 0.592117
vt 0.051236 0.599372
vt 0.051186 0.606627
vt 0.050797 0.613653
vt 0.061058 0.591801
vt 0.061088 0.599450
vt 0.061042 0.606706
vt 0.280701 0.026986
vt 0.275186 0.032500
vt 0.087874 0.571046
vt 0.086799 0.620490
vt 0.271288 0.023087
vt 0.087250 0.578544
vt 0.280701 0.019188
vt 0.086471 0.585427
vt 0.275187 0.013674
vt 0.085977 0.592433
vt 0.267388 0.013674
vt 0.085769 0.599530
vt 0.261874 0.019188
vt 0.085823 0.606634
vt 0.261874 0.026986
vt 0.086170 0.613635
vt 0.085564 0.585341
vt 0.085081 0.592361
vt 0.084874 0.599483
vt 0.084927 0.606614
vt 0.085267 0.613636
vt 0.267388 0.032500
vt 0.075260 0.591856
vt 0.075054 0.599507
vt 0.075150 0.606750
vt 0.068208 0.591614
vt 0.068142 0.606869
vt 0.068167 0.599434
vt 0.271287 0.023225
vt 0.280701 0.026986
vt 0.081326 0.571635
vt 0.081970 0.565752
vt 0.055126 0.627041
vt 0.054437 0.632956
vt 0.075068 0.637571
vt 0.280701 0.019188
vt 0.082875 0.561121
vt 0.082631 0.637491
vt 0.075261 0.561028
vt 0.068203 0.561173
vt 0.061207 0.561016
vt 0.053527 0.637585
vt 0.053571 0.561018
vt 0.061112 0.637660
vt 0.044633 0.570594
vt 0.045117 0.628316
vt 0.275184 0.032639
vt 0.045043 0.578313
vt 0.045798 0.585400
vt 0.046266 0.592351
vt 0.046347 0.599491
vt 0.046274 0.606645
vt 0.045872 0.613642
vt 0.086421 0.627481
vt 0.091078 0.628260
vt 0.091707 0.570887
vt 0.087226 0.627927
vt 0.090185 0.613603
vt 0.090792 0.620614
vt 0.089836 0.606658
vt 0.089781 0.599645
vt 0.089995 0.592630
vt 0.090514 0.585649
vt 0.091263 0.578527
vt 0.049367 0.571234
vt 0.048516 0.570789
vt 0.053944 0.633778
vt 0.082462 0.564930
vn 0.707101 -0.707112 -0.000078
vn 0.707102 -0.707111 -0.000110
vn 0.000000 -1.000000 -0.000156
vn -0.000000 -1.000000 -0.000111
vn -0.707106 -0.707108 -0.000110
vn -0.707101 -0.707112 -0.000078
vn -1.000000 -0.000001 0.000000
vn -1.000000 -0.000011 -0.000001
vn -0.707109 0.707105 0.000109
vn -0.707111 0.707103 0.000076
vn 0.000000 1.000000 0.000155
vn 0.000000 1.000000 0.000109
vn 0.707106 0.707108 0.000109
vn 0.707111 0.707103 0.000076
vn 1.000000 -0.000002 0.000000
vn 1.000000 -0.000011 -0.000000
vn 0.000011 -0.000157 1.000000
vn 0.000011 -0.000157 1.000000
vn 0.000006 -0.000157 1.000000
vn 0.000006 -0.000157 1.000000
vn -0.000006 -0.000157 1.000000
vn -0.000006 -0.000157 1.000000
vn 0.000000 -0.000157 1.000000
vn 0.000000 -0.000157 1.000000
vn 0.000011 -0.000157 1.000000
vn 0.000011 -0.000157 1.000000
vn 0.000000 -0.000157 1.000000
vn 0.000000 -0.000157 1.000000
vn -0.000011 -0.000157 1.000000
vn -0.000011 -0.000157 1.000000
vn 0.000000 -0.000157 1.000000
vn 0.000000 -0.000157 1.000000
vn -0.000001 -0.715675 -0.698434
vn 0.873289 -0.345482 -0.343525
vn 0.731159 -0.010248 -0.682130
vn 0.000000 -0.018702 -0.999825
vn -0.824549 -0.471462 -0.312798
vn -0.731159 -0.010250 -0.682130
vn -0.996216 0.001140 -0.086906
vn -0.997932 -0.049660 0.040800
vn -0.994920 0.000385 0.100665
vn -0.877757 0.344721 -0.332731
vn -0.997672 0.048901 0.047524
vn -0.000001 0.698526 -0.715585
vn -0.731544 -0.005438 -0.681773
vn -0.000001 -0.004109 -0.999992
vn 0.874932 0.348406 -0.336315
vn 0.731544 -0.005433 -0.681773
vn 0.995288 0.001270 -0.096953
vn 0.997140 0.057479 0.049073
vn 0.995379 0.000442 0.096024
vn 0.997407 -0.058325 0.042155
vn 0.000000 0.000000 -1.000000
vn 0.707107 0.000000 -0.707107
vn 0.707106 0.000000 -0.707108
vn 0.000000 0.000000 -1.000000
vn -0.707107 0.000000 -0.707107
vn -0.707106 0.000000 -0.707108
vn -1.000000 0.000000 -0.000000
vn -1.000000 0.000000 0.000000
vn -0.717325 0.000000 0.696739
vn -0.717327 0.000000 0.696737
vn 0.000000 0.000000 1.000000
vn 0.000000 0.000000 1.000000
vn 0.717325 0.000000 0.696739
vn 0.717327 0.000000 0.696737
vn 1.000000 0.000000 0.000000
vn 1.000000 0.000000 0.000000
vn 0.000000 -1.000000 0.000000
vn 0.000000 -1.000000 0.000000
vn 0.000000 -1.000000 0.000000
vn 0.000000 -1.000000 0.000000
vn 0.000000 -1.000000 0.000000
vn 0.000000 -1.000000 0.000000
vn 0.000000 -1.000000 0.000000
vn 0.000000 -1.000000 0.000000
vn 0.002493 -0.999989 -0.004084
vn 0.002555 -0.999988 -0.004186
vn 0.000000 -0.999966 -0.008193
vn 0.000000 -0.999966 -0.008193
vn -0.002493 -0.999989 -0.004085
vn -0.002555 -0.999988 -0.004186
vn 0.000000 -1.000000 0.000000
vn 0.000000 -1.000000 0.000000
vn -0.997672 0.048901 0.047524
vn -0.999969 0.002337 -0.007548
vn -0.707088 0.012438 0.707016
vn -0.715265 0.014777 0.698697
vn 0.003283 0.015579 0.999873
vn -0.005690 0.022972 0.999720
vn 0.716717 0.019134 0.697102
vn 0.723026 0.019434 0.690548
vn 0.997140 0.057479 0.049073
vn 0.999969 0.002342 -0.007547
vn 0.646596 -0.404755 -0.646597
vn 0.000000 -0.404751 -0.914427
vn 0.000000 0.000000 -1.000000
vn 0.707106 0.000000 -0.707107
vn -0.646596 -0.404754 -0.646597
vn -0.707106 0.000000 -0.707107
vn -0.646596 -0.404754 -0.646597
vn -0.914425 -0.404756 0.000000
vn -1.000000 0.000000 0.000000
vn -0.707106 0.000000 -0.707107
vn -0.646595 -0.404755 0.646597
vn -0.707106 0.000000 0.707108
vn 0.000000 -0.404752 0.914426
vn 0.000000 0.000000 1.000000
vn 0.646595 -0.404755 0.646597
vn 0.707106 0.000000 0.707108
vn 0.914425 -0.404756 0.000000
vn 1.000000 0.000000 0.000000
vn 0.646596 -0.404755 -0.646597
vn 0.707106 0.000000 -0.707107
vn 0.000000 1.000000 -0.000001
vn 0.000000 1.000000 -0.000001
vn 0.000000 1.000000 -0.000001
vn 0.000000 1.000000 -0.000001
vn 0.000000 1.000000 0.000000
vn 0.000000 1.000000 0.000000
vn 0.000000 1.000000 0.000000
vn 0.000000 1.000000 0.000000
vn 0.000000 1.000000 0.000000
vn 0.000000 1.000000 0.000000
vn 0.000000 1.000000 -0.000001
vn 0.000000 1.000000 -0.000001
vn 0.000000 1.000000 0.000001
vn 0.000000 1.000000 0.000001
vn 0.000000 1.000000 0.000001
vn 0.000000 1.000000 0.000001
vn 0.000000 1.000000 0.000000
vn 0.000000 1.000000 0.000000
vn 0.000000 1.000000 -0.000001
vn 0.000000 1.000000 -0.000001
vn 0.000000 -0.404751 -0.914427
vn 0.646596 -0.404755 -0.646597
vn 0.000000 -1.000000 0.000000
vn -0.646596 -0.404754 -0.646597
vn -0.914425 -0.404756 0.000000
vn -0.646596 -0.404754 -0.646597
vn 0.000000 -1.000000 0.000000
vn -0.646595 -0.404755 0.646597
vn 0.000000 -0.404752 0.914426
vn 0.646595 -0.404755 0.646597
vn 0.914425 -0.404756 0.000000
vn 0.646596 -0.404755 -0.646597
vn -0.731159 -0.010250 -0.682130
vn -0.999997 -0.002535 0.000000
vn -0.997932 -0.049660 0.040800
vn -0.876036 -0.342071 -0.339925
vn -0.710337 -0.010477 0.703784
vn -0.707854 -0.010981 0.706273
vn -0.005466 -0.023487 0.999709
vn 0.003105 -0.015895 0.999869
vn 0.718167 -0.014903 0.695711
vn 0.717398 -0.017683 0.696439
vn 0.999997 -0.002529 0.000000
vn 0.997407 -0.058325 0.042155
vn 0.731159 -0.010248 -0.682130
vn 0.873289 -0.345482 -0.343525
vn -0.711735 -0.001172 0.702447
vn -0.707088 0.012438 0.707016
vn -0.707854 -0.010981 0.706273
vn 0.716717 0.019134 0.697102
vn 0.723414 -0.001347 0.690413
vn 0.717398 -0.017683 0.696439
vn 0.003283 0.015579 0.999873
vn 0.000000 0.000000 1.000000
vn 0.003105 -0.015895 0.999869
vn 0.000000 1.000000 0.000000
vn 0.000000 1.000000 -0.000000
vn 0.000000 1.000000 -0.000000
vn 0.000000 1.000000 0.000000
vn 0.000000 1.000000 0.000000
vn 0.000000 1.000000 0.000001
vn 0.000000 1.000000 -0.000000
vn 0.000000 1.000000 -0.000001
vn 0.000000 1.000000 0.000000
vn 0.000002 0.000153 -1.000000
vn 0.000004 0.000154 -1.000000
vn 0.000000 0.000156 -1.000000
vn -0.000000 0.000150 -1.000000
vn -0.000004 0.000154 -1.000000
vn 0.000000 0.000156 -1.000000
vn -0.000001 0.000153 -1.000000
vn -0.000000 0.000154 -1.000000
vn 0.000001 0.000153 -1.000000
vn 0.733912 0.678894 -0.021806
vn 0.999890 -0.000023 -0.014835
vn 0.000002 0.999527 -0.030750
vn -0.733913 0.678894 -0.021806
vn -0.999890 -0.000022 -0.014835
vn -0.732282 -0.680728 -0.019312
vn 0.000002 -0.999715 -0.023891
vn 0.732283 -0.680727 -0.019312
s 1
g obj_P0002_b Props Assets
usemtl lambert3SG
f 94/103/1 1/2/2 2/3/3 93/106/4
f 93/105/4 2/136/3 3/5/5 92/107/6
f 92/107/6 3/5/5 4/7/7 91/108/8
f 91/108/8 4/7/7 5/9/9 90/109/10
f 90/109/10 5/9/9 6/11/11 89/111/12
f 89/110/12 6/135/11 7/13/13 88/112/14
f 88/112/14 7/13/13 8/15/15 87/16/16
f 94/103/1 87/16/16 8/15/15 1/2/2
s 2
f 1/2/17 9/17/18 10/18/19 2/3/20
f 2/136/20 10/100/19 11/19/21 3/5/22
f 3/5/22 11/19/21 12/20/23 4/7/24
f 4/7/24 12/20/23 13/21/25 5/9/26
f 5/9/26 13/21/25 14/22/27 6/11/28
f 6/135/28 14/102/27 15/23/29 7/13/30
f 7/13/30 15/23/29 16/24/31 8/15/32
f 8/15/32 16/24/31 9/17/18 1/2/17
s 3
f 98/25/33 18/26/34 65/27/35 66/122/36
f 19/29/37 98/99/33 66/28/36 67/30/38
f 97/31/39 19/29/37 74/32/40 76/33/41
f 20/34/42 97/31/39 76/33/41 39/35/43
f 96/36/44 20/34/42 32/37/45 31/133/46
f 21/39/47 96/101/44 31/38/46 30/40/48
f 95/41/49 21/39/47 43/42/50 77/43/51
f 18/26/34 95/41/49 77/43/51 75/44/52
s 7
f 86/114/53 79/46/54 22/47/55 23/48/56
f 85/116/57 86/113/53 23/134/56 24/50/58
f 84/117/59 85/116/57 24/50/58 25/52/60
f 83/118/61 84/117/59 25/52/60 26/54/62
f 82/119/63 83/118/61 26/54/62 27/56/64
f 81/120/65 82/119/63 27/56/64 28/58/66
f 80/121/67 81/120/65 28/58/66 29/60/68
f 79/46/54 80/121/67 29/60/68 22/47/55
s 8
f 22/47/69 30/40/70 31/38/71 23/48/72
f 23/134/72 31/133/71 32/37/73 24/50/74
f 24/50/74 32/37/73 33/61/75 25/52/76
f 25/52/76 33/61/75 34/62/77 26/54/78
f 26/54/78 34/62/77 35/63/79 27/56/80
f 27/56/80 35/63/79 36/64/81 28/58/82
f 28/58/82 36/64/81 37/65/83 29/60/84
f 29/60/84 37/65/83 30/40/70 22/47/69
s 3
f 32/37/45 20/34/42 39/35/85 33/61/86
f 33/61/86 39/35/85 40/66/87 34/62/88
f 34/62/88 40/66/87 41/67/89 35/63/90
f 35/63/90 41/67/89 42/68/91 36/64/92
f 36/64/92 42/68/91 43/42/93 37/65/94
f 37/65/94 43/42/93 21/39/47 30/40/48
s 9
f 49/127/95 50/123/96 58/125/97 57/72/98
f 50/124/96 51/132/99 59/74/100 58/71/97
s 10
f 51/132/101 52/131/102 60/76/103 59/74/104
f 52/131/102 53/130/105 61/78/106 60/76/103
f 53/130/105 54/129/107 62/80/108 61/78/106
f 54/129/107 55/128/109 63/82/110 62/80/108
f 55/128/109 56/126/111 64/84/112 63/82/110
f 56/126/111 49/127/113 57/72/114 64/84/112
s 11
f 57/72/115 58/125/116 66/122/117 65/27/118
f 58/71/116 59/74/119 67/30/120 66/28/117
s 12
f 59/74/121 60/76/122 68/85/123 67/30/124
f 60/76/122 61/78/125 69/86/126 68/85/123
f 61/78/125 62/80/127 70/87/128 69/86/126
f 62/80/127 63/82/129 71/88/130 70/87/128
f 63/82/129 64/84/131 72/89/132 71/88/130
f 64/84/131 57/72/133 65/27/134 72/89/132
s 13
f 50/69/135 49/70/136 73/73/137
f 51/75/138 50/69/135 73/73/137
s 14
f 52/77/139 51/75/140 73/73/141
f 53/79/142 52/77/139 73/73/141
f 54/81/143 53/79/142 73/73/141
f 55/83/144 54/81/143 73/73/141
f 56/90/145 55/83/144 73/73/141
f 49/70/146 56/90/145 73/73/141
s 15
f 67/30/147 68/85/148 74/32/149 19/29/150
f 68/85/148 69/86/151 46/91/152 74/32/149
f 69/86/151 70/87/153 45/92/154 46/91/152
f 70/87/153 71/88/155 44/93/156 45/92/154
f 71/88/155 72/89/157 75/44/158 44/93/156
f 72/89/157 65/27/159 18/26/160 75/44/158
s 3
f 39/35/43 76/33/41 47/94/161 40/66/162
f 76/33/41 74/32/40 46/91/163 47/94/161
f 77/43/51 43/42/50 42/68/164 48/95/165
f 75/44/52 77/43/51 48/95/165 44/93/166
f 41/67/167 78/96/168 48/95/165 42/68/164
f 48/95/165 78/96/168 45/92/169 44/93/166
f 41/67/167 40/66/162 47/94/161 78/96/168
f 45/92/169 78/96/168 47/94/161 46/91/163
s 16
f 38/97/170 80/59/171 79/115/172
f 38/97/170 81/57/173 80/59/171
f 38/97/170 82/55/174 81/57/173
f 38/97/170 83/53/175 82/55/174
f 38/97/170 84/51/176 83/53/175
f 38/97/170 85/49/177 84/51/176
f 38/97/170 86/45/178 85/49/177
f 79/115/172 86/45/178 38/97/170
s 17
f 17/1/179 88/4/180 87/6/181
f 17/1/179 89/8/182 88/4/180
f 17/1/179 90/10/183 89/8/182
f 17/1/179 91/12/184 90/10/183
f 17/1/179 92/14/185 91/12/184
f 17/1/179 93/98/186 92/14/185
f 94/104/187 93/98/186 17/1/179
f 17/1/179 87/6/181 94/104/187
s 3
f 15/23/188 21/39/47 95/41/49 16/24/189
f 14/102/190 96/101/44 21/39/47 15/23/188
f 13/21/191 20/34/42 96/36/44 14/22/190
f 12/20/192 97/31/39 20/34/42 13/21/191
f 11/19/193 19/29/37 97/31/39 12/20/192
f 10/100/194 98/99/33 19/29/37 11/19/193
f 9/17/195 18/26/34 98/25/33 10/18/194
f 16/24/189 95/41/49 18/26/34 9/17/195
