# This file uses meters as units for non-parametric coordinates.

mtllib obj_P0002_d.mtl
g default
v 8.159958 5.623941 -3.144915
v 6.551487 4.088410 -2.223785
v 5.885223 3.452212 0.000031
v 6.551487 4.088302 2.223848
v 8.159958 5.623941 3.145002
v 9.949715 7.190434 2.223832
v 10.703419 7.868014 0.000031
v 9.949715 7.190434 -2.223785
v 6.347633 7.261209 -3.144915
v 5.646461 5.150797 -2.223785
v 5.351860 4.278057 0.000031
v 5.646461 5.150797 2.223845
v 6.357697 7.257833 3.144989
v 7.065456 9.390926 2.223842
v 7.346310 10.367878 0.000031
v 7.075493 9.387523 -2.223785
v 9.110489 3.194134 -3.144915
v 6.903725 2.919099 -2.223785
v 5.989670 2.805185 0.000031
v 6.903725 2.919099 2.223832
v 9.110489 3.194134 3.145002
v 11.343292 3.472438 2.223845
v 12.257374 3.586346 0.000031
v 11.343292 3.472438 -2.223785
v 9.092453 0.000010 0.000031
v 4.546242 5.286843 -2.223785
v 4.546242 7.554933 -3.144911
v 4.546242 4.368632 0.000031
v 4.546242 5.286843 2.223848
v 4.546242 7.541819 3.145002
v 4.546242 9.766756 2.223832
v 4.546242 10.693890 0.000027
v 4.546242 9.779917 -2.223775
v -2.250839 3.472438 -2.223785
v -3.164948 3.586346 0.000031
v -2.250839 3.472438 2.223845
v -0.018036 3.194134 3.145002
v 2.188755 2.919099 2.223832
v 3.102783 2.805185 0.000031
v 2.188755 2.919099 -2.223785
v -0.018036 3.194134 -3.144915
v 2.540966 4.088410 -2.223785
v 3.445992 5.150797 -2.223785
v 2.744793 7.261209 -3.144915
v 0.932495 5.623941 -3.144915
v 3.207256 3.452212 0.000031
v 3.740593 4.278057 0.000031
v 2.540966 4.088302 2.223848
v 3.445992 5.150797 2.223845
v 0.932495 5.623941 3.145002
v 2.734756 7.257833 3.144989
v -0.857288 7.190434 2.223832
v 2.027023 9.390926 2.223842
v -1.610992 7.868014 0.000031
v 1.746143 10.367878 0.000031
v -0.857288 7.190434 -2.223785
v 2.016933 9.387523 -2.223785
v 0.000000 0.000010 0.000031
v 12.799797 1.407347 0.000031
v 11.715168 1.407347 2.618697
v 9.096497 1.407347 3.703400
v 6.477875 1.407347 2.618697
v 5.393192 1.407347 0.000031
v 6.477875 1.407347 -2.618637
v 9.096497 1.407347 -3.703326
v 11.715168 1.407347 -2.618637
v 11.333828 1.407347 -2.223785
v 9.105526 1.407347 -3.144915
v 6.890244 1.407347 -2.223785
v 5.972664 1.407347 0.000031
v 6.890244 1.407347 2.223848
v 9.105526 1.407347 3.145002
v 11.333828 1.407347 2.223848
v 12.251434 1.407347 0.000031
v 11.713161 0.000003 -2.618637
v 9.094486 0.000010 -3.703322
v 6.475868 0.000003 -2.618637
v 5.391186 0.000003 0.000031
v 6.475868 0.000003 2.618714
v 9.094486 0.000010 3.703400
v 11.713161 0.000003 2.618714
v 12.797791 0.000003 0.000031
v -3.707397 1.446526 0.000031
v -2.622715 1.446526 -2.618650
v -0.004070 1.446539 -3.703326
v 2.614552 1.446539 -2.618650
v 3.699234 1.446539 0.000031
v 2.614552 1.446539 2.618697
v -0.004070 1.446539 3.703400
v -2.622715 1.446526 2.618697
v -2.241348 1.446546 -2.223785
v -3.158955 1.446546 0.000016
v -2.241402 1.446546 2.223832
v -0.013073 1.446546 3.145002
v 2.202209 1.446546 2.223848
v 3.119789 1.446546 0.000044
v 2.202209 1.446546 -2.223768
v -0.013073 1.446546 -3.144915
v -2.620682 0.000003 -2.618637
v -3.705338 0.000010 0.000031
v -2.620682 0.000003 2.618714
v -0.002033 0.000003 3.703400
v 2.616585 0.000003 2.618714
v 3.701241 0.000010 0.000031
v 2.616585 0.000003 -2.618637
v -0.002033 0.000003 -3.703322
vt 0.099799 0.698874
vt 0.091848 0.697333
vt 0.093077 0.692900
vt 0.099751 0.693983
vt 0.107725 0.697191
vt 0.106411 0.692782
vt 0.114695 0.693289
vt 0.112603 0.689465
vt 0.120510 0.688334
vt 0.118164 0.684835
vt 0.125324 0.683371
vt 0.123195 0.680494
vt 0.078899 0.688605
vt 0.081226 0.685084
vt 0.084796 0.693538
vt 0.086837 0.689671
vt 0.082482 0.681651
vt 0.083362 0.677119
vt 0.088808 0.677706
vt 0.088088 0.683526
vt 0.076944 0.679049
vt 0.121633 0.675813
vt 0.116886 0.681420
vt 0.115981 0.676903
vt 0.111292 0.683352
vt 0.110537 0.677575
vt 0.105441 0.684795
vt 0.105128 0.677865
vt 0.099696 0.685142
vt 0.099676 0.677861
vt 0.093949 0.684887
vt 0.094223 0.677963
vt 0.083512 0.673243
vt 0.088915 0.673212
vt 0.121593 0.673025
vt 0.115814 0.673029
vt 0.110436 0.673059
vt 0.105191 0.673095
vt 0.099667 0.673135
vt 0.094158 0.673175
vt 0.091497 0.698577
vt 0.099808 0.700114
vt 0.279841 0.026628
vt 0.090502 0.702138
vt 0.108105 0.698427
vt 0.279840 0.019542
vt 0.115360 0.694456
vt 0.274829 0.014533
vt 0.121430 0.689418
vt 0.267743 0.014534
vt 0.126724 0.683942
vt 0.262733 0.019545
vt 0.077978 0.689693
vt 0.262734 0.026632
vt 0.084153 0.694724
vt 0.267746 0.031641
vt 0.091625 0.649163
vt 0.099532 0.647484
vt 0.099578 0.652282
vt 0.092915 0.653485
vt 0.107463 0.649025
vt 0.106254 0.653369
vt 0.114497 0.652821
vt 0.112497 0.656600
vt 0.120384 0.657760
vt 0.118113 0.661191
vt 0.074046 0.662986
vt 0.076120 0.665788
vt 0.078865 0.658029
vt 0.081154 0.661439
vt 0.084670 0.653068
vt 0.086720 0.656805
vt 0.082434 0.664854
vt 0.088033 0.662918
vt 0.088787 0.668719
vt 0.083342 0.669370
vt 0.122391 0.667233
vt 0.077691 0.670466
vt 0.116853 0.664622
vt 0.115967 0.669153
vt 0.111244 0.662744
vt 0.110519 0.668540
vt 0.105381 0.661383
vt 0.105109 0.668325
vt 0.099632 0.661127
vt 0.099655 0.668408
vt 0.093885 0.661474
vt 0.094202 0.668386
vt 0.099524 0.646245
vt 0.091246 0.647930
vt 0.090131 0.644453
vt 0.267743 0.014534
vt 0.107813 0.647784
vt 0.274829 0.014533
vt 0.115139 0.651635
vt 0.279841 0.019542
vt 0.121303 0.656670
vt 0.279842 0.026628
vt 0.072648 0.662410
vt 0.274832 0.031640
vt 0.077947 0.656943
vt 0.267746 0.031641
vt 0.084008 0.651902
vt 0.262734 0.026632
vt 0.271289 0.023092
vt 0.271283 0.023085
vt 0.125201 0.662736
vt 0.126598 0.662160
vt 0.074083 0.683624
vt 0.072686 0.684195
vt 0.123148 0.665541
vt 0.076891 0.667473
vt 0.121616 0.670232
vt 0.077734 0.673254
vt 0.076192 0.680743
vt 0.122428 0.678807
vt 0.077714 0.676047
vt 0.082117 0.648691
vt 0.262733 0.019546
vt 0.075501 0.654087
vt 0.129290 0.659417
vt 0.070024 0.659702
vt 0.123678 0.653793
vt 0.116987 0.648403
vt 0.108836 0.644124
vt 0.099401 0.642630
vt 0.099928 0.703635
vt 0.274832 0.031640
vt 0.109192 0.701813
vt 0.117202 0.697580
vt 0.123816 0.692190
vt 0.070060 0.686854
vt 0.129285 0.686566
vt 0.075662 0.692487
vt 0.082353 0.697870
vn 0.999994 -0.003629 -0.000000
vn 0.720584 -0.002638 -0.693363
vn 0.735092 0.174883 -0.655023
vn 0.973030 0.230679 0.000000
vn 0.720586 -0.002638 0.693360
vn 0.735092 0.174883 0.655024
vn 0.031406 0.000239 0.999507
vn 0.118700 0.036817 0.992247
vn -0.691862 0.006178 0.722003
vn -0.629311 -0.079880 0.773038
vn -0.999945 0.010479 -0.000000
vn -0.996499 -0.083603 -0.000001
vn -0.691860 0.006175 -0.722005
vn -0.629311 -0.079881 -0.773038
vn 0.031407 0.000236 -0.999507
vn 0.118701 0.036817 -0.992247
vn -0.533096 -0.298062 -0.791813
vn -0.290672 -0.509806 -0.809696
vn 0.069131 0.132637 -0.988751
vn 0.122142 0.084077 -0.988945
vn -0.898352 -0.439277 0.000001
vn -0.525782 -0.850620 -0.000002
vn -0.533270 -0.297892 0.791760
vn -0.290223 -0.510317 0.809535
vn 0.122184 0.084193 0.988930
vn 0.069213 0.133454 0.988635
vn 0.618937 0.443372 0.648335
vn 0.320852 0.682599 0.656591
vn 0.805866 0.592098 0.000337
vn 0.412350 0.911025 0.000863
vn 0.618952 0.443085 -0.648517
vn 0.322412 0.682039 -0.656410
vn -0.000000 -0.627331 -0.778753
vn 0.000000 0.117547 -0.993067
vn -0.000000 -1.000000 0.000000
vn -0.000000 -0.628040 0.778181
vn 0.000000 0.115720 0.993282
vn 0.000000 0.746351 0.665553
vn -0.000000 1.000000 0.000670
vn 0.000000 0.747831 -0.663889
vn 0.707285 -0.001010 -0.706927
vn 0.999999 -0.001425 0.000000
vn 0.999999 -0.001425 0.000000
vn 0.706938 -0.001009 -0.707274
vn 0.707288 -0.001004 0.706924
vn 0.706938 -0.001004 0.707275
vn 0.000348 0.000005 1.000000
vn -0.000348 0.000006 1.000000
vn -0.706941 0.001012 0.707272
vn -0.707286 0.001013 0.706927
vn -0.999999 0.001427 0.000000
vn -0.999999 0.001427 0.000000
vn -0.706938 0.001008 -0.707275
vn -0.707286 0.001008 -0.706927
vn 0.000348 -0.000002 -1.000000
vn -0.000348 -0.000001 -1.000000
vn -0.720848 -0.002701 -0.693088
vn -0.999993 -0.003711 -0.000007
vn -0.973030 0.230679 0.000000
vn -0.735092 0.174883 -0.655023
vn -0.720856 -0.002695 0.693079
vn -0.735092 0.174883 0.655024
vn -0.032112 0.000242 0.999484
vn -0.118700 0.036817 0.992247
vn 0.691406 0.006333 0.722439
vn 0.629311 -0.079880 0.773038
vn 0.999942 0.010758 0.000002
vn 0.996499 -0.083603 -0.000001
vn 0.691407 0.006324 -0.722438
vn 0.629311 -0.079881 -0.773038
vn -0.032109 0.000236 -0.999484
vn -0.118701 0.036817 -0.992247
vn 0.533096 -0.298062 -0.791813
vn -0.122142 0.084077 -0.988945
vn -0.069131 0.132637 -0.988751
vn 0.290672 -0.509806 -0.809696
vn 0.898352 -0.439277 0.000001
vn 0.525782 -0.850620 -0.000002
vn 0.533270 -0.297892 0.791760
vn 0.290223 -0.510317 0.809535
vn -0.122184 0.084193 0.988930
vn -0.069213 0.133454 0.988635
vn -0.618937 0.443372 0.648335
vn -0.320852 0.682599 0.656591
vn -0.805866 0.592098 0.000337
vn -0.412350 0.911025 0.000863
vn -0.618952 0.443085 -0.648517
vn -0.322412 0.682039 -0.656410
vn -0.999999 -0.001415 -0.000000
vn -0.707279 -0.001003 -0.706934
vn -0.706939 -0.001002 -0.707274
vn -0.999999 -0.001415 -0.000000
vn -0.707283 -0.000995 0.706930
vn -0.706938 -0.000994 0.707275
vn -0.000341 0.000005 1.000000
vn 0.000344 0.000006 1.000000
vn 0.706944 0.000994 0.707269
vn 0.707283 0.000994 0.706929
vn 0.999999 0.001397 -0.000000
vn 0.999999 0.001397 -0.000000
vn 0.706940 0.000985 -0.707273
vn 0.707285 0.000986 -0.706928
vn -0.000342 -0.000006 -1.000000
vn 0.000344 -0.000005 -1.000000
vn 0.000000 -1.000000 0.000002
vn 0.005598 -0.999984 0.000000
vn 0.000000 -1.000000 -0.000000
vn 0.000000 -1.000000 -0.000002
vn 0.000000 -1.000000 -0.000002
vn -0.000000 -1.000000 -0.000002
vn 0.000000 -1.000000 -0.000000
vn -0.000000 -1.000000 0.000002
vn 0.000000 -1.000000 0.000002
vn 0.000000 1.000000 -0.000000
vn -0.000000 1.000000 -0.000000
vn -0.000000 1.000000 -0.000000
vn -0.000000 1.000000 -0.000000
vn 0.000000 1.000000 0.000000
vn 0.000000 1.000000 0.000000
vn -0.000000 1.000000 0.000000
vn -0.000000 1.000000 0.000000
vn -0.000000 1.000000 0.000000
vn -0.000000 1.000000 0.000000
vn 0.000000 1.000000 0.000000
vn -0.000000 1.000000 0.000000
vn 0.000000 1.000000 0.000000
vn 0.000000 1.000000 0.000000
vn 0.000000 1.000000 0.000000
vn 0.000000 1.000000 0.000000
vn -0.005602 -0.999984 -0.000006
vn -0.000000 -1.000000 -0.000000
vn -0.000002 -1.000000 0.000000
vn 0.000002 -1.000000 0.000000
vn 0.000002 -1.000000 -0.000000
vn 0.000002 -1.000000 -0.000000
vn -0.000000 -1.000000 0.000000
vn -0.000002 -1.000000 -0.000000
vn -0.000002 -1.000000 -0.000000
vn -0.000025 1.000000 -0.000019
vn -0.000024 1.000000 -0.000020
vn -0.000037 1.000000 0.000000
vn -0.000037 1.000000 0.000000
vn -0.000004 1.000000 -0.000018
vn -0.000004 1.000000 -0.000018
vn 0.000008 1.000000 -0.000008
vn 0.000008 1.000000 -0.000008
vn 0.000012 1.000000 0.000000
vn 0.000012 1.000000 0.000000
vn 0.000009 1.000000 0.000008
vn 0.000009 1.000000 0.000009
vn -0.000004 1.000000 0.000018
vn -0.000004 1.000000 0.000018
vn -0.000025 1.000000 0.000020
vn -0.000025 1.000000 0.000019
s 1
g obj_P0002_d Props Assets
usemtl lambert3SG
f 74/1/1 67/2/2 24/3/3 23/4/4
f 73/5/5 74/1/1 23/4/4 22/6/6
f 72/7/7 73/5/5 22/6/6 21/8/8
f 71/9/9 72/7/7 21/8/8 20/10/10
f 70/11/11 71/9/9 20/10/10 19/12/12
f 69/13/13 70/109/11 19/115/12 18/14/14
f 68/15/15 69/13/13 18/14/14 17/16/16
f 67/2/2 68/15/15 17/16/16 24/3/3
f 2/17/17 10/18/18 9/19/19 1/20/20
f 3/21/21 11/117/22 10/18/18 2/17/17
f 4/23/23 12/24/24 11/22/22 3/116/21
f 5/25/25 13/26/26 12/24/24 4/23/23
f 6/27/27 14/28/28 13/26/26 5/25/25
f 7/29/29 15/30/30 14/28/28 6/27/27
f 8/31/31 16/32/32 15/30/30 7/29/29
f 1/20/20 9/19/19 16/32/32 8/31/31
f 10/18/18 26/33/33 27/34/34 9/19/19
f 11/117/22 28/114/35 26/33/33 10/18/18
f 12/24/24 29/36/36 28/35/35 11/22/22
f 13/26/26 30/37/37 29/36/36 12/24/24
f 14/28/28 31/38/38 30/37/37 13/26/26
f 15/30/30 32/39/39 31/38/38 14/28/28
f 16/32/32 33/40/40 32/39/39 15/30/30
f 9/19/19 27/34/34 33/40/40 16/32/32
f 18/14/14 2/17/17 1/20/20 17/16/16
f 19/115/12 3/21/21 2/17/17 18/14/14
f 20/10/10 4/23/23 3/116/21 19/12/12
f 21/8/8 5/25/25 4/23/23 20/10/10
f 22/6/6 6/27/27 5/25/25 21/8/8
f 23/4/4 7/29/29 6/27/27 22/6/6
f 24/3/3 8/31/31 7/29/29 23/4/4
f 17/16/16 1/20/20 8/31/31 24/3/3
s 3
f 66/41/41 59/42/42 82/127/43 75/44/44
f 59/42/42 60/45/45 81/129/46 82/127/43
f 60/45/45 61/47/47 80/130/48 81/129/46
f 61/47/47 62/49/49 79/131/50 80/130/48
f 62/49/49 63/51/51 78/133/52 79/131/50
f 63/110/51 64/53/53 77/134/54 78/132/52
f 64/53/53 65/55/55 76/135/56 77/134/54
f 65/55/55 66/41/41 75/44/44 76/135/56
s 1
f 91/57/57 92/58/58 35/59/59 34/60/60
f 92/58/58 93/61/61 36/62/62 35/59/59
f 93/61/61 94/63/63 37/64/64 36/62/62
f 94/63/63 95/65/65 38/66/66 37/64/64
f 95/65/65 96/107/67 39/111/68 38/66/66
f 96/67/67 97/69/69 40/70/70 39/68/68
f 97/69/69 98/71/71 41/72/72 40/70/70
f 98/71/71 91/57/57 34/60/60 41/72/72
f 42/73/73 45/74/74 44/75/75 43/76/76
f 46/112/77 42/73/73 43/76/76 47/78/78
f 48/79/79 46/77/77 47/113/78 49/80/80
f 50/81/81 48/79/79 49/80/80 51/82/82
f 52/83/83 50/81/81 51/82/82 53/84/84
f 54/85/85 52/83/83 53/84/84 55/86/86
f 56/87/87 54/85/85 55/86/86 57/88/88
f 45/74/74 56/87/87 57/88/88 44/75/75
f 43/76/76 44/75/75 27/34/34 26/33/33
f 47/78/78 43/76/76 26/33/33 28/114/35
f 49/80/80 47/113/78 28/35/35 29/36/36
f 51/82/82 49/80/80 29/36/36 30/37/37
f 53/84/84 51/82/82 30/37/37 31/38/38
f 55/86/86 53/84/84 31/38/38 32/39/39
f 57/88/88 55/86/86 32/39/39 33/40/40
f 44/75/75 57/88/88 33/40/40 27/34/34
f 40/70/70 41/72/72 45/74/74 42/73/73
f 39/68/68 40/70/70 42/73/73 46/112/77
f 38/66/66 39/111/68 46/77/77 48/79/79
f 37/64/64 38/66/66 48/79/79 50/81/81
f 36/62/62 37/64/64 50/81/81 52/83/83
f 35/59/59 36/62/62 52/83/83 54/85/85
f 34/60/60 35/59/59 54/85/85 56/87/87
f 41/72/72 34/60/60 56/87/87 45/74/74
s 5
f 83/89/89 84/90/90 99/91/91 100/126/92
f 90/93/93 83/89/89 100/126/92 101/125/94
f 89/95/95 90/93/93 101/125/94 102/124/96
f 88/97/97 89/95/95 102/124/96 103/123/98
f 87/108/99 88/97/97 103/123/98 104/121/100
f 86/101/101 87/99/99 104/122/100 105/120/102
f 85/103/103 86/101/101 105/120/102 106/118/104
f 84/90/90 85/103/103 106/118/104 99/91/91
s 6
f 99/119/105 58/105/106 100/92/107
f 58/105/106 101/94/108 100/92/107
f 58/105/106 102/96/109 101/94/108
f 58/105/106 103/98/110 102/96/109
f 58/105/106 104/100/111 103/98/110
f 58/105/106 105/102/112 104/100/111
f 58/105/106 106/104/113 105/102/112
f 58/105/106 99/119/105 106/104/113
s 7
f 65/55/114 68/15/115 67/2/116 66/41/117
f 64/53/118 69/13/119 68/15/115 65/55/114
f 63/110/120 70/109/121 69/13/119 64/53/118
f 62/49/122 71/9/123 70/11/121 63/51/120
f 61/47/124 72/7/125 71/9/123 62/49/122
f 60/45/126 73/5/127 72/7/125 61/47/124
f 59/42/128 74/1/129 73/5/127 60/45/126
f 67/2/116 74/1/129 59/42/128 66/41/117
s 8
f 25/106/130 76/56/131 75/128/132
f 25/106/130 77/54/133 76/56/131
f 25/106/130 78/52/134 77/54/133
f 25/106/130 79/50/135 78/52/134
f 25/106/130 80/48/136 79/50/135
f 25/106/130 81/46/137 80/48/136
f 25/106/130 82/43/138 81/46/137
f 75/128/132 82/43/138 25/106/130
s 9
f 91/57/139 84/90/140 83/89/141 92/58/142
f 85/103/143 84/90/140 91/57/139 98/71/144
f 86/101/145 85/103/143 98/71/144 97/69/146
f 87/99/147 86/101/145 97/69/146 96/67/148
f 88/97/149 87/108/147 96/107/148 95/65/150
f 89/95/151 88/97/149 95/65/150 94/63/152
f 90/93/153 89/95/151 94/63/152 93/61/154
f 83/89/141 90/93/153 93/61/154 92/58/142
