# This file uses meters as units for non-parametric coordinates.

mtllib obj_H0002.mtl
g default
v 0.000008 4.103775 -20.098450
v 0.000008 4.103775 20.098450
v 46.134392 4.103775 -20.098450
v 46.134392 4.103775 20.098450
v 0.000008 21.358948 -20.098450
v 0.000008 21.358948 20.098450
v 46.134392 21.358948 20.098450
v 46.134392 21.358948 -20.098450
v 48.229046 4.103775 -21.782471
v 48.229046 4.103775 21.782471
v 48.229046 0.000000 21.782471
v 48.229046 0.000000 -21.782471
v -2.094646 4.103775 -21.782471
v -2.094646 0.000000 -21.782471
v -2.094646 4.103775 21.782471
v -2.094646 0.000000 21.782471
v 14.795528 43.167976 -20.098450
v 0.000000 43.167976 -20.098450
v 0.000000 43.167976 20.098450
v 14.795528 43.167976 20.098450
v 48.229046 0.000000 -11.594543
v 48.229046 4.103773 -11.594543
v 46.134392 4.103773 -11.594543
v 46.134392 21.358948 -11.594543
v 14.795528 43.167976 -11.594543
v 0.000000 43.167976 -11.594543
v 48.229046 0.000000 -6.560059
v 48.229046 4.103773 -6.560059
v 46.134392 4.103773 -6.560059
v 46.134392 21.358948 -6.560059
v 14.795528 43.167976 -6.560059
v 0.000000 43.167976 -6.560059
v 48.229046 0.000000 6.560059
v 48.229046 4.103775 6.560059
v 46.134392 4.103775 6.560059
v 46.134392 21.358948 6.560059
v 14.795528 43.167976 6.560059
v 0.000000 43.167976 6.560059
v 48.229046 0.000000 11.594543
v 48.229046 4.103775 11.594543
v 46.134392 4.103775 11.594543
v 46.134392 21.358948 11.594543
v 14.795528 43.167976 11.594543
v 0.000000 43.167976 11.594543
v 37.835846 27.133987 -20.098450
v 0.000006 27.133987 -20.098450
v 0.000006 27.133987 20.098450
v 37.835846 27.133987 20.098450
v 37.835846 27.133987 11.594543
v 34.371590 26.162394 5.205383
v 34.371597 26.162394 -5.205322
v 37.835846 27.133987 -11.594543
v 0.000002 37.504917 -20.098450
v 22.933161 37.504917 -20.098450
v 22.933161 37.504917 -11.594543
v 22.246035 34.764050 -5.205322
v 22.246037 34.764050 5.205383
v 22.933161 37.504917 11.594543
v 22.933161 37.504917 20.098450
v 0.000002 37.504917 20.098450
v 0.000000 41.079605 -20.098450
v 17.796453 41.079605 -20.098450
v 17.796453 41.079605 -11.594543
v 17.796453 41.079605 -6.560059
v 17.796453 41.079605 6.560059
v 17.796453 41.079605 11.594543
v 17.796453 41.079605 20.098450
v 0.000000 41.079605 20.098450
v 43.732376 23.030533 -20.098450
v 0.000008 23.030533 -20.098450
v 0.000008 23.030533 20.098450
v 43.732376 23.030533 20.098450
v 43.732376 23.030533 11.594543
v 43.732376 23.030533 6.560059
v 43.732380 23.030533 -6.560059
v 43.732376 23.030533 -11.594543
v 24.323021 39.502106 -11.594543
v 24.323019 39.502106 -6.560059
v 39.225708 29.131178 -6.560059
v 39.225704 29.131178 -11.594543
v 24.323023 39.502102 6.560059
v 24.323025 39.502102 11.594543
v 39.225708 29.131176 11.594543
v 39.225708 29.131176 6.560059
v 43.407906 26.323208 11.594543
v 43.407906 26.323208 6.560059
v 43.407913 26.323208 -6.560059
v 43.407906 26.323208 -11.594543
v 20.631935 41.963257 -11.594543
v 20.631931 41.963257 -6.560059
v 20.631931 41.963257 6.560059
v 20.631935 41.963257 11.594543
v 21.908390 19.426929 4.788940
v 33.312180 23.529026 4.788940
v 17.806293 30.830717 4.788940
v 29.210083 34.932816 4.788940
v 17.806293 30.830717 -4.789001
v 29.210083 34.932816 -4.789001
v 21.908390 19.426929 -4.789001
v 33.312180 23.529026 -4.789001
v 33.161762 29.914604 -4.789001
v 33.161762 29.914604 4.788940
v 17.956709 24.445141 4.788940
v 17.956709 24.445141 -4.789001
v 22.824505 34.782398 4.788940
v 22.824505 34.782398 -4.789001
v 28.293968 19.577345 -4.789001
v 28.293968 19.577345 4.788940
v 17.806293 30.830717 1.732666
v 17.806293 30.830717 -1.732727
v 22.824505 34.782398 1.732666
v 22.824505 34.782398 -1.732727
v 29.210083 34.932816 -1.732727
v 29.210083 34.932816 1.732666
v 21.908390 19.426929 -1.732727
v 21.908390 19.426929 1.732666
v 28.293968 19.577345 -1.732727
v 28.293968 19.577345 1.732666
v 33.312180 23.529026 1.732666
v 33.312180 23.529026 -1.732727
v 33.161762 29.914604 1.732666
v 33.161762 29.914604 -1.732727
v 17.956709 24.445141 -1.732727
v 17.956709 24.445141 1.732666
v 25.559237 27.179873 4.788940
v 25.559237 27.179873 -4.789001
v 24.579662 41.386345 0.619141
v 24.579662 41.386345 -0.619324
v 26.861664 41.440098 0.619141
v 26.861664 41.440098 -0.619324
v 24.550140 46.376755 0.619141
v 24.550140 46.376755 -0.619324
v 26.832138 46.430511 0.619141
v 26.832138 46.430511 -0.619324
v 24.156733 50.029305 0.815186
v 24.156733 50.029305 -0.815430
v 27.161436 50.100082 0.815186
v 27.161436 50.100082 -0.815430
v 23.651154 47.381443 1.375000
v 23.651165 47.381447 -1.375244
v 23.603945 49.385708 1.375000
v 23.603954 49.385712 -1.375244
v 27.791113 47.478958 1.375000
v 27.743904 49.483223 1.375000
v 27.791124 47.478966 -1.375244
v 27.743914 49.483223 -1.375244
v 27.236698 38.423088 0.784058
v 24.347092 38.355022 0.784058
v 24.347092 38.355022 -0.784119
v 27.236698 38.423088 -0.784119
vt 0.135121 -0.764103
vt 0.011003 -0.763522
vt 0.011003 -0.719628
vt 0.135125 -0.720965
vt 0.120321 -0.763522
vt 0.135121 -0.556722
vt 0.135125 -0.599860
vt 0.250461 -0.599848
vt 0.033187 -0.763522
vt 0.033187 -0.719628
vt 0.033187 -0.616700
vt 0.033187 -0.579102
vt 0.011003 -0.579102
vt 0.172119 -0.666446
vt 0.033187 -0.779272
vt 0.033187 -0.768845
vt 0.009557 -0.768845
vt 0.255692 -0.778584
vt 0.129884 -0.552512
vt 0.255693 -0.552499
vt 0.121838 -0.779272
vt 0.129883 -0.542253
vt 0.129884 -0.768313
vt 0.129883 -0.778572
vt 0.033187 -0.643159
vt 0.192462 -0.680605
vt 0.229716 -0.706536
vt 0.033187 -0.692794
vt 0.135130 -0.640225
vt 0.120321 -0.643159
vt 0.120321 -0.692794
vt 0.135127 -0.614297
vt 0.135129 -0.680600
vt 0.135126 -0.706527
vt 0.098507 -0.768845
vt 0.098507 -0.779272
vt 0.098507 -0.763522
vt 0.098507 -0.719628
vt 0.098507 -0.643159
vt 0.098507 -0.692794
vt 0.120321 -0.616700
vt 0.135131 -0.654383
vt 0.098507 -0.579102
vt 0.098507 -0.616700
vt 0.083601 -0.768845
vt 0.083601 -0.779272
vt 0.083601 -0.763522
vt 0.083601 -0.719628
vt 0.098507 -0.643159
vt 0.083601 -0.643159
vt 0.083601 -0.692794
vt 0.098507 -0.692794
vt 0.083601 -0.579102
vt 0.083601 -0.616700
vt 0.047711 -0.768845
vt 0.047711 -0.779272
vt 0.047711 -0.763522
vt 0.047711 -0.719628
vt 0.055594 -0.651999
vt 0.055594 -0.682146
vt 0.075873 -0.682146
vt 0.075873 -0.651999
vt 0.047711 -0.579102
vt 0.047711 -0.616700
vt 0.047711 -0.643159
vt 0.033187 -0.643159
vt 0.033187 -0.692794
vt 0.047711 -0.692794
vt 0.120321 -0.712170
vt 0.135126 -0.604039
vt 0.135125 -0.716786
vt 0.011003 -0.712170
vt 0.033187 -0.712170
vt 0.033187 -0.704284
vt 0.047711 -0.704284
vt 0.083601 -0.704284
vt 0.098507 -0.704284
vt 0.098507 -0.712170
vt 0.135131 -0.649162
vt 0.120321 -0.626019
vt 0.098507 -0.626019
vt 0.098507 -0.633083
vt 0.083601 -0.633083
vt 0.047711 -0.633083
vt 0.033187 -0.633083
vt 0.033187 -0.626019
vt 0.179621 -0.671668
vt 0.135130 -0.671663
vt 0.083601 -0.626019
vt 0.047711 -0.626019
vt 0.047711 -0.712170
vt 0.083601 -0.712170
vt 0.362892 -0.650139
vt 0.371555 -0.650139
vt 0.371555 -0.634171
vt 0.362892 -0.634171
vt 0.288078 -0.647864
vt 0.279655 -0.644052
vt 0.286736 -0.604113
vt 0.286420 -0.607908
vt 0.290252 -0.609913
vt 0.291068 -0.607670
vt 0.310900 -0.643576
vt 0.303805 -0.647297
vt 0.362892 -0.570297
vt 0.371555 -0.570297
vt 0.371555 -0.618202
vt 0.362892 -0.618202
vt 0.371555 -0.602234
vt 0.362892 -0.602234
vt 0.371555 -0.586266
vt 0.362892 -0.586266
vt 0.277685 -0.595022
vt 0.293654 -0.595026
vt 0.287270 -0.575863
vt 0.268111 -0.566277
vt 0.280888 -0.556699
vt 0.287270 -0.575863
vt 0.296856 -0.556703
vt 0.293654 -0.595026
vt 0.277685 -0.595022
vt 0.306430 -0.585448
vt 0.280888 -0.556699
vt 0.268111 -0.566277
vt 0.296856 -0.556703
vt 0.306430 -0.585448
vt 0.268107 -0.582246
vt 0.268107 -0.582246
vt 0.306434 -0.569480
vt 0.306434 -0.569480
vt 0.291110 -0.637514
vt 0.310281 -0.628537
vt 0.299769 -0.636358
vt 0.304286 -0.634379
vt 0.305719 -0.622833
vt 0.290634 -0.629324
vt 0.285895 -0.616697
vt 0.282599 -0.616909
vt 0.297048 -0.628001
vt 0.292584 -0.616120
vt 0.300392 -0.626453
vt 0.296162 -0.614089
vt 0.297297 -0.603322
vt 0.284118 -0.613726
vt 0.285152 -0.609482
vt 0.289423 -0.602062
vt 0.291598 -0.615056
vt 0.290555 -0.611557
vt 0.295212 -0.611621
vt 0.292795 -0.607948
vt 0.244456 -0.716796
vt 0.011003 -0.692794
vt 0.244457 -0.604027
vt 0.229717 -0.614288
vt 0.011003 -0.626019
vt 0.011003 -0.616700
vt 0.179622 -0.649157
vt 0.172120 -0.654379
vt 0.011003 -0.643159
vt 0.192463 -0.640219
vt 0.135130 -0.666442
vt 0.250461 -0.720976
vt 0.120321 -0.579102
vt 0.120321 -0.719628
vt 0.121838 -0.768845
vt 0.255692 -0.542240
vt 0.255693 -0.768324
vt 0.009557 -0.779272
vt 0.250457 -0.764114
vt 0.250457 -0.556710
vt 0.379196 -0.570297
vt 0.379196 -0.586266
vt 0.379196 -0.554329
vt 0.379196 -0.634171
vt 0.379196 -0.618202
vt 0.379196 -0.650139
vt 0.355251 -0.570297
vt 0.355251 -0.554329
vt 0.355251 -0.586266
vt 0.355251 -0.634171
vt 0.355251 -0.650139
vt 0.355251 -0.618202
vt 0.379196 -0.602234
vt 0.379196 -0.538361
vt 0.355251 -0.666107
vt 0.355251 -0.602234
vt 0.379196 -0.666107
vt 0.320203 -0.631015
vt 0.371555 -0.666107
vt 0.355251 -0.538361
vt 0.362892 -0.666107
vt 0.371555 -0.554329
vt 0.371555 -0.538361
vt 0.362892 -0.554329
vt 0.362892 -0.538361
vt 0.286890 -0.636255
vt 0.287268 -0.629533
vt 0.279660 -0.612243
vt 0.282457 -0.604883
vt 0.299706 -0.608993
vn 0.000000 0.000000 1.000000
vn 0.000000 0.000000 1.000000
vn 0.000000 0.000000 1.000000
vn 0.000000 0.000000 1.000000
vn 0.000000 0.000000 -1.000000
vn 0.000000 0.000000 -1.000000
vn 0.000000 0.000000 -1.000000
vn 0.000000 0.000000 -1.000000
vn 1.000000 0.000000 0.000000
vn 1.000000 0.000000 0.000000
vn 1.000000 0.000000 0.000000
vn 1.000000 0.000000 0.000000
vn 0.000000 1.000000 0.000000
vn 0.000000 1.000000 0.000000
vn 0.000000 1.000000 0.000000
vn 0.000000 1.000000 0.000000
vn 1.000000 0.000000 0.000000
vn 1.000000 0.000000 0.000000
vn 1.000000 0.000000 0.000000
vn 1.000000 0.000000 0.000000
vn 0.000000 0.000000 -1.000000
vn 0.000000 0.000000 -1.000000
vn 0.000000 0.000000 -1.000000
vn 0.000000 0.000000 -1.000000
vn 0.000000 0.000000 1.000000
vn 0.000000 0.000000 1.000000
vn 0.000000 0.000000 1.000000
vn 0.000000 0.000000 1.000000
vn 0.000000 1.000000 0.000000
vn 0.000000 1.000000 0.000000
vn 0.000000 1.000000 0.000000
vn 0.000000 1.000000 0.000000
vn 0.000000 1.000000 -0.000000
vn 0.000000 1.000000 -0.000000
vn 0.000000 1.000000 -0.000000
vn 0.000000 1.000000 -0.000000
vn 0.000000 1.000000 0.000000
vn 0.000000 1.000000 0.000000
vn 0.571207 0.820806 0.000000
vn 0.571207 0.820806 0.000000
vn 0.571207 0.820806 0.000000
vn 0.571207 0.820806 0.000000
vn 0.000000 0.000000 -1.000000
vn 0.000000 0.000000 -1.000000
vn 0.000000 0.000000 -1.000000
vn 0.000000 0.000000 -1.000000
vn 0.000000 0.000000 1.000000
vn 0.000000 0.000000 1.000000
vn 0.000000 0.000000 1.000000
vn 0.000000 0.000000 1.000000
vn 1.000000 0.000000 0.000000
vn 1.000000 0.000000 0.000000
vn 1.000000 0.000000 0.000000
vn 1.000000 0.000000 0.000000
vn 0.000000 1.000000 0.000000
vn 0.000000 1.000000 0.000000
vn 1.000000 0.000000 0.000000
vn 1.000000 0.000000 0.000000
vn 1.000000 0.000000 0.000000
vn 1.000000 0.000000 0.000000
vn 0.571207 0.820806 0.000000
vn 0.571207 0.820806 0.000000
vn 0.571207 0.820806 0.000000
vn 0.571207 0.820806 0.000000
vn 0.000000 1.000000 0.000000
vn 0.000000 1.000000 0.000000
vn 0.000000 1.000000 0.000000
vn 0.000000 1.000000 0.000000
vn 1.000000 0.000000 0.000000
vn 1.000000 0.000000 0.000000
vn 0.000000 1.000000 -0.000000
vn 0.000000 1.000000 -0.000000
vn 1.000000 0.000000 0.000000
vn 1.000000 0.000000 0.000000
vn 0.567997 0.823031 0.000000
vn 0.563534 0.826093 0.000000
vn 0.564333 0.825547 -0.000000
vn 0.568227 0.822872 -0.000000
vn 0.000000 1.000000 0.000000
vn 0.000000 1.000000 0.000000
vn 1.000000 0.000000 0.000000
vn 1.000000 0.000000 0.000000
vn 0.000000 1.000000 -0.000000
vn 0.000000 1.000000 -0.000000
vn 1.000000 0.000000 0.000000
vn 1.000000 0.000000 0.000000
vn 0.578587 0.815621 0.000000
vn 0.578587 0.815621 0.000000
vn 0.578587 0.815621 0.000000
vn 0.578587 0.815621 0.000000
vn 0.000000 1.000000 0.000000
vn 0.000000 1.000000 0.000000
vn 0.563534 0.826093 0.000000
vn 0.567997 0.823031 0.000000
vn 0.568227 0.822872 0.000000
vn 0.564333 0.825547 0.000000
vn 0.000000 0.000000 -1.000000
vn 0.000000 0.000000 -1.000000
vn 0.000000 0.000000 1.000000
vn 0.000000 0.000000 1.000000
vn 0.571207 0.820806 0.000000
vn 0.571207 0.820806 0.000000
vn 0.557424 0.830228 0.000000
vn 0.557423 0.830229 0.000000
vn 0.557423 0.830229 -0.000000
vn 0.557423 0.830229 -0.000001
vn 0.571207 0.820806 -0.000000
vn 0.571207 0.820806 0.000000
vn 0.000000 0.000000 -1.000000
vn 0.000000 0.000000 -1.000000
vn 0.571207 0.820806 0.000000
vn 0.571207 0.820806 0.000000
vn 0.554767 0.832006 0.000000
vn 0.554767 0.832006 0.000000
vn 0.554767 0.832006 0.000000
vn 0.554767 0.832006 0.000000
vn 0.571207 0.820806 0.000000
vn 0.571207 0.820806 0.000000
vn 0.000000 0.000000 1.000000
vn 0.000000 0.000000 1.000000
vn 0.000000 0.000000 -1.000000
vn 0.000000 0.000000 -1.000000
vn 0.571207 0.820806 0.000000
vn 0.571207 0.820806 0.000000
vn 0.571207 0.820806 0.000000
vn 0.571207 0.820806 0.000000
vn 0.571207 0.820806 0.000000
vn 0.571207 0.820806 0.000000
vn 0.571207 0.820806 0.000000
vn 0.571207 0.820806 0.000000
vn 0.000000 0.000000 1.000000
vn 0.000000 0.000000 1.000000
vn 0.000000 0.000000 -1.000000
vn 0.000000 0.000000 -1.000000
vn 0.000000 0.000000 1.000000
vn 0.000000 0.000000 1.000000
vn 0.571207 0.820806 0.000000
vn 0.571207 0.820806 0.000000
vn 0.571207 0.820806 0.000000
vn 0.571207 0.820806 0.000000
vn 0.571207 0.820806 0.000000
vn 0.571207 0.820806 0.000000
vn 0.571207 0.820806 -0.000000
vn 0.571207 0.820806 0.000000
vn 0.146294 0.208410 0.967038
vn 0.146294 0.208410 0.967038
vn 0.146294 0.208410 0.967038
vn 0.146294 0.208410 0.967038
vn -0.000000 0.000000 -1.000000
vn -0.000000 0.000000 -1.000000
vn -0.000000 0.000000 -1.000000
vn -0.000000 0.000000 -1.000000
vn -0.000000 0.000000 1.000000
vn -0.000000 0.000000 1.000000
vn -0.000000 0.000000 1.000000
vn -0.000000 0.000000 1.000000
vn 0.146288 0.208401 -0.967041
vn 0.146288 0.208401 -0.967041
vn 0.146288 0.208401 -0.967041
vn 0.146288 0.208401 -0.967041
vn 0.000000 0.000000 1.000000
vn 0.000000 0.000000 1.000000
vn 0.995180 0.098068 0.000000
vn 0.995180 0.098068 0.000000
vn 0.995180 0.098068 0.000000
vn 0.995180 0.098068 0.000000
vn 0.995180 0.098067 -0.000000
vn 0.995180 0.098068 -0.000000
vn -0.521755 0.853096 -0.000000
vn -0.521755 0.853096 -0.000000
vn -0.521755 0.853096 -0.000000
vn -0.521755 0.853096 -0.000000
vn 0.995180 0.098067 -0.000001
vn 0.995180 0.098067 -0.000001
vn 0.000000 0.000000 -1.000000
vn 0.000000 0.000000 -1.000000
vn -0.297528 0.954713 0.000000
vn -0.297528 0.954713 0.000000
vn -0.297528 0.954713 0.000000
vn -0.297528 0.954713 0.000000
vn 0.000000 0.000000 -1.000000
vn 0.000000 0.000000 -1.000000
vn -0.297528 0.954713 0.000000
vn -0.297528 0.954713 0.000000
vn 0.915867 -0.401482 -0.000000
vn 0.915867 -0.401482 -0.000000
vn 0.915867 -0.401482 -0.000000
vn 0.915867 -0.401482 -0.000000
vn -0.297528 0.954713 0.000000
vn -0.297528 0.954713 0.000000
vn 0.000000 0.000000 1.000000
vn 0.000000 0.000000 1.000000
vn -0.904711 0.426027 0.000000
vn -0.904711 0.426027 0.000000
vn -0.940973 -0.338481 0.000000
vn -0.940973 -0.338481 0.000000
vn -0.492454 0.852481 0.175403
vn -0.492454 0.852481 -0.175403
vn -0.210458 0.927501 -0.308949
vn -0.210457 0.927500 0.308951
vn 0.166555 0.936381 0.308951
vn 0.166555 0.936382 -0.308948
vn 0.593495 0.786491 -0.170870
vn 0.593495 0.786491 0.170870
vn 0.940973 0.338481 0.000000
vn 0.940973 0.338481 0.000000
vn -0.426027 -0.904711 0.000000
vn -0.426027 -0.904711 0.000000
vn 0.338481 -0.940973 0.000000
vn 0.338481 -0.940973 0.000000
vn 0.904711 -0.426027 0.000000
vn 0.904711 -0.426026 0.000000
vn -0.904711 0.426027 0.000000
vn -0.338481 0.940973 0.000000
vn 0.426026 0.904711 0.000000
vn 0.426026 0.904711 0.000000
vn -0.338481 0.940973 0.000000
vn -0.904711 0.426027 0.000000
vn -0.426027 -0.904711 0.000000
vn 0.338481 -0.940973 0.000000
vn 0.904711 -0.426027 0.000000
vn 0.904711 -0.426027 0.000000
vn 0.338481 -0.940973 0.000000
vn -0.426027 -0.904711 0.000000
vn 0.940973 0.338481 0.000000
vn 0.940973 0.338481 0.000000
vn -0.940973 -0.338481 0.000000
vn -0.940973 -0.338481 0.000000
vn 0.000000 0.000000 1.000000
vn 0.000000 0.000000 1.000000
vn 0.000000 0.000000 1.000000
vn 0.000000 0.000000 1.000000
vn 0.000000 0.000000 1.000000
vn 0.000000 0.000000 1.000000
vn 0.000000 0.000000 1.000000
vn -0.000000 0.000000 1.000000
vn 0.000000 0.000000 1.000000
vn -0.000000 0.000000 -1.000000
vn -0.000000 0.000000 -1.000000
vn -0.000000 0.000000 -1.000000
vn 0.000000 0.000000 -1.000000
vn 0.000000 0.000000 -1.000000
vn -0.000000 0.000000 -1.000000
vn 0.000000 0.000000 -1.000000
vn -0.000000 0.000000 -1.000000
vn 0.000000 0.000000 -1.000000
vn -0.437689 0.320191 0.840182
vn -0.437693 0.320182 -0.840184
vn 0.409525 0.360366 0.838108
vn 0.409529 0.360359 -0.838110
vn -0.475443 0.033860 -0.879095
vn -0.475446 0.033875 0.879092
vn -0.472832 -0.002797 0.881148
vn -0.472832 -0.002797 -0.881148
vn 0.468998 0.045994 0.882001
vn 0.481107 0.002846 0.876657
vn 0.468994 0.045979 -0.882003
vn 0.481107 0.002846 -0.876657
vn -0.537395 -0.223237 -0.813248
vn -0.537402 -0.223229 0.813246
vn -0.545158 0.159162 0.823086
vn -0.545157 0.159163 -0.823086
vn 0.552343 -0.205483 0.807895
vn 0.537057 0.184654 0.823087
vn 0.552341 -0.205490 -0.807895
vn 0.537060 0.184654 -0.823085
vn -0.331882 -0.738527 -0.586884
vn -0.331887 -0.738512 0.586899
vn 0.349570 -0.736884 0.578621
vn 0.349566 -0.736898 -0.578606
s off
g obj_H0002 Hero Assets
usemtl lambert3SG
f 2/1/1 4/169/2 7/162/3 6/4/4
f 3/170/5 1/6/6 5/7/7 8/8/8
s 1
f 41/9/9 42/10/10 7/3/11 4/2/12
s 2
f 43/11/13 44/12/14 19/13/15 20/156/16
s 3
f 39/15/17 40/16/18 10/17/19 11/168/20
s off
f 13/19/21 9/20/22 12/166/23 14/22/24
f 10/167/25 15/23/26 16/24/27 11/18/28
s 4
f 40/16/29 41/9/30 4/2/31 10/17/32
f 1/6/33 3/170/34 9/20/35 13/19/36
f 4/169/31 2/1/37 15/23/38 10/167/32
s 6
f 58/25/39 59/159/40 48/152/41 49/28/42
s 7
f 53/29/43 54/160/44 45/154/45 46/32/46
s 8
f 59/26/47 60/33/48 47/34/49 48/27/50
s 3
f 9/165/51 22/35/52 21/36/53 12/21/54
s 4
f 3/5/34 23/37/55 22/35/56 9/165/35
s 1
f 3/5/57 8/164/58 24/38/59 23/37/60
s 6
f 45/31/61 54/30/62 55/39/63 52/40/64
s 2
f 17/41/65 18/163/66 26/43/67 25/44/68
s 3
f 21/36/53 22/35/52 28/45/69 27/46/70
s 4
f 22/35/56 23/37/55 29/47/71 28/45/72
s 1
f 23/37/60 24/38/59 30/48/73 29/47/74
s 13
f 77/49/75 78/50/76 79/51/77 80/52/78
s 2
f 25/44/68 26/43/67 32/53/79 31/54/80
s 3
f 34/55/81 33/56/82 27/46/70 28/45/69
s 4
f 35/57/83 34/55/84 28/45/72 29/47/71
s 1
f 36/58/85 35/57/86 29/47/74 30/48/73
s off
f 57/59/87 50/60/88 51/61/89 56/62/90
s 2
f 38/63/91 37/64/92 31/54/80 32/53/79
s 3
f 33/56/82 34/55/81 40/16/18 39/15/17
s 4
f 34/55/84 35/57/83 41/9/30 40/16/29
s 1
f 35/57/86 36/58/85 42/10/10 41/9/9
s 13
f 81/65/93 82/66/94 83/67/95 84/68/96
s 2
f 37/64/92 38/63/91 44/12/14 43/11/13
s 7
f 69/153/97 70/70/98 46/32/46 45/154/45
s 8
f 71/71/99 72/151/100 48/27/50 47/34/49
s 6
f 72/72/101 73/73/102 49/28/42 48/152/41
s 13
f 84/68/96 83/67/95 85/74/103 86/75/104
f 84/68/96 86/75/104 87/76/105 79/51/77
f 80/52/78 79/51/77 87/76/105 88/77/106
s 6
f 45/31/61 52/40/64 76/78/107 69/69/108
s 7
f 61/79/109 62/157/110 54/160/44 53/29/43
s 6
f 55/39/63 54/30/62 62/80/111 63/81/112
s 13
f 89/82/113 90/83/114 78/50/76 77/49/75
f 90/83/114 91/84/115 81/65/93 78/50/76
f 91/84/115 92/85/116 82/66/94 81/65/93
s 6
f 66/86/117 67/155/118 59/159/40 58/25/39
s 8
f 67/87/119 68/88/120 60/33/48 59/26/47
s 7
f 18/42/121 17/158/122 62/157/110 61/79/109
s 6
f 63/81/112 62/80/111 17/41/123 25/44/124
f 25/44/124 31/54/125 64/89/126 63/81/112
f 31/54/125 37/64/127 65/90/128 64/89/126
f 37/64/127 43/11/129 66/86/117 65/90/128
f 43/11/129 20/156/130 67/155/118 66/86/117
s 8
f 20/14/131 19/161/132 68/88/120 67/87/119
s 7
f 5/7/133 70/70/98 69/153/97 8/8/134
s 8
f 7/162/135 72/151/100 71/71/99 6/4/136
s 6
f 7/3/137 42/10/138 73/73/102 72/72/101
f 74/91/139 73/73/102 42/10/138 36/58/140
f 74/91/139 36/58/140 30/48/141 75/92/142
f 76/78/107 75/92/142 30/48/141 24/38/143
f 69/69/108 76/78/107 24/38/143 8/164/144
s off
f 56/62/145 51/61/146 79/51/147 78/50/148
s 15
f 52/40/149 55/39/150 77/49/151 80/52/152
s 16
f 58/25/153 49/28/154 83/67/155 82/66/156
s off
f 50/60/157 57/59/158 81/65/159 84/68/160
s 16
f 49/28/154 73/73/161 85/74/162 83/67/155
s 17
f 73/73/163 74/91/164 86/75/165 85/74/166
f 86/75/165 74/91/164 75/92/167 87/76/168
s off
f 84/68/169 79/51/170 51/61/171 50/60/172
s 17
f 75/92/167 76/78/173 88/77/174 87/76/168
s 15
f 76/78/175 52/40/149 80/52/152 88/77/176
s 18
f 63/81/177 64/89/178 90/83/179 89/82/180
s 15
f 55/39/150 63/81/181 89/82/182 77/49/151
s 18
f 90/83/179 64/89/178 65/90/183 91/84/184
s off
f 78/50/185 81/65/186 57/59/187 56/62/188
s 18
f 65/90/183 66/86/189 92/85/190 91/84/184
s 16
f 66/86/191 58/25/153 82/66/156 92/85/192
s 19
f 109/93/193 110/94/194 123/95/195 124/96/196
f 110/94/194 109/93/193 111/191/197 112/189/198
s 20
f 136/99/199 135/100/200 137/101/201 138/102/202
s 19
f 113/192/203 114/194/204 121/105/205 122/106/206
f 115/107/207 116/108/208 124/96/196 123/95/195
f 116/108/208 115/107/207 117/109/209 118/110/210
f 118/110/210 117/109/209 120/111/211 119/112/212
f 119/112/212 120/111/211 122/106/206 121/105/205
f 95/181/213 105/185/214 111/191/197 109/93/193
f 105/190/214 96/178/215 114/194/204 111/195/197
f 112/193/198 113/192/203 98/173/216 106/184/217
f 110/94/194 112/189/198 106/187/217 97/176/218
f 99/175/219 107/183/220 117/109/209 115/107/207
f 107/183/220 100/172/221 120/111/211 117/109/209
f 118/110/210 119/112/212 94/179/222 108/186/223
f 116/108/208 118/110/210 108/186/223 93/182/224
f 94/179/222 119/112/212 121/105/205 102/177/225
f 120/111/211 100/172/221 101/171/226 122/106/206
f 122/106/206 101/171/226 98/173/216 113/192/203
f 102/177/225 121/105/205 114/194/204 96/178/215
f 99/175/219 115/107/207 123/95/195 104/174/227
f 116/108/208 93/182/224 103/180/228 124/96/196
f 124/96/196 103/180/228 95/181/213 109/93/193
f 104/174/227 123/95/195 110/94/194 97/176/218
s 23
f 93/113/229 108/114/230 125/115/231
f 108/114/230 94/122/232 125/115/231
f 105/123/233 95/124/234 125/115/231
f 96/125/235 105/123/233 125/115/231
f 103/128/236 93/113/229 125/115/231
f 95/124/234 103/128/236 125/115/231
f 94/122/232 102/129/237 125/115/231
f 102/129/237 96/125/235 125/115/231
s 25
f 97/116/238 106/117/239 126/118/240
f 106/117/239 98/119/241 126/118/240
f 107/120/242 99/121/243 126/118/240
f 100/126/244 107/120/242 126/118/240
f 104/127/245 97/116/238 126/118/240
f 99/121/243 104/127/245 126/118/240
f 98/119/241 101/130/246 126/118/240
f 101/130/246 100/126/244 126/118/240
s 19
f 112/98/198 111/97/197 148/131/247 149/196/248
f 111/97/197 114/104/204 147/133/249 148/131/247
f 114/104/204 113/103/203 150/134/250 147/133/249
f 113/103/203 112/188/198 149/132/248 150/134/250
f 128/197/251 127/136/252 131/137/253 132/138/254
f 127/136/252 129/139/255 133/140/256 131/137/253
f 129/139/255 130/141/257 134/142/258 133/140/256
f 130/141/257 128/135/251 132/200/254 134/142/258
s 20
f 140/198/259 139/144/260 141/145/261 142/199/262
f 139/144/260 143/147/263 144/148/264 141/145/261
f 143/147/263 145/149/265 146/150/266 144/148/264
f 145/149/265 140/143/259 142/146/262 146/150/266
f 132/138/267 131/137/268 139/144/260 140/198/259
f 135/100/200 136/99/199 142/199/262 141/145/261
f 131/137/268 133/140/269 143/147/263 139/144/260
f 137/101/201 135/100/200 141/145/261 144/148/264
f 133/140/269 134/142/270 145/149/265 143/147/263
f 138/102/202 137/101/201 144/148/264 146/150/266
f 134/142/270 132/200/267 140/143/259 145/149/265
f 136/99/199 138/102/202 146/150/266 142/146/262
s 19
f 148/131/247 147/133/249 129/139/255 127/136/252
f 149/196/248 148/131/247 127/136/252 128/197/251
f 150/134/250 149/132/248 128/135/251 130/141/257
f 147/133/249 150/134/250 130/141/257 129/139/255
