# This file uses meters as units for non-parametric coordinates.

mtllib obj_H0005.mtl
g default
v 1.999771 21.999800 25.000000
v -1.999802 21.999800 25.000000
v -0.000015 18.000200 25.000000
v 1.999771 21.999800 -25.000000
v -0.000015 18.000200 -25.000000
v -1.999802 21.999800 -25.000000
v 1.999771 40.000000 -25.000000
v -1.999802 40.000000 -25.000000
v 1.999771 40.000000 25.000000
v -1.999802 40.000000 25.000000
v -0.000015 18.000202 23.200012
v -1.999802 21.999800 23.200012
v 1.999802 21.999800 23.200012
v 1.999771 38.200005 23.200012
v -1.999802 38.200005 23.200012
v -0.000015 18.000202 -23.200012
v 1.999802 21.999800 -23.200012
v -1.999802 21.999800 -23.200012
v -1.999802 38.200005 -23.200012
v 1.999771 38.200005 -23.200012
v 20.760361 40.000000 25.000000
v 24.999985 40.000000 20.760376
v 24.999985 21.999800 20.760376
v 20.760361 21.999800 25.000000
v 20.760361 40.000000 -25.000000
v 24.999985 40.000000 -20.760376
v 20.760361 21.999800 -25.000000
v 24.999985 21.999800 -20.760376
v -20.760422 40.000000 25.000000
v -25.000015 40.000000 20.760376
v -20.760422 21.999800 25.000000
v -25.000015 21.999800 20.760376
v -20.760422 40.000000 -25.000000
v -25.000015 40.000000 -20.760376
v -25.000015 21.999800 -20.760376
v -20.760422 21.999800 -25.000000
v 20.760361 18.000200 25.000000
v 24.999985 18.000200 20.760376
v 24.999985 18.000200 -20.760376
v 20.760361 18.000200 -25.000000
v -25.000015 18.000200 20.760376
v -20.760422 18.000200 25.000000
v -20.760422 18.000200 -25.000000
v -25.000015 18.000200 -20.760376
v -23.200027 18.000200 18.960358
v -18.960403 18.000200 23.199982
v -23.200027 21.999800 18.960358
v -18.960403 21.999800 23.199982
v -23.200027 21.999800 -18.960358
v -18.960403 21.999800 -23.199982
v -23.200027 18.000200 -18.960358
v -18.960403 18.000200 -23.199982
v 18.960373 18.000200 23.200012
v 23.199997 18.000200 18.960388
v 18.960373 21.999800 23.200012
v 23.199997 21.999800 18.960388
v 23.199997 18.000200 -18.960388
v 18.960373 18.000200 -23.200012
v 23.199997 21.999800 -18.960388
v 18.960373 21.999800 -23.200012
v -0.000015 0.000000 0.000000
v -20.210434 0.000000 0.000000
v -25.000015 18.000200 0.000000
v -23.200027 18.000200 0.000000
v -23.200027 21.999800 0.000000
v -25.000015 21.999800 0.000000
v -25.000015 40.000000 0.000000
v -20.760422 40.000000 0.000000
v -1.999802 40.000000 0.000000
v -1.999802 38.200005 0.000000
v 1.999771 38.200005 0.000000
v 1.999771 40.000000 0.000000
v 20.760361 40.000000 0.000000
v 24.999985 40.000000 0.000000
v 24.999985 21.999800 0.000000
v 23.199997 21.999800 0.000000
v 23.199997 18.000200 0.000000
v 24.999985 18.000200 0.000000
v 20.760361 0.000000 0.000000
v -0.000015 3.672272 25.000000
v -20.760422 3.672272 25.000000
v -25.000015 3.672272 20.760376
v -25.000015 3.672272 0.000000
v -25.000015 3.672272 -20.760376
v -20.760422 3.672272 -25.000000
v -0.000015 3.672272 -25.000000
v 20.760361 3.672272 -25.000000
v 24.999985 3.672272 -20.760376
v 24.999985 3.672272 0.000000
v 24.999985 3.672272 20.760376
v 20.760361 3.672272 25.000000
v 25.560532 0.000000 20.992554
v 20.992538 0.000000 25.560547
v 25.560532 3.672272 20.992554
v 20.992538 3.672272 25.560547
v 20.992538 0.000000 -25.560547
v 25.560532 0.000000 -20.992554
v 20.992538 3.672272 -25.560547
v 25.560532 3.672272 -20.992554
v -20.992599 0.000000 25.560547
v -25.560562 0.000000 20.992554
v -20.992599 3.672272 25.560547
v -25.560562 3.672272 20.992554
v -20.992599 0.000000 -25.560547
v -25.560562 0.000000 -20.992554
v -25.560562 3.672272 -20.992554
v -20.992599 3.672272 -25.560547
v 25.656723 3.672272 0.000000
v 25.656723 0.000000 0.000000
v -25.656723 3.672272 0.000000
v -25.656723 0.000000 0.000000
v -0.000015 3.672272 -25.656738
v -0.000015 0.000000 -25.656738
v -0.000015 3.672272 25.656738
v -0.000015 0.000000 25.656738
v -19.660446 0.000000 -25.656738
vt 0.711446 -0.311725
vt 0.711446 -0.323966
vt 0.775347 -0.323385
vt 0.962905 -0.983529
vt 0.748707 -0.761783
vt 0.979114 -0.979219
vt 0.525404 -0.378008
vt 0.525404 -0.368009
vt 0.733618 -0.887140
vt 0.641404 -0.368008
vt 0.641404 -0.378007
vt 0.583404 -0.368009
vt 0.583404 -0.378007
vt 0.583404 -0.429409
vt 0.635305 -0.440007
vt 0.748707 -0.747613
vt 0.738083 -0.772724
vt 0.737449 -0.826498
vt 0.968011 -0.939066
vt 0.520904 -0.363509
vt 0.963328 -0.756769
vt 0.743747 -0.757631
vt 0.645904 -0.382507
vt 0.732921 -0.979219
vt 0.583404 -0.363508
vt 0.583404 -0.382508
vt 0.583403 -0.306008
vt 0.583403 -0.316607
vt 0.645903 -0.316606
vt 0.732921 -0.939849
vt 0.763927 -0.311965
vt 0.711446 -0.375867
vt 0.711446 -0.426393
vt 0.775588 -0.425018
vt 0.967935 -0.886351
vt 0.520904 -0.429409
vt 0.738238 -0.926694
vt 0.738238 -0.881030
vt 0.962905 -0.933771
vt 0.962905 -0.979219
vt 0.737995 -0.979219
vt 0.737995 -0.933771
vt 0.963218 -0.881030
vt 0.963218 -0.926694
vt 0.799041 -0.881030
vt 0.784859 -0.881030
vt 0.806097 -0.761558
vt 0.784859 -0.926694
vt 0.799041 -0.926694
vt 0.782725 -0.931026
vt 0.802502 -0.931026
vt 0.916237 -0.881030
vt 0.915888 -0.761127
vt 0.902040 -0.881030
vt 0.902040 -0.926694
vt 0.775588 -0.375867
vt 0.916237 -0.926694
vt 0.898670 -0.931026
vt 0.918543 -0.931026
vt 0.915888 -0.746956
vt 0.916367 -0.933771
vt 0.902149 -0.933771
vt 0.789951 -0.824363
vt 0.804250 -0.824363
vt 0.804250 -0.815154
vt 0.789951 -0.815154
vt 0.789951 -0.777570
vt 0.804250 -0.777570
vt 0.807462 -0.772724
vt 0.647304 -0.375867
vt 0.902149 -0.979219
vt 0.907766 -0.824363
vt 0.907766 -0.815154
vt 0.907766 -0.777570
vt 0.647545 -0.428348
vt 0.916367 -0.979219
vt 0.908290 -0.877860
vt 0.922719 -0.877860
vt 0.922719 -0.868707
vt 0.908290 -0.868707
vt 0.908290 -0.831320
vt 0.922719 -0.831320
vt 0.925566 -0.826498
vt 0.898826 -0.983529
vt 0.789377 -0.877860
vt 0.803816 -0.877860
vt 0.803816 -0.868707
vt 0.789377 -0.868707
vt 0.789377 -0.831320
vt 0.803816 -0.831320
vt 0.807076 -0.826498
vt 0.806097 -0.747387
vt 0.856061 -0.826498
vt 0.900938 -0.757014
vt 0.915927 -0.756955
vt 0.856007 -0.772724
vt 0.791147 -0.757445
vt 0.806137 -0.757386
vt 0.791147 -0.771615
vt 0.806136 -0.771557
vt 0.974586 -0.868707
vt 0.974586 -0.877860
vt 0.856007 -0.815154
vt 0.856007 -0.824363
vt 0.737449 -0.877860
vt 0.737449 -0.868707
vt 0.856061 -0.877860
vt 0.856061 -0.868707
vt 0.520903 -0.316608
vt 0.785674 -0.877860
vt 0.856061 -0.831320
vt 0.520904 -0.382508
vt 0.645904 -0.429408
vt 0.974586 -0.831320
vt 0.583405 -0.440008
vt 0.856007 -0.777570
vt 0.737449 -0.831320
vt 0.635304 -0.306007
vt 0.974586 -0.867169
vt 0.645904 -0.363508
vt 0.531502 -0.306009
vt 0.531504 -0.440008
vt 0.922719 -0.867169
vt 0.908290 -0.867169
vt 0.856061 -0.867169
vt 0.803816 -0.867169
vt 0.789377 -0.867169
vt 0.737449 -0.867169
vt 0.647545 -0.323385
vt 0.658965 -0.311966
vt 0.711446 -0.440008
vt 0.907766 -0.813607
vt 0.856007 -0.813607
vt 0.658965 -0.439768
vt 0.804250 -0.813607
vt 0.763927 -0.439768
vt 0.789951 -0.813607
vt 0.775347 -0.428348
vt 0.900938 -0.771184
vt 0.973952 -0.772724
vt 0.924345 -0.772724
vt 0.922070 -0.824363
vt 0.973952 -0.824363
vt 0.973952 -0.777570
vt 0.922070 -0.777570
vt 0.973952 -0.813607
vt 0.922070 -0.815154
vt 0.973952 -0.815154
vt 0.922070 -0.813607
vt 0.853537 -0.757200
vt 0.786524 -0.826498
vt 0.919164 -0.983529
vt 0.905049 -0.826498
vt 0.798855 -0.933771
vt 0.853537 -0.771370
vt 0.784627 -0.933771
vt 0.784627 -0.979219
vt 0.787682 -0.772724
vt 0.904542 -0.772724
vt 0.798855 -0.979219
vt 0.781896 -0.983529
vt 0.968288 -0.760921
vt 0.802213 -0.983529
vt 0.963328 -0.770939
vt 0.915927 -0.771125
vt 0.850529 -0.881030
vt 0.850529 -0.926694
vt 0.958289 -0.746790
vt 0.850530 -0.979219
vt 0.791108 -0.761617
vt 0.850530 -0.933771
vt 0.853498 -0.747201
vt 0.850530 -0.983529
vt 0.853498 -0.761372
vt 0.850529 -0.931026
vt 0.791108 -0.747446
vt 0.900898 -0.747015
vt 0.900899 -0.761185
vt 0.958289 -0.760960
vt 0.963218 -0.931026
vt 0.978417 -0.926694
vt 0.978417 -0.886351
vt 0.968288 -0.746751
vt 0.743747 -0.771802
vt 0.738083 -0.815154
vt 0.738083 -0.824363
vt 0.738083 -0.813607
vt 0.738083 -0.777570
vt 0.974586 -0.826498
vt 0.733618 -0.926694
vt 0.979114 -0.939066
vt 0.737995 -0.983529
vt 0.967935 -0.926694
vt 0.738238 -0.931026
vt 0.968011 -0.979219
vn 0.000000 -1.000000 0.000000
vn 0.000000 -1.000000 0.000000
vn 0.000000 -1.000000 0.000000
vn 0.000000 -1.000000 0.000000
vn -0.000001 -0.000000 1.000000
vn -0.000000 0.000000 1.000000
vn 0.000000 0.000000 1.000000
vn 0.000000 0.000000 1.000000
vn 0.000000 0.000000 -1.000000
vn -0.000001 -0.000000 -1.000000
vn 0.000000 0.000000 -1.000000
vn 0.000000 0.000000 -1.000000
vn 0.000000 1.000000 0.000000
vn 0.000000 1.000000 0.000000
vn 0.000000 1.000000 0.000000
vn 0.000000 1.000000 0.000000
vn 0.000000 1.000000 0.000000
vn 0.000000 1.000000 0.000000
vn 0.000000 1.000000 0.000000
vn 0.000000 1.000000 0.000000
vn -0.000001 -0.000000 1.000000
vn -0.000001 -0.000000 -1.000000
vn -1.000000 -0.000001 -0.000008
vn -1.000000 -0.000000 -0.000003
vn -1.000000 -0.000000 -0.000003
vn -1.000000 -0.000001 -0.000008
vn 1.000000 0.000000 0.000000
vn 1.000000 0.000000 0.000000
vn 1.000000 0.000000 0.000000
vn 1.000000 0.000000 0.000000
vn 1.000000 0.000000 0.000000
vn 1.000000 0.000000 0.000000
vn 1.000000 0.000000 0.000000
vn 1.000000 0.000000 0.000000
vn -1.000000 -0.000000 0.000003
vn -1.000000 -0.000001 0.000008
vn -1.000000 -0.000001 0.000008
vn -1.000000 -0.000000 0.000003
vn 1.000000 0.000000 0.000000
vn 1.000000 0.000000 0.000000
vn -1.000000 0.000000 0.000000
vn -1.000000 0.000000 0.000000
vn 0.000000 1.000000 0.000000
vn 0.000000 1.000000 0.000000
vn 0.000000 1.000000 0.000000
vn 0.000000 1.000000 0.000000
vn 0.000000 -1.000000 0.000000
vn 0.000000 -1.000000 0.000000
vn 0.000000 -1.000000 0.000000
vn 0.000000 -1.000000 0.000000
vn 0.707107 0.000000 0.707107
vn 0.707107 0.000000 0.707107
vn 0.707107 0.000000 0.707107
vn 0.707107 0.000000 0.707107
vn 0.000000 -1.000000 0.000000
vn 0.000000 -1.000000 0.000000
vn 0.000000 -1.000000 0.000000
vn 0.000000 -1.000000 0.000000
vn 0.707107 0.000000 -0.707107
vn 0.707107 0.000000 -0.707107
vn 0.707107 0.000000 -0.707107
vn 0.707107 0.000000 -0.707107
vn 0.000000 -1.000000 0.000000
vn 0.000000 -1.000000 0.000000
vn 0.000000 -1.000000 0.000000
vn 0.000000 -1.000000 0.000000
vn -0.707109 0.000000 0.707104
vn -0.707109 0.000000 0.707104
vn -0.707109 0.000000 0.707104
vn -0.707109 0.000000 0.707104
vn 0.000000 -1.000000 -0.000000
vn 0.000000 -1.000000 -0.000000
vn 0.000000 -1.000000 -0.000000
vn 0.000000 -1.000000 -0.000000
vn -0.707109 0.000000 -0.707104
vn -0.707109 0.000000 -0.707104
vn -0.707109 0.000000 -0.707104
vn -0.707109 0.000000 -0.707104
vn 0.000000 -1.000000 0.000000
vn 0.000000 -1.000000 0.000000
vn 0.000000 -1.000000 0.000000
vn 0.000000 -1.000000 0.000000
vn 0.707107 0.000000 0.707107
vn 0.707107 0.000000 0.707107
vn 0.707107 0.000000 0.707107
vn 0.707107 0.000000 0.707107
vn 0.000000 1.000000 0.000001
vn 0.000000 1.000000 0.000000
vn 0.000000 1.000000 0.000000
vn 0.000000 1.000000 0.000001
vn 0.707107 0.000000 -0.707107
vn 0.707107 0.000000 -0.707107
vn 0.707107 0.000000 -0.707107
vn 0.707107 0.000000 -0.707107
vn 0.000000 1.000000 0.000000
vn 0.000000 1.000000 -0.000001
vn 0.000000 1.000000 -0.000001
vn 0.000000 1.000000 0.000000
vn -0.707109 0.000000 0.707104
vn -0.707109 0.000000 0.707104
vn -0.707109 0.000000 0.707104
vn -0.707109 0.000000 0.707104
vn 0.000000 1.000000 0.000000
vn -0.000000 1.000000 0.000001
vn -0.000000 1.000000 0.000001
vn 0.000000 1.000000 0.000000
vn -0.707109 0.000000 -0.707104
vn -0.707109 0.000000 -0.707104
vn -0.707109 0.000000 -0.707104
vn -0.707109 0.000000 -0.707104
vn -0.000000 1.000000 -0.000001
vn 0.000000 1.000000 0.000000
vn 0.000000 1.000000 0.000000
vn -0.000000 1.000000 -0.000001
vn -0.707107 0.000000 0.707107
vn -0.707107 0.000000 0.707107
vn -0.707107 0.000000 0.707107
vn -0.707107 0.000000 0.707107
vn -0.707107 0.000000 -0.707107
vn -0.707107 0.000000 -0.707107
vn -0.707107 0.000000 -0.707107
vn -0.707107 0.000000 -0.707107
vn 0.707107 0.000000 0.707107
vn 0.707107 0.000000 0.707107
vn 0.707107 0.000000 0.707107
vn 0.707107 0.000000 0.707107
vn 0.707107 0.000000 -0.707107
vn 0.707107 0.000000 -0.707107
vn 0.707107 0.000000 -0.707107
vn 0.707107 0.000000 -0.707107
vn -1.000000 0.000000 0.000000
vn -1.000000 0.000000 0.000000
vn -1.000000 0.000000 0.000000
vn -1.000000 0.000000 0.000000
vn -0.000002 -0.000000 1.000000
vn -0.000002 -0.000000 1.000000
vn -0.000000 0.000000 1.000000
vn -0.000000 0.000000 1.000000
vn 1.000000 0.000000 0.000000
vn 1.000000 0.000000 0.000000
vn 1.000000 0.000000 0.000000
vn 1.000000 0.000000 0.000000
vn 0.000000 0.000000 -1.000000
vn 0.000000 0.000000 -1.000000
vn -0.000002 -0.000000 -1.000000
vn -0.000002 -0.000000 -1.000000
vn 0.000000 0.000000 1.000000
vn 0.000000 0.000000 1.000000
vn 0.000000 0.000000 1.000000
vn 0.000000 0.000000 1.000000
vn 0.000000 0.000000 -1.000000
vn 0.000000 0.000000 -1.000000
vn 0.000000 0.000000 -1.000000
vn 0.000000 0.000000 -1.000000
vn 1.000000 0.000000 0.000000
vn 1.000000 0.000000 0.000000
vn 1.000000 0.000000 0.000000
vn 1.000000 0.000000 0.000000
vn -1.000000 0.000000 0.000000
vn -1.000000 0.000000 0.000000
vn -1.000000 0.000000 0.000000
vn -1.000000 0.000000 0.000000
vn 0.004582 0.000000 0.999990
vn 0.004582 0.000000 0.999990
vn 0.000000 0.000000 1.000000
vn 0.000000 0.000000 1.000000
vn 1.000000 0.000000 0.000000
vn 1.000000 0.000000 0.000000
vn 0.999990 0.000000 -0.004582
vn 0.999990 0.000000 -0.004582
vn 0.004582 0.000000 -0.999990
vn 0.004582 0.000000 -0.999990
vn 0.000000 0.006133 -0.999981
vn 0.000000 0.006133 -0.999981
vn -1.000000 0.000000 0.000000
vn -1.000000 0.000000 0.000000
vn -0.999990 0.000000 -0.004581
vn -0.999990 0.000000 -0.004581
vn -0.004582 0.012265 -0.999914
vn -0.004582 0.012265 -0.999914
vn -0.004582 0.012265 -0.999914
vn 0.000000 0.000000 -1.000000
vn 0.000000 0.000000 -1.000000
vn 0.000000 0.000000 -1.000000
vn 0.000000 0.000000 -1.000000
vn 0.000000 0.000000 1.000000
vn 0.000000 0.000000 1.000000
vn 0.000000 0.000000 1.000000
vn 0.000000 0.000000 1.000000
vn -0.004582 0.000000 0.999990
vn -0.004582 0.000000 0.999990
vn 0.000000 -1.000000 0.000000
vn 0.000000 -1.000000 0.000000
vn 0.000000 1.000000 0.000000
vn 0.000000 1.000000 0.000000
vn -0.000000 1.000000 0.000002
vn -0.000000 1.000000 0.000002
vn 0.000000 -1.000000 0.000000
vn 0.000000 -1.000000 0.000000
vn 0.000000 -1.000000 0.000000
vn 0.000000 -1.000000 0.000000
vn 0.000000 1.000000 0.000000
vn 0.000000 1.000000 0.000000
vn 0.000000 -1.000000 0.000000
vn 0.000000 -1.000000 0.000000
vn -0.000000 1.000000 -0.000002
vn -0.000000 1.000000 -0.000002
vn 0.000000 -1.000000 0.000000
vn 0.000000 -1.000000 0.000000
vn 0.000000 -1.000000 0.000000
vn 0.000000 -1.000000 0.000000
vn 0.000000 1.000000 0.000000
vn 0.000000 1.000000 0.000000
vn 0.000000 1.000000 0.000000
vn 0.000000 1.000000 0.000000
vn 0.000000 -1.000000 0.000000
vn 0.000000 -1.000000 0.000000
vn -0.999990 0.000000 0.004581
vn -0.999990 0.000000 0.004581
vn -1.000000 0.000000 0.000000
vn -1.000000 0.000000 0.000000
vn -1.000000 0.000000 0.000000
vn -1.000000 0.000000 0.000000
vn 0.000000 1.000000 0.000000
vn 0.000000 1.000000 0.000000
vn 0.000000 1.000000 0.000000
vn 0.000000 1.000000 0.000000
vn 0.000000 1.000000 0.000000
vn 0.000000 1.000000 0.000000
vn 0.000000 1.000000 0.000000
vn 0.000000 1.000000 0.000000
vn 1.000000 0.000000 0.000000
vn 1.000000 0.000000 0.000000
vn 1.000000 0.000000 0.000000
vn 1.000000 0.000000 0.000000
vn 0.999990 0.000000 0.004582
vn 0.999990 0.000000 0.004582
vn 0.000000 -1.000000 0.000000
vn 0.000000 -1.000000 0.000000
vn 0.000000 0.000000 1.000000
vn 0.000000 0.000000 1.000000
vn 0.000000 0.000000 1.000000
vn 0.000000 0.000000 1.000000
vn -0.707109 0.000000 0.707104
vn -0.707109 0.000000 0.707104
vn -0.707109 0.000000 0.707104
vn -0.707109 0.000000 0.707104
vn -1.000000 0.000000 0.000000
vn -1.000000 0.000000 0.000000
vn -1.000000 0.000000 0.000000
vn -1.000000 0.000000 0.000000
vn -1.000000 0.000000 0.000000
vn -1.000000 0.000000 0.000000
vn -0.707109 0.000000 -0.707104
vn -0.707109 0.000000 -0.707104
vn -0.707109 0.000000 -0.707104
vn -0.707109 0.000000 -0.707104
vn 0.000000 0.000000 -1.000000
vn 0.000000 0.000000 -1.000000
vn 0.000000 0.000000 -1.000000
vn 0.000000 0.000000 -1.000000
vn 0.000000 0.000000 -1.000000
vn 0.000000 0.000000 -1.000000
vn 0.707107 0.000000 -0.707107
vn 0.707107 0.000000 -0.707107
vn 0.707107 0.000000 -0.707107
vn 0.707107 0.000000 -0.707107
vn 1.000000 0.000000 0.000000
vn 1.000000 0.000000 0.000000
vn 1.000000 0.000000 0.000000
vn 1.000000 0.000000 0.000000
vn 1.000000 0.000000 0.000000
vn 1.000000 0.000000 0.000000
vn 0.707107 0.000000 0.707107
vn 0.707107 0.000000 0.707107
vn 0.707107 0.000000 0.707107
vn 0.707107 0.000000 0.707107
vn 0.000000 0.000000 1.000000
vn 0.000000 0.000000 1.000000
vn 0.000000 1.000000 0.000000
vn 0.000000 1.000000 0.000000
vn 0.000000 1.000000 0.000000
vn 0.000000 1.000000 0.000000
vn 0.000000 1.000000 0.000000
vn 0.000000 1.000000 -0.000000
vn 0.000000 1.000000 -0.000000
vn 0.000000 1.000000 0.000000
vn 0.000000 1.000000 0.000000
vn 0.000000 1.000000 0.000000
vn 0.000000 1.000000 0.000000
vn 0.000000 1.000000 0.000000
vn 0.000000 1.000000 -0.000000
vn 0.000000 1.000000 -0.000000
vn 0.000000 1.000000 -0.000000
vn 0.000000 1.000000 -0.000000
vn 0.000000 1.000000 0.000000
vn 0.000000 1.000000 0.000000
vn 0.000000 1.000000 0.000000
vn 0.000000 1.000000 0.000000
vn 0.000000 -1.000000 0.000000
vn 0.000000 -1.000000 0.000000
vn 0.000000 1.000000 0.000000
vn 0.000000 1.000000 0.000000
vn 0.000000 -1.000000 0.000000
vn 0.000000 -1.000000 0.000000
vn 0.000000 1.000000 0.000000
vn 0.000000 1.000000 0.000000
s 1
g obj_H0005 Hero Assets
usemtl lambert3SG
f 109/1/1 79/2/2 96/3/3 97/31/4
s 2
f 12/195/5 13/6/6 14/191/7 15/19/8
s 3
f 17/193/9 18/181/10 19/182/11 20/35/12
s 4
f 70/12/13 71/13/14 20/11/15 19/10/16
s 5
f 73/14/17 74/115/18 26/15/19 25/113/20
s 2
f 13/183/6 12/168/5 11/21/21
s 3
f 17/179/9 16/164/22 18/162/10
s 6
f 1/37/23 9/38/24 14/9/25 13/190/26
s 7
f 10/39/27 2/40/28 12/195/29 15/19/30
f 6/41/31 8/42/32 19/30/33 18/24/34
s 6
f 7/43/35 4/44/36 17/193/37 20/35/38
s 7
f 69/25/39 70/12/40 19/10/33 8/120/32
s 6
f 71/13/41 72/26/42 7/23/35 20/11/38
s 10
f 67/27/43 68/28/44 33/29/45 34/118/46
s 1
f 61/32/47 62/33/48 116/34/49 113/56/50
s off
f 22/45/51 21/46/52 24/48/53 23/49/54
s 12
f 23/49/55 24/48/56 55/50/57 56/51/58
s off
f 25/52/59 26/54/60 28/55/61 27/57/62
s 12
f 27/57/63 28/55/64 59/58/65 60/59/66
s off
f 29/61/67 30/62/68 32/71/69 31/76/70
s 14
f 31/76/71 32/71/72 47/84/73 48/152/74
s off
f 34/154/75 33/156/76 36/157/77 35/160/78
s 14
f 35/160/79 36/157/80 50/161/81 49/163/82
s off
f 93/63/83 92/64/84 94/65/85 95/66/86
s 16
f 37/67/87 38/68/88 54/69/89 53/158/90
s off
f 97/72/91 96/142/92 98/147/93 99/73/94
s 16
f 39/74/95 40/145/96 58/141/97 57/159/98
s off
f 101/77/99 100/78/100 102/79/101 103/80/102
s 16
f 41/81/103 42/82/104 46/83/105 45/153/106
s off
f 104/85/107 105/86/108 106/87/109 107/88/110
s 16
f 43/89/111 44/90/112 51/91/113 52/151/114
s off
f 45/94/115 46/95/116 48/60/117 47/177/118
f 49/92/119 50/176/120 52/97/121 51/98/122
f 53/99/123 54/100/124 56/47/125 55/170/126
f 57/139/127 58/165/128 60/53/129 59/178/130
s 20
f 64/150/131 65/172/132 49/92/133 51/98/134
s 2
f 11/21/21 12/168/5 48/60/135 46/95/136
f 53/99/137 55/170/138 13/5/6 11/184/21
s 21
f 76/174/139 77/155/140 57/139/141 59/178/142
s 3
f 60/53/143 58/165/144 16/164/22 17/179/9
f 18/16/10 16/22/22 52/97/145 50/176/146
s off
f 24/48/147 21/46/148 9/38/149 1/37/150
f 25/52/151 27/57/152 4/44/153 7/43/154
s 22
f 74/166/155 75/167/156 28/55/157 26/54/158
s 23
f 66/169/159 67/171/160 34/154/161 35/160/162
s 24
f 93/63/163 95/66/164 114/185/165 115/186/166
s 25
f 108/103/167 109/104/168 97/72/169 99/73/170
s 26
f 98/147/171 96/142/172 113/143/173 112/148/174
s 27
f 111/107/175 110/108/176 106/87/177 105/86/178
s 26
f 112/106/174 113/105/173 116/110/179 104/85/180 107/88/181
s off
f 8/42/182 6/41/183 36/157/184 33/156/185
f 2/40/186 10/39/187 29/61/188 31/76/189
s 24
f 115/102/166 114/101/165 102/79/190 100/78/191
s 14
f 65/173/192 66/169/193 35/160/79 49/163/82
s 16
f 63/111/194 64/93/195 51/91/113 44/90/112
f 3/114/196 11/189/197 46/83/105 42/82/104
s 14
f 12/4/198 2/40/199 31/76/71 48/152/74
s 16
f 37/67/87 53/158/90 11/17/197 3/188/196
s 12
f 55/50/57 24/48/56 1/37/200 13/194/201
s 16
f 77/96/202 78/116/203 39/74/95 57/159/98
s 12
f 75/167/204 76/175/205 59/58/65 28/55/64
s 16
f 58/141/97 40/145/96 5/144/206 16/140/207
s 12
f 27/57/63 60/59/66 17/180/208 4/44/209
s 16
f 16/18/207 5/117/206 43/89/111 52/151/114
s 14
f 6/41/210 18/192/211 50/161/81 36/157/80
s 5
f 7/23/212 72/26/213 73/14/17 25/113/20
s 10
f 33/29/45 68/28/44 69/25/214 8/120/215
s 1
f 79/2/2 61/32/47 113/56/50 96/3/3
f 62/33/48 61/32/47 115/70/216 100/75/217
s 27
f 110/108/176 111/107/175 101/77/218 103/80/219
s 16
f 64/93/195 63/111/194 41/81/103 45/153/106
s 20
f 65/172/132 64/150/131 45/94/220 47/177/221
s 14
f 66/169/193 65/173/192 47/84/73 32/71/72
s 23
f 67/171/160 66/169/159 32/71/222 30/62/223
s 10
f 68/28/44 67/27/43 30/121/224 29/109/225
f 69/25/214 68/28/44 29/109/225 10/20/226
s 7
f 70/12/40 69/25/39 10/20/27 15/8/30
s 4
f 71/13/14 70/12/13 15/8/227 14/7/228
s 6
f 72/26/42 71/13/41 14/7/25 9/112/24
s 5
f 73/14/17 72/26/213 9/112/229 21/36/230
f 74/115/18 73/14/17 21/36/230 22/122/231
s 22
f 75/167/156 74/166/155 22/45/232 23/49/233
s 12
f 76/175/205 75/167/204 23/49/55 56/51/58
s 21
f 77/155/140 76/174/139 56/47/234 54/100/235
s 16
f 78/116/203 77/96/202 54/69/89 38/68/88
s 25
f 109/104/168 108/103/167 94/65/236 92/64/237
s 1
f 61/32/47 79/2/2 93/129/238 115/70/216
f 109/1/1 92/130/239 93/129/238 79/2/2
s 28
f 80/119/240 3/114/241 42/82/242 81/123/243
s off
f 82/124/244 81/123/245 42/82/246 41/81/247
s 29
f 41/81/248 63/111/249 83/125/250 82/124/251
f 83/125/250 63/111/249 44/90/252 84/126/253
s off
f 85/127/254 84/126/255 44/90/256 43/89/257
s 30
f 43/89/258 5/117/259 86/128/260 85/127/261
f 5/144/259 40/145/262 87/149/263 86/146/260
s off
f 88/132/264 87/149/265 40/145/266 39/74/267
s 31
f 39/74/268 78/116/269 89/133/270 88/132/271
f 89/133/270 78/116/269 38/68/272 90/135/273
s off
f 91/137/274 90/135/275 38/68/276 37/67/277
s 28
f 91/137/278 37/67/279 3/188/241 80/187/240
s 32
f 90/135/280 91/137/281 95/66/282 94/65/283
f 87/149/284 88/132/285 99/73/286 98/147/287
f 81/123/288 82/124/289 103/80/290 102/79/291
f 84/126/292 85/127/293 107/88/294 106/87/295
f 95/66/282 91/137/281 80/187/296 114/185/297
f 110/108/298 83/125/299 84/126/292 106/87/295
f 114/101/297 80/119/296 81/123/288 102/79/291
s 1
f 111/131/300 62/33/48 100/75/217 101/134/301
s 32
f 108/103/302 89/133/303 90/135/280 94/65/283
f 110/108/298 103/80/290 82/124/289 83/125/299
s 1
f 111/131/300 105/136/304 104/138/305 116/34/49 62/33/48
s 32
f 108/103/302 99/73/286 88/132/285 89/133/303
f 98/147/287 112/148/306 86/146/307 87/149/284
f 112/106/306 107/88/294 85/127/293 86/128/307
