# This file uses meters as units for non-parametric coordinates.

mtllib obj_H0001.mtl
g default
v -9.651800 -19.226851 15.040165
v 10.232540 -19.226851 11.280088
v -9.651800 19.226852 15.040165
v 10.232540 19.226852 11.280088
v -9.651800 19.226852 -15.040127
v 10.232540 19.226852 -11.280088
v -9.651800 -19.226851 -15.040127
v 10.232540 -19.226851 -11.280088
v 13.643341 -19.226851 0.000000
v 13.643341 19.226852 0.000000
v -9.651800 -19.226851 0.000000
v -9.651800 19.226852 0.000000
v -0.000033 -19.226851 15.040165
v -0.000033 19.226852 15.040165
v -9.651800 -0.000001 15.040165
v -0.000033 19.226852 -15.040127
v -0.000033 -19.226851 -15.040127
v -9.651800 -0.000001 -15.040127
v -0.000033 -0.000001 15.040165
v -0.000033 -0.000001 -15.040127
v -9.651800 -0.000001 0.000000
v -6.331800 19.226852 11.380341
v -0.538791 19.226852 11.380341
v -6.331800 19.226852 0.000000
v 7.607845 19.226852 8.386692
v 10.143789 19.226852 0.000000
v 7.607845 19.226852 -8.386656
v -0.538791 19.226852 -11.380222
v -6.331800 19.226852 -11.380222
v -0.538791 -19.226851 11.380341
v 7.607845 -19.226851 8.386692
v 10.143789 -19.226851 0.000000
v -6.331800 -19.226851 11.380341
v -6.331800 -19.226851 0.000000
v -6.331800 -19.226851 -11.380222
v -0.538791 -19.226851 -11.380222
v 7.607845 -19.226851 -8.386656
v -6.331800 21.284584 11.380341
v -0.538791 21.284584 11.380341
v -0.000033 21.284584 0.000000
v -6.331800 21.284584 0.000000
v 7.607845 21.284584 8.386692
v 10.143789 21.284584 0.000000
v 7.607845 21.284584 -8.386656
v -0.538791 21.284584 -11.380222
v -6.331800 21.284584 -11.380222
v -0.538791 -21.284580 11.380341
v 7.607845 -21.284580 8.386692
v -0.000033 -21.284580 0.000000
v 10.143789 -21.284580 0.000000
v -6.331800 -21.284580 11.380341
v -6.331800 -21.284580 0.000000
v -6.331800 -21.284580 -11.380222
v -0.538791 -21.284580 -11.380222
v 7.607845 -21.284580 -8.386656
v 10.232540 15.897648 11.280088
v -0.000033 15.897648 15.040165
v -9.651800 15.897648 15.040165
v -9.651800 15.897648 0.000000
v -9.651800 15.897648 -15.040127
v -0.000033 15.897648 -15.040127
v 10.232540 15.897648 -11.280088
v 13.643341 15.897648 0.000000
v 10.232540 -15.416790 11.280088
v -0.000033 -15.416790 15.040165
v -9.651800 -15.416790 15.040165
v -9.651800 -15.416790 0.000000
v -9.651800 -15.416790 -15.040127
v -0.000033 -15.416790 -15.040127
v 10.232540 -15.416790 -11.280088
v 13.643341 -15.416790 0.000000
v 8.803638 15.897648 9.704861
v -0.714481 15.897648 12.677303
v -0.714481 -0.000001 12.677303
v 8.634968 -0.000001 9.519016
v -0.714481 15.897648 -12.677277
v 8.803638 15.897648 -9.704832
v 8.634968 -0.000001 -9.518980
v -0.714481 -0.000001 -12.677277
v 11.499973 15.897648 0.000000
v 11.384054 -0.000001 0.000000
v -0.714481 -15.416790 12.677303
v 8.803638 -15.416790 9.704952
v 8.803638 -15.416790 -9.704832
v -0.714481 -15.416790 -12.677277
v 11.499973 -15.416790 0.000028
vt 0.324863 -0.775940
vt 0.300896 -0.775940
vt 0.788990 -0.655722
vt 0.787945 -0.629890
vt 0.351722 -0.775940
vt 0.797953 -0.601917
vt 0.351722 -0.695625
vt 0.329679 -0.695625
vt 0.329679 -0.734624
vt 0.351722 -0.734624
vt 0.324863 -0.692073
vt 0.300896 -0.692073
vt 0.300896 -0.734624
vt 0.324863 -0.734624
vt 0.459338 -0.692073
vt 0.435437 -0.692073
vt 0.435437 -0.734624
vt 0.459338 -0.734624
vt 0.430517 -0.695625
vt 0.408564 -0.695625
vt 0.408564 -0.734624
vt 0.430517 -0.734624
vt 0.435437 -0.775940
vt 0.408564 -0.775940
vt 0.408564 -0.785522
vt 0.870677 -0.627683
vt 0.459338 -0.775940
vt 0.459338 -0.785522
vt 0.380102 -0.775940
vt 0.828043 -0.591273
vt 0.380102 -0.695625
vt 0.380102 -0.734624
vt 0.496794 -0.775940
vt 0.829952 -0.659585
vt 0.496794 -0.692073
vt 0.496794 -0.734624
vt 0.802065 -0.679169
vt 0.801806 -0.692276
vt 0.829363 -0.692785
vt 0.829677 -0.676965
vt 0.809394 -0.711668
vt 0.829180 -0.718142
vt 0.808910 -0.612001
vt 0.801715 -0.631381
vt 0.829349 -0.630431
vt 0.828514 -0.605087
vt 0.802355 -0.644553
vt 0.829670 -0.646249
vt 0.857169 -0.642941
vt 0.856905 -0.629834
vt 0.848544 -0.610762
vt 0.849044 -0.712022
vt 0.857012 -0.692947
vt 0.856903 -0.679760
vt 0.300896 -0.683719
vt 0.787959 -0.693876
vt 0.796954 -0.692803
vt 0.798992 -0.675655
vt 0.829931 -0.663628
vt 0.829787 -0.671842
vt 0.351722 -0.683718
vt 0.806024 -0.715246
vt 0.829095 -0.731964
vt 0.829117 -0.723131
vt 0.859586 -0.722539
vt 0.852283 -0.715738
vt 0.870711 -0.694993
vt 0.861767 -0.693673
vt 0.870709 -0.669140
vt 0.860365 -0.676599
vt 0.796935 -0.630848
vt 0.805524 -0.608418
vt 0.828376 -0.600099
vt 0.799023 -0.647851
vt 0.829766 -0.651372
vt 0.860380 -0.646330
vt 0.861733 -0.629114
vt 0.851768 -0.607051
vt 0.351722 -0.692073
vt 0.408564 -0.692073
vt 0.380102 -0.692073
vt 0.329679 -0.772438
vt 0.351722 -0.772438
vt 0.408564 -0.772438
vt 0.430517 -0.772438
vt 0.380102 -0.772438
vt 0.380102 -0.785522
vt 0.351722 -0.785522
vt 0.858886 -0.600063
vt 0.496794 -0.785522
vt 0.300896 -0.785522
vt 0.870671 -0.653811
vt 0.380102 -0.683719
vt 0.408564 -0.683719
vt 0.798632 -0.721944
vt 0.263424 -0.683719
vt 0.459338 -0.683719
vt 0.789007 -0.667770
vt 0.435437 -0.785522
vt 0.435437 -0.683719
vt 0.324863 -0.683719
vt 0.324863 -0.785522
vt 0.263424 -0.775940
vt 0.263424 -0.734624
vt 0.263424 -0.692073
vt 0.496794 -0.683719
vt 0.263424 -0.785522
vn 0.063667 0.000000 0.997971
vn 0.000000 0.000000 1.000000
vn 0.000000 0.000000 1.000000
vn 0.185805 0.000000 0.982587
vn 0.740663 0.000000 0.671877
vn 0.740663 0.000000 0.671877
vn 0.721532 -0.009868 0.692311
vn 0.309022 -0.007198 0.951028
vn 0.309028 0.000001 0.951053
vn 0.722012 0.000002 0.691880
vn 0.056901 0.000000 0.998380
vn 0.000000 0.000000 1.000000
vn 0.000000 0.000000 1.000000
vn 0.000000 0.000000 1.000000
vn 0.000000 0.000000 -1.000000
vn 0.056901 0.000000 -0.998380
vn 0.000000 0.000000 -1.000000
vn 0.000000 0.000000 -1.000000
vn 0.309023 -0.007198 -0.951028
vn 0.721531 -0.009868 -0.692312
vn 0.722012 0.000001 -0.691881
vn 0.309031 -0.000000 -0.951052
vn 0.063666 0.000000 -0.997971
vn 0.740662 0.000000 -0.671878
vn 0.740662 0.000000 -0.671878
vn 0.185803 0.000000 -0.982587
vn 0.000000 0.000000 -1.000000
vn 0.000000 0.000000 -1.000000
vn 1.000000 0.000000 0.000000
vn 1.000000 0.000000 0.000000
vn 0.999944 -0.010606 0.000000
vn 1.000000 0.000000 -0.000000
vn -1.000000 0.000000 0.000000
vn -1.000000 0.000000 0.000000
vn -1.000000 0.000000 0.000000
vn -1.000000 0.000000 0.000000
vn -1.000000 0.000000 0.000000
vn -1.000000 0.000000 0.000000
vn -1.000000 0.000000 0.000000
vn -1.000000 0.000000 0.000000
vn -1.000000 0.000000 0.000000
vn -1.000000 0.000000 0.000000
vn -1.000000 0.000000 0.000000
vn -1.000000 0.000000 0.000000
vn 0.000000 1.000000 0.000000
vn 0.000000 1.000000 -0.000000
vn 0.000000 1.000000 0.000000
vn 0.000000 1.000000 0.000000
vn 0.000000 1.000000 -0.000000
vn 0.000000 1.000000 -0.000000
vn 0.000000 -1.000000 0.000000
vn 0.000000 -1.000000 0.000000
vn 0.000000 -1.000000 -0.000000
vn 0.000000 -1.000000 0.000000
vn 0.000000 -1.000000 -0.000000
vn 0.000000 -1.000000 -0.000000
vn 0.000000 -1.000000 0.000000
vn 0.000000 -1.000000 -0.000000
vn 0.000000 -1.000000 -0.000000
vn 0.000000 1.000000 0.000000
vn 0.000000 1.000000 0.000000
vn 0.000000 1.000000 0.000000
vn 0.000000 1.000000 0.000000
vn 0.000000 1.000000 0.000000
vn 0.000000 1.000000 0.000000
vn 0.000000 1.000000 0.000000
vn 0.000000 1.000000 0.000000
vn 0.000000 1.000000 0.000000
vn 0.000000 1.000000 0.000000
vn 0.000000 1.000000 0.000000
vn 0.000000 1.000000 0.000000
vn 0.000000 1.000000 0.000000
vn 0.000000 1.000000 -0.000000
vn 0.000000 1.000000 -0.000000
vn 0.000000 1.000000 -0.000000
vn 0.000000 1.000000 -0.000000
vn 0.000000 1.000000 -0.000000
vn 0.000000 1.000000 -0.000000
vn 0.000000 1.000000 -0.000000
vn 0.000000 1.000000 -0.000000
vn 0.000000 1.000000 0.000000
vn 0.000000 1.000000 0.000000
vn 0.000000 -1.000000 0.000000
vn 0.000000 -1.000000 0.000000
vn 0.000000 -1.000000 0.000000
vn 0.000000 -1.000000 0.000000
vn 0.000000 -1.000000 0.000000
vn 0.000000 -1.000000 -0.000000
vn 0.000000 -1.000000 0.000000
vn 0.000000 -1.000000 0.000000
vn 0.000000 -1.000000 0.000000
vn 0.000000 -1.000000 0.000000
vn 0.000000 -1.000000 0.000000
vn 0.000000 -1.000000 0.000000
vn 0.000000 -1.000000 0.000000
vn 0.000000 -1.000000 0.000000
vn 0.000000 -1.000000 -0.000000
vn 0.000000 -1.000000 -0.000000
vn 0.000000 -1.000000 -0.000000
vn 0.000000 -1.000000 -0.000000
vn 0.000000 -1.000000 -0.000000
vn 0.000000 -1.000000 -0.000000
vn 0.000000 0.000000 1.000000
vn 0.209970 0.000000 0.977708
vn 0.209970 0.000000 0.977708
vn 0.000000 0.000000 1.000000
vn -1.000000 0.000000 0.000000
vn -1.000000 0.000000 0.000000
vn -1.000000 0.000000 0.000000
vn -1.000000 0.000000 0.000000
vn 0.729105 0.000000 0.684402
vn 0.729105 0.000000 0.684402
vn 1.000000 0.000000 0.000000
vn 1.000000 0.000000 0.000000
vn 0.729102 0.000000 -0.684406
vn 0.729102 0.000000 -0.684406
vn 0.209965 0.000000 -0.977709
vn 0.209965 0.000000 -0.977709
vn 0.000000 0.000000 -1.000000
vn 0.000000 0.000000 -1.000000
vn -1.000000 0.000000 0.000000
vn -1.000000 0.000000 0.000000
vn 0.729105 0.000000 0.684401
vn 0.209971 0.000000 0.977708
vn 0.209971 0.000000 0.977708
vn 0.729105 0.000000 0.684401
vn 1.000000 0.000000 0.000000
vn 1.000000 0.000000 0.000000
vn 0.000000 0.000000 1.000000
vn 0.000000 0.000000 1.000000
vn -1.000000 0.000000 0.000000
vn -1.000000 0.000000 0.000000
vn -1.000000 0.000000 0.000000
vn -1.000000 0.000000 0.000000
vn -1.000000 0.000000 0.000000
vn -1.000000 0.000000 0.000000
vn 0.000000 0.000000 -1.000000
vn 0.209965 0.000000 -0.977709
vn 0.209965 0.000000 -0.977709
vn 0.000000 0.000000 -1.000000
vn 0.729102 0.000000 -0.684405
vn 0.729102 0.000000 -0.684405
vn 0.740663 0.000000 0.671877
vn 0.185805 0.000000 0.982587
vn 0.740663 0.000000 0.671877
vn 0.000000 0.000000 1.000000
vn -1.000000 0.000000 0.000000
vn -1.000000 0.000000 0.000000
vn -1.000000 0.000000 0.000000
vn 0.000000 0.000000 -1.000000
vn 0.185803 0.000000 -0.982587
vn 0.740662 0.000000 -0.671878
vn 0.740662 0.000000 -0.671878
vn 1.000000 0.000000 0.000000
vn 1.000000 0.000000 0.000000
vn 0.309017 0.007425 0.951027
vn 0.721522 0.010178 0.692317
vn 0.721523 0.010176 -0.692316
vn 0.309022 0.007423 -0.951026
vn 0.999940 0.010937 0.000000
vn 0.000000 -1.000000 -0.000000
vn 0.000000 -1.000000 -0.000000
vn 0.000000 -1.000000 -0.000000
vn 0.000000 -1.000000 -0.000000
vn 0.957201 0.000000 -0.289425
vn 0.957201 0.000000 -0.289425
vn 0.957201 0.000000 -0.289425
vn 0.957201 0.000000 -0.289425
vn 0.000000 -1.000000 0.000000
vn 0.000000 -1.000000 0.000000
vn 0.000000 -1.000000 0.000000
vn 0.000000 -1.000000 0.000000
vn 0.957200 0.000000 0.289426
vn 0.957200 0.000000 0.289426
vn 0.957200 0.000000 0.289426
vn 0.957200 0.000000 0.289426
vn 0.000000 -1.000000 0.000000
vn 0.000000 -1.000000 0.000000
vn 0.957201 0.000000 -0.289425
vn 0.957201 0.000000 -0.289425
vn 0.000000 1.000000 -0.000001
vn 0.000000 1.000000 -0.000000
vn 0.000000 1.000000 -0.000000
vn 0.000000 1.000000 -0.000001
vn 0.000000 1.000000 0.000000
vn 0.000000 1.000000 0.000000
vn 0.000000 1.000000 0.000000
vn 0.000000 1.000000 0.000000
vn 0.957200 0.000000 0.289426
vn 0.957200 0.000000 0.289426
vn 0.000000 1.000000 0.000000
vn 0.000000 1.000000 0.000000
s 1
g obj_H0001 Hero Assets
usemtl lambert3SG
f 65/1/1 66/2/2 1/91/3 13/102/4
f 64/5/5 65/1/1 13/102/4 2/88/6
s 2
f 72/7/7 73/8/8 74/9/9 75/10/10
s 1
f 57/11/11 58/12/12 15/13/13 19/14/14
f 60/15/15 61/16/16 20/17/17 18/18/18
s 2
f 76/19/19 77/20/20 78/21/21 79/22/22
s 1
f 69/23/23 70/24/24 8/25/25 17/99/26
f 68/27/27 69/23/23 17/99/26 7/28/28
f 71/29/29 64/5/5 2/88/6 9/87/30
f 70/24/24 71/29/29 9/87/30 8/25/25
s 2
f 77/20/20 80/31/31 81/32/32 78/21/21
f 80/31/31 72/7/7 75/10/10 81/32/32
s 7
f 67/33/33 68/27/34 7/28/35 11/90/36
f 1/91/37 66/2/38 67/103/33 11/107/36
f 15/13/39 58/12/40 59/105/41 21/104/42
f 59/35/41 60/15/43 18/18/44 21/36/42
s 9
f 38/37/45 39/38/46 40/39/47 41/40/48
f 39/38/46 42/41/49 43/42/50 40/39/47
s 10
f 48/43/51 47/44/52 49/45/53 50/46/54
f 47/44/52 51/47/55 52/48/56 49/45/53
f 49/45/53 52/48/56 53/49/57 54/50/58
f 50/46/54 49/45/53 54/50/58 55/51/59
s 9
f 40/39/47 43/42/50 44/52/60 45/53/61
f 41/40/48 40/39/47 45/53/61 46/54/62
s 11
f 3/98/63 14/56/64 23/57/65 22/58/66
s 12
f 12/59/67 3/98/68 22/58/69 24/60/70
s 11
f 14/56/64 4/95/71 25/62/72 23/57/65
f 4/95/71 10/63/73 26/64/74 25/62/72
f 10/63/73 6/65/75 27/66/76 26/64/74
f 6/65/75 16/67/77 28/68/78 27/66/76
f 16/67/77 5/69/79 29/70/80 28/68/78
s 12
f 5/69/81 12/59/67 24/60/70 29/70/82
s 13
f 2/6/83 13/4/84 30/71/85 31/72/86
f 9/30/87 2/6/83 31/72/86 32/73/88
f 13/4/84 1/3/89 33/74/90 30/71/85
s 14
f 1/3/91 11/34/92 34/75/93 33/74/94
f 11/34/92 7/92/95 35/76/96 34/75/93
s 13
f 7/92/97 17/26/98 36/77/99 35/76/100
f 17/26/98 8/89/101 37/78/102 36/77/99
f 8/89/101 9/30/87 32/73/88 37/78/102
s 16
f 22/58/103 23/57/104 39/38/105 38/37/106
s 17
f 24/60/107 22/58/108 38/37/109 41/40/110
s 16
f 23/57/104 25/62/111 42/41/112 39/38/105
f 25/62/111 26/64/113 43/42/114 42/41/112
f 26/64/113 27/66/115 44/52/116 43/42/114
f 27/66/115 28/68/117 45/53/118 44/52/116
f 28/68/117 29/70/119 46/54/120 45/53/118
s 17
f 29/70/121 24/60/107 41/40/110 46/54/122
s 18
f 31/72/123 30/71/124 47/44/125 48/43/126
f 32/73/127 31/72/123 48/43/126 50/46/128
f 30/71/124 33/74/129 51/47/130 47/44/125
s 19
f 33/74/131 34/75/132 52/48/133 51/47/134
f 34/75/132 35/76/135 53/49/136 52/48/133
s 18
f 35/76/137 36/77/138 54/50/139 53/49/140
f 36/77/138 37/78/141 55/51/142 54/50/139
f 37/78/141 32/73/127 50/46/128 55/51/142
s 1
f 4/61/143 14/101/144 57/11/11 56/79/145
f 14/101/144 3/55/146 58/12/12 57/11/11
s 7
f 59/105/41 58/12/40 3/55/147 12/96/148
f 12/106/148 5/97/149 60/15/43 59/35/41
s 1
f 5/97/150 16/100/151 61/16/16 60/15/15
f 16/100/151 6/94/152 62/80/153 61/16/16
f 6/94/152 10/93/154 63/81/155 62/80/153
f 10/93/154 4/61/143 56/79/145 63/81/155
s 2
f 75/10/10 74/9/9 82/82/156 83/83/157
s 1
f 19/14/14 15/13/13 66/2/2 65/1/1
s 7
f 67/103/33 66/2/38 15/13/39 21/104/42
f 21/36/42 18/18/44 68/27/34 67/33/33
s 1
f 18/18/18 20/17/17 69/23/23 68/27/27
s 2
f 79/22/22 78/21/21 84/84/158 85/85/159
f 78/21/21 81/32/32 86/86/160 84/84/158
f 81/32/32 75/10/10 83/83/157 86/86/160
s 21
f 56/79/161 57/11/162 73/8/163 72/7/164
s 22
f 57/11/165 19/14/166 74/9/167 73/8/168
s 21
f 61/16/169 62/80/170 77/20/171 76/19/172
s 24
f 20/17/173 61/16/174 76/19/175 79/22/176
s 21
f 62/80/170 63/81/177 80/31/178 77/20/171
f 63/81/177 56/79/161 72/7/164 80/31/178
s 22
f 19/14/166 65/1/179 82/82/180 74/9/167
s 25
f 65/1/181 64/5/182 83/83/183 82/82/184
f 70/24/185 69/23/186 85/85/187 84/84/188
s 24
f 69/23/189 20/17/173 79/22/176 85/85/190
s 25
f 71/29/191 70/24/185 84/84/188 86/86/192
f 64/5/182 71/29/191 86/86/192 83/83/183
