# This file uses meters as units for non-parametric coordinates.

mtllib obj_A0012_b.mtl
g default
v -0.587985 -0.000001 0.000000
v -0.587985 3.750592 0.000000
v -0.587985 0.000004 -24.999998
v -0.587985 3.750591 -24.999998
v 0.587985 0.000004 -24.999998
v 0.587985 3.750591 -24.999998
v 0.587985 -0.000001 0.000000
v 0.587985 3.750592 0.000000
vt 0.571840 0.554487
vt 0.562464 0.554485
vt 0.571852 0.491987
vt 0.562476 0.491985
vt 0.574792 0.491987
vt 0.562476 0.489045
vt 0.571840 0.557427
vt 0.584157 0.554489
vt 0.559524 0.554484
vt 0.559536 0.491984
vt 0.574780 0.554487
vt 0.571853 0.489047
vt 0.584168 0.491989
vt 0.562463 0.557425
vn -1.000000 0.000000 0.000000
vn -1.000000 0.000000 0.000000
vn -1.000000 0.000000 0.000000
vn -1.000000 0.000000 0.000000
vn 0.000000 0.000000 -1.000000
vn 0.000000 0.000000 -1.000000
vn 0.000000 0.000000 -1.000000
vn 0.000000 0.000000 -1.000000
vn 1.000000 -0.000000 -0.000000
vn 1.000000 -0.000000 -0.000000
vn 1.000000 -0.000000 -0.000000
vn 1.000000 -0.000000 -0.000000
vn 0.000000 0.000000 1.000000
vn 0.000000 0.000000 1.000000
vn 0.000000 0.000000 1.000000
vn 0.000000 0.000000 1.000000
vn 0.000000 1.000000 -0.000000
vn 0.000000 1.000000 -0.000000
vn 0.000000 1.000000 -0.000000
vn 0.000000 1.000000 -0.000000
vn 0.000000 -1.000000 -0.000000
vn 0.000000 -1.000000 -0.000000
vn 0.000000 -1.000000 -0.000000
vn 0.000000 -1.000000 -0.000000
s off
g obj_A0012_b Paredes Assets
usemtl lambert3SG
f 1/1/1 2/2/2 4/4/3 3/3/4
f 3/3/5 4/4/6 6/6/7 5/12/8
f 5/5/9 6/13/10 8/8/11 7/11/12
f 7/7/13 8/14/14 2/2/15 1/1/16
f 2/2/17 8/9/18 6/10/19 4/4/20
f 7/11/21 1/1/22 3/3/23 5/5/24
