# This file uses meters as units for non-parametric coordinates.

mtllib obj_A0014_a.mtl
g default
v 2.052410 24.794804 -2.009708
v 1.642017 24.794804 -2.510976
v 1.642017 25.205231 -2.009659
v -2.052568 24.794804 -2.009708
v -1.642017 25.205231 -2.009659
v -1.642017 24.794804 -2.510976
v -1.642017 24.794804 2.510922
v -1.642017 25.205231 2.009706
v -2.052568 24.794804 2.009681
v 1.642017 24.794811 2.510948
v 2.052410 24.794811 2.009705
v 1.642017 25.205231 2.009706
v 2.692938 3.784732 -2.636961
v 2.692938 3.784732 2.636980
v -2.154652 3.784773 -3.294691
v 2.154493 3.784732 -3.294691
v -2.693254 3.784773 -2.636961
v -2.693254 3.784773 2.636995
v -2.154652 3.784773 3.294695
v 2.154493 3.784732 3.294695
v 2.883223 3.408980 -2.823257
v 2.883223 3.408980 2.823257
v -2.306774 3.409001 -3.527482
v 2.306616 3.408980 -3.527482
v -2.883434 3.409000 -2.823257
v -2.883434 3.409000 2.823274
v -2.306774 3.409001 3.527494
v 2.306616 3.408980 3.527479
v 2.883223 -0.000010 -2.823274
v 2.883223 -0.000010 2.823257
v -2.306774 0.000000 -3.527494
v 2.306616 -0.000010 -3.527494
v -2.883434 0.000000 -2.823274
v -2.883434 0.000000 2.823257
v -2.306774 0.000000 3.527482
v 2.306616 -0.000010 3.527482
v 2.052410 3.912843 -2.009689
v 2.180464 3.784732 -2.055449
v 2.052410 3.912843 2.009706
v 2.180464 3.784732 2.055452
v 1.641859 3.912843 -2.510957
v 1.702560 3.784732 -2.639068
v -1.642017 3.912853 -2.510957
v -1.702719 3.784773 -2.639052
v -2.052568 3.912853 -2.009674
v -2.180700 3.784773 -2.055434
v -2.052568 3.912853 2.009706
v -2.180700 3.784773 2.055449
v -1.642017 3.912853 2.510957
v -1.702719 3.784773 2.639071
v 1.641859 3.912843 2.510957
v 1.702560 3.784732 2.639055
vt 0.303287 0.027564
vt 0.302197 0.027564
vt 0.302195 0.016891
vt 0.303285 0.016891
vt 0.302197 0.028896
vt 0.546884 0.498320
vt 0.293476 0.028897
vt 0.535810 0.498320
vt 0.535810 0.497521
vt 0.546884 0.497521
vt 0.511423 0.498320
vt 0.548543 0.498320
vt 0.511423 0.497521
vt 0.513082 0.498320
vt 0.513082 0.497521
vt 0.524156 0.498320
vt 0.524156 0.497521
vt 0.525816 0.498320
vt 0.525816 0.497521
vt 0.534151 0.498320
vt 0.534151 0.497521
vt 0.535810 0.491132
vt 0.546884 0.491132
vt 0.511423 0.491132
vt 0.513082 0.491132
vt 0.524156 0.491132
vt 0.525816 0.491132
vt 0.534151 0.491132
vt 0.546884 0.500184
vt 0.546884 0.499720
vt 0.548543 0.500184
vt 0.535810 0.500184
vt 0.535810 0.499720
vt 0.534151 0.500184
vt 0.534151 0.499720
vt 0.511423 0.499720
vt 0.511423 0.500184
vt 0.513082 0.499720
vt 0.513082 0.500184
vt 0.524156 0.499720
vt 0.524156 0.500184
vt 0.525816 0.499720
vt 0.525816 0.500184
vt 0.546884 0.555367
vt 0.513082 0.555367
vt 0.511423 0.555367
vt 0.525816 0.555367
vt 0.524156 0.555367
vt 0.535810 0.555367
vt 0.534151 0.555367
vt 0.302195 0.015560
vt 0.293474 0.015562
vt 0.293474 0.016893
vt 0.292384 0.016893
vt 0.292386 0.027566
vt 0.293476 0.027566
vt 0.556879 0.497521
vt 0.548543 0.497521
vt 0.548543 0.491132
vt 0.556879 0.491132
vt 0.556879 0.499720
vt 0.556879 0.555367
vt 0.548543 0.555367
vt 0.556879 0.500184
vt 0.548543 0.499720
vt 0.556879 0.498320
vn 0.706922 0.706872 -0.024353
vn 0.103022 0.991111 -0.084178
vn 0.103018 0.991111 0.084179
vn 0.706923 0.706871 0.024348
vn 0.027561 0.773467 -0.633238
vn -0.027564 0.773466 -0.633238
vn -0.103019 0.991111 -0.084176
vn -0.706789 0.707005 -0.024353
vn -0.706791 0.707003 0.024348
vn -0.103014 0.991112 0.084177
vn -0.027571 0.773416 0.633300
vn 0.027561 0.773416 0.633299
vn 0.877544 0.475399 -0.062548
vn 0.877544 0.475398 0.062551
vn 0.994782 0.042667 0.092674
vn 0.994782 0.042667 -0.092674
vn -0.104083 0.553891 -0.826058
vn 0.104089 0.553905 -0.826048
vn 0.135376 0.052873 -0.989382
vn -0.135376 0.052873 -0.989383
vn -0.877650 0.475201 -0.062564
vn -0.994782 0.042648 -0.092684
vn -0.877650 0.475201 0.062567
vn -0.994782 0.042648 0.092685
vn -0.104080 0.553891 0.826059
vn -0.135374 0.052868 0.989383
vn 0.104088 0.553903 0.826049
vn 0.135378 0.052869 0.989383
vn 0.995904 0.000000 0.090422
vn 0.995904 0.000000 -0.090422
vn 0.134456 0.000004 -0.990920
vn -0.134455 0.000004 -0.990920
vn -0.995903 0.000000 -0.090430
vn -0.995903 -0.000000 0.090429
vn -0.134454 -0.000002 0.990920
vn 0.134458 -0.000001 0.990919
vn 0.693623 0.717228 -0.066870
vn 0.693620 0.717230 -0.066882
vn 0.547094 0.707073 -0.448037
vn 0.547094 0.707073 -0.448037
vn 0.693625 0.717226 0.066874
vn 0.693624 0.717226 0.066877
vn 0.547105 0.707051 0.448058
vn 0.547105 0.707051 0.448058
vn 0.000004 0.707129 -0.707084
vn 0.000004 0.707129 -0.707084
vn 0.000004 0.707129 -0.707084
vn 0.000004 0.707129 -0.707084
vn -0.546957 0.707229 -0.447958
vn -0.546957 0.707229 -0.447958
vn -0.693338 0.717505 -0.066847
vn -0.693336 0.717506 -0.066857
vn -0.693339 0.717505 0.066840
vn -0.693334 0.717508 0.066862
vn -0.546949 0.707232 0.447962
vn -0.546949 0.707232 0.447962
vn 0.000007 0.707139 0.707075
vn 0.000007 0.707139 0.707075
vn 0.000007 0.707139 0.707075
vn 0.000007 0.707139 0.707075
vn 0.773697 -0.000004 -0.633556
vn 0.773697 -0.000004 -0.633556
vn 0.773697 -0.000004 -0.633556
vn 0.773697 -0.000004 -0.633556
vn -0.773642 -0.000001 -0.633623
vn -0.773642 -0.000001 -0.633623
vn -0.773642 -0.000001 -0.633623
vn -0.773642 -0.000001 -0.633623
vn -0.773624 0.000001 0.633645
vn -0.773624 0.000001 0.633645
vn -0.773624 0.000001 0.633645
vn -0.773624 0.000001 0.633645
vn 0.773685 -0.000003 0.633571
vn 0.773685 -0.000003 0.633571
vn 0.773685 -0.000003 0.633571
vn 0.773685 -0.000003 0.633571
vn 1.000000 0.000000 0.000000
vn 1.000000 0.000000 0.000000
vn 1.000000 0.000000 0.000000
vn 1.000000 0.000000 0.000000
vn -1.000000 -0.000000 0.000000
vn -1.000000 -0.000000 0.000000
vn -1.000000 -0.000000 0.000000
vn -1.000000 -0.000000 0.000000
vn -0.000004 0.000001 1.000000
vn -0.000004 0.000001 1.000000
vn -0.000004 0.000001 1.000000
vn -0.000004 0.000001 1.000000
vn -0.000000 -0.000001 -1.000000
vn -0.000000 -0.000001 -1.000000
vn -0.000000 -0.000001 -1.000000
vn -0.000000 -0.000001 -1.000000
vn 0.000000 1.000000 0.000000
vn 0.000000 1.000000 0.000000
vn 0.000000 1.000000 0.000000
vn 0.000000 1.000000 0.000000
vn 0.000009 1.000000 -0.000000
vn 0.000009 1.000000 -0.000000
vn 0.000008 1.000000 -0.000000
vn 0.000008 1.000000 -0.000000
vn -0.000000 1.000000 0.000000
vn -0.000000 1.000000 0.000000
vn -0.000000 1.000000 0.000000
vn -0.000000 1.000000 0.000000
vn 0.000009 1.000000 0.000001
vn 0.000008 1.000000 0.000000
vn 0.000009 1.000000 0.000000
vn 0.000008 1.000000 0.000000
s 1
g obj_A0014_a Paredes Assets
usemtl lambert3SG
f 1/1/1 3/2/2 12/3/3 11/4/4
f 3/2/2 2/5/5 6/7/6 5/56/7
f 5/56/7 4/55/8 9/54/9 8/53/10
f 8/53/10 7/52/11 10/51/12 12/3/3
f 12/3/3 3/2/2 5/56/7 8/53/10
f 1/1/1 2/5/5 3/2/2
f 4/55/8 5/56/7 6/7/6
f 7/52/11 8/53/10 9/54/9
f 10/51/12 11/4/4 12/3/3
s 2
f 13/6/13 14/8/14 22/9/15 21/10/16
f 15/66/17 16/12/18 24/58/19 23/57/20
f 16/12/18 13/6/13 21/10/16 24/58/19
f 17/14/21 15/11/17 23/13/20 25/15/22
f 18/16/23 17/14/21 25/15/22 26/17/24
f 19/18/25 18/16/23 26/17/24 27/19/26
f 14/8/14 20/20/27 28/21/28 22/9/15
f 20/20/27 19/18/25 27/19/26 28/21/28
f 21/10/16 22/9/15 30/22/29 29/23/30
f 23/57/20 24/58/19 32/59/31 31/60/32
f 24/58/19 21/10/16 29/23/30 32/59/31
f 25/15/22 23/13/20 31/24/32 33/25/33
f 26/17/24 25/15/22 33/25/33 34/26/34
f 27/19/26 26/17/24 34/26/34 35/27/35
f 22/9/15 28/21/28 36/28/36 30/22/29
f 28/21/28 27/19/26 35/27/35 36/28/36
s 3
f 37/29/37 38/30/38 42/65/39 41/31/40
f 38/30/38 37/29/37 39/32/41 40/33/42
f 40/33/42 39/32/41 51/34/43 52/35/44
s off
f 41/31/45 42/65/46 44/61/47 43/64/48
s 4
f 43/37/49 44/36/50 46/38/51 45/39/52
f 45/39/52 46/38/51 48/40/53 47/41/54
f 47/41/54 48/40/53 50/42/55 49/43/56
s off
f 49/43/57 50/42/58 52/35/59 51/34/60
f 37/29/61 41/31/62 2/63/63 1/44/64
f 43/37/65 45/39/66 4/45/67 6/46/68
f 7/47/69 9/48/70 47/41/71 49/43/72
f 51/34/73 39/32/74 11/49/75 10/50/76
f 37/29/77 1/44/78 11/49/79 39/32/80
f 9/48/81 4/45/82 45/39/83 47/41/84
f 51/34/85 10/50/86 7/47/87 49/43/88
f 43/64/89 6/62/90 2/63/91 41/31/92
s 5
f 38/30/93 40/33/94 14/8/95 13/6/96
f 44/61/97 42/65/98 16/12/99 15/66/100
f 42/65/98 38/30/93 13/6/96 16/12/99
f 46/38/101 44/36/97 15/11/100 17/14/102
f 48/40/103 46/38/101 17/14/102 18/16/104
f 50/42/105 48/40/103 18/16/104 19/18/106
f 40/33/94 52/35/107 20/20/108 14/8/95
f 52/35/107 50/42/105 19/18/106 20/20/108
