# This file uses meters as units for non-parametric coordinates.

mtllib obj_A0003_a.mtl
g default
v 0.000000 100.054718 0.000000
v 0.000000 99.945282 -25.000000
v 0.000000 0.000061 0.000000
v 0.000000 -0.000061 -25.000000
vt 1.749672 0.635817
vt 1.749398 0.573317
vt 1.999535 0.573317
vt 1.999535 0.635817
vn 1.000000 0.000000 0.000000
vn 1.000000 0.000000 0.000000
vn 1.000000 0.000000 0.000000
vn 1.000000 0.000000 0.000000
s off
g obj_A0003_a Paredes Assets
usemtl lambert4SG
f 2/1/1 1/2/2 3/3/3 4/4/4
