# This file uses meters as units for non-parametric coordinates.

mtllib obj_A0003_f.mtl
g default
v 0.000000 99.999939 0.000000
v 50.000000 0.000000 0.000000
v 0.000000 100.000061 -25.000000
v 50.000000 0.000000 -25.000000
v 50.000000 25.000000 0.000000
v 49.964153 24.836525 -25.000000
v 0.000000 75.000000 0.000000
v 0.000000 75.000000 -25.000000
vt 1.631269 0.224232
vt 1.568146 0.224183
vt 1.567783 0.158538
vt 1.631298 0.158587
vt 1.407551 0.224231
vt 1.407580 0.158587
vt 1.344065 0.158538
vt 1.344036 0.224183
vn 1.000000 0.000719 -0.000719
vn 0.999999 0.000719 -0.000719
vn 1.000000 0.000719 -0.000719
vn 1.000000 0.000719 -0.000719
vn 0.707808 0.706399 -0.002817
vn 0.707808 0.706399 -0.002817
vn 0.707808 0.706399 -0.002817
vn 0.707808 0.706399 -0.002817
vn 1.000000 0.000000 0.000000
vn 1.000000 0.000000 0.000000
vn 1.000000 0.000000 0.000000
vn 1.000000 0.000000 0.000000
s off
g obj_A0003_f Paredes Assets
usemtl lambert4SG
f 4/1/1 6/2/2 5/3/3 2/4/4
f 6/2/5 8/5/6 7/6/7 5/3/8
f 1/7/9 7/6/10 8/5/11 3/8/12
