# This file uses meters as units for non-parametric coordinates.

mtllib obj_A0018_b.mtl
g default
v 7.725388 75.577431 -25.000000
v 7.725388 100.391670 -25.000000
v 7.725388 100.391663 0.000000
v 7.725388 75.698792 0.000000
v 56.268436 25.985992 0.000000
v 56.268436 26.290749 -25.000000
v 56.268440 5.118690 -25.000000
v 56.666695 5.118683 0.000000
v 67.606766 0.134285 -20.256439
v 67.810066 5.118683 -19.459991
v 67.710564 5.118683 -5.540009
v 67.760262 0.061188 -4.546051
v 0.000000 100.391663 0.000000
v 0.000000 100.391670 -25.000000
v 0.000000 75.629845 -25.000000
v 0.000000 75.449409 0.000000
v 0.000000 25.000000 0.000000
v 0.000000 5.118683 0.000000
v 0.000000 5.118698 -25.000000
v 0.000000 24.143600 -25.000000
v 56.268440 -0.260757 -25.000000
v 56.268436 -0.260773 0.000000
v 0.000000 -0.260773 0.000000
v 0.000000 -0.260750 -25.000000
v 63.862797 -0.099792 0.000000
v 63.862797 5.118683 0.000000
v 63.862797 5.118683 -25.000000
v 63.862789 -0.063225 -25.000000
vt 1.031430 0.888739
vt 1.031430 0.825790
vt 1.013908 0.825790
vt 1.013908 0.888739
vt 1.013908 0.695340
vt 1.154876 0.700016
vt 1.154876 0.647089
vt 1.013908 0.647087
vt 1.154876 0.634441
vt 1.013908 0.634441
vt 1.173815 0.647089
vt 1.173815 0.634441
vt 1.183768 0.647089
vt 1.183768 0.634441
vt 1.031430 0.825790
vt 1.031430 0.888739
vt 1.013908 0.888739
vt 1.013908 0.825790
vt 1.013908 0.695340
vt 1.154876 0.700016
vt 1.013908 0.647086
vt 1.154876 0.647089
vt 1.013908 0.634441
vt 1.154876 0.634441
vt 1.173815 0.634441
vt 1.173815 0.647089
vt 1.183768 0.647089
vt 1.183768 0.634441
vt 1.928894 0.012340
vt 1.997081 0.012340
vt 1.997081 0.081038
vt 1.929227 0.081038
vt 1.792620 0.081038
vt 1.793458 0.012340
vt 1.735279 0.081038
vt 1.735279 0.012340
vt 1.985631 0.720968
vt 1.985633 0.681690
vt 1.998103 0.683624
vt 1.998263 0.718425
vt 1.948648 0.653569
vt 1.949606 0.716062
vt 1.930623 0.716353
vt 1.930660 0.653845
vt 1.958478 0.667270
vt 1.959261 0.702062
vt 1.889547 0.721515
vt 1.889547 0.655425
vt 1.907812 0.655425
vt 1.907812 0.721515
vn 1.000000 0.000000 0.000000
vn 1.000000 0.000000 0.000000
vn 1.000000 0.000000 0.000000
vn 1.000000 0.000000 0.000000
vn 0.713970 0.700171 0.002568
vn 0.713970 0.700171 0.002568
vn 0.713970 0.700171 0.002568
vn 0.713970 0.700171 0.002568
vn 0.999924 0.009473 -0.007907
vn 0.999924 0.009473 -0.007907
vn 0.999924 0.009473 -0.007907
vn 0.999924 0.009473 -0.007907
vn 0.999881 -0.015330 -0.001860
vn 0.999881 -0.015330 -0.001860
vn 0.999881 -0.015330 -0.001860
vn 0.999881 -0.015330 -0.001860
vn 0.000001 1.000000 0.000000
vn 0.000001 1.000000 0.000000
vn 0.000001 1.000000 0.000000
vn 0.000001 1.000000 0.000000
vn 0.000000 1.000000 0.000000
vn 0.000000 1.000000 0.000000
vn 0.000000 1.000000 0.000000
vn 0.000000 1.000000 0.000000
vn 0.000000 0.000000 -1.000000
vn 0.000000 0.000000 -1.000000
vn 0.000000 0.000000 -1.000000
vn 0.000000 0.000000 -1.000000
vn 0.000000 0.000000 1.000000
vn 0.000000 0.000000 1.000000
vn 0.000000 0.000000 1.000000
vn 0.000000 0.000000 1.000000
vn 0.000000 0.000000 1.000000
vn 0.000000 0.000000 1.000000
vn 0.000000 0.000000 1.000000
vn 0.000000 0.000000 1.000000
vn 0.000000 0.000000 1.000000
vn 0.000000 0.000000 1.000000
vn 0.000000 0.000000 1.000000
vn 0.000000 0.000000 1.000000
vn 0.000000 0.000000 -1.000000
vn 0.000000 0.000000 -1.000000
vn 0.000000 0.000000 -1.000000
vn 0.000000 0.000000 -1.000000
vn 0.000000 0.000000 -1.000000
vn 0.000000 0.000000 -1.000000
vn 0.000000 0.000000 -1.000000
vn 0.000000 0.000000 -1.000000
vn 0.000000 0.000000 -1.000000
vn 0.000000 0.000000 -1.000000
vn 0.000000 0.000000 -1.000000
vn 0.000000 0.000000 -1.000000
vn 0.000000 0.000000 1.000000
vn 0.000000 0.000000 1.000000
vn 0.000000 0.000000 1.000000
vn 0.000000 0.000000 1.000000
vn 0.000000 0.000000 1.000000
vn 0.000000 0.000000 1.000000
vn 0.000000 0.000000 1.000000
vn 0.000000 0.000000 1.000000
vn 0.000000 0.000000 -1.000000
vn 0.000000 0.000000 -1.000000
vn 0.000000 0.000000 -1.000000
vn 0.000000 0.000000 -1.000000
vn 0.791085 0.062683 0.608486
vn 0.791085 0.062683 0.608486
vn 0.791085 0.062683 0.608486
vn 0.791085 0.062683 0.608486
vn 0.000000 1.000000 0.000000
vn 0.000000 1.000000 0.000000
vn 0.000000 1.000000 0.000000
vn 0.000000 1.000000 0.000000
vn 0.800132 0.030927 -0.599026
vn 0.800132 0.030927 -0.599026
vn 0.800132 0.030927 -0.599026
vn 0.800132 0.030927 -0.599026
s off
g obj_A0018_b Paredes Assets
usemtl lambert4SG
f 1/29/1 2/30/2 3/31/3 4/32/4
f 4/32/5 5/33/6 6/34/7 1/29/8
f 8/35/9 7/36/10 6/34/11 5/33/12
f 12/37/13 9/38/14 10/39/15 11/40/16
f 26/41/17 27/42/18 7/43/19 8/44/20
f 14/47/21 13/48/22 3/49/23 2/50/24
f 2/1/25 1/2/26 15/3/27 14/4/28
f 4/15/29 3/16/30 13/17/31 16/18/32
f 16/18/33 17/19/34 5/20/35 4/15/36
f 18/21/37 8/22/38 5/20/39 17/19/40
f 7/7/41 19/8/42 20/5/43 6/6/44
f 20/5/45 15/3/46 1/2/47 6/6/48
f 7/7/49 27/11/50 28/12/51 21/9/52
f 25/25/53 26/26/54 8/22/55 22/24/56
f 8/22/57 18/21/58 23/23/59 22/24/60
f 19/8/61 7/7/62 21/9/63 24/10/64
f 11/27/65 26/26/66 25/25/67 12/28/68
f 11/45/69 10/46/70 27/42/71 26/41/72
f 28/12/73 27/11/74 10/13/75 9/14/76
