# This file uses meters as units for non-parametric coordinates.

mtllib obj_A0018_c.mtl
g default
v 50.344639 -0.000240 -3.288696
v 50.344635 25.394096 -3.288696
v 0.824539 76.182281 -3.288692
v 0.824539 0.000256 -3.288696
v 0.824539 76.182281 0.000004
v 50.344635 25.394096 0.000000
v 0.824539 0.000256 0.000000
v 50.344639 -0.000240 0.000000
v 0.824539 100.000000 -3.288693
v 0.824539 100.000000 0.000003
v 0.000000 76.182281 -3.288692
v 0.000000 0.000256 -3.288696
v 0.000000 0.000256 0.000000
v 0.000000 76.182281 0.000004
v 0.000000 100.000000 -3.288693
v 0.000000 100.000000 0.000003
vt 1.781004 0.927978
vt 1.905349 0.801563
vt 1.905349 0.991185
vt 1.781004 0.991185
vt 1.907419 0.801563
vt 1.907419 0.991185
vt 1.905349 0.742279
vt 1.907419 0.742279
vt 1.781004 0.927978
vt 1.781004 0.991185
vt 1.905349 0.991185
vt 1.905349 0.801563
vt 1.907419 0.991185
vt 1.907419 0.801563
vt 1.905349 0.742279
vt 1.907419 0.742279
vt 1.960105 0.995879
vt 1.960105 0.926832
vt 1.969187 0.926832
vt 1.969187 0.995879
vt 1.960105 0.788739
vt 1.969187 0.788739
vt 1.960105 0.723979
vt 1.969187 0.723979
vt 1.753639 0.642084
vt 1.877016 0.642084
vt 1.877016 0.650333
vt 1.753639 0.650333
vt 1.751584 0.650333
vt 1.751584 0.642084
vt 1.892126 0.644420
vt 1.883876 0.644420
vt 1.883876 0.642366
vt 1.892126 0.642366
vn 0.000000 -0.000000 1.000000
vn 0.000000 -0.000000 1.000000
vn 0.000000 -0.000000 1.000000
vn 0.000000 -0.000000 1.000000
vn -0.000000 0.000000 -1.000000
vn -0.000000 0.000000 -1.000000
vn -0.000000 0.000000 -1.000000
vn -0.000000 0.000000 -1.000000
vn 0.715989 0.698112 0.000000
vn 0.715989 0.698112 0.000000
vn 0.715989 0.698112 0.000000
vn 0.715989 0.698112 0.000000
vn -0.000010 -1.000000 0.000000
vn -0.000010 -1.000000 0.000000
vn -0.000010 -1.000000 0.000000
vn -0.000010 -1.000000 0.000000
vn 1.000000 0.000000 0.000000
vn 1.000000 0.000000 0.000000
vn 1.000000 0.000000 0.000000
vn 1.000000 0.000000 0.000000
vn 1.000000 -0.000000 0.000000
vn 1.000000 -0.000000 0.000000
vn 1.000000 -0.000000 0.000000
vn 1.000000 -0.000000 0.000000
vn 0.000000 0.000000 -1.000000
vn 0.000000 0.000000 -1.000000
vn 0.000000 0.000000 -1.000000
vn 0.000000 0.000000 -1.000000
vn 0.000000 -1.000000 0.000000
vn 0.000000 -1.000000 0.000000
vn 0.000000 -1.000000 0.000000
vn 0.000000 -1.000000 0.000000
vn 0.000000 -0.000000 1.000000
vn 0.000000 -0.000000 1.000000
vn 0.000000 -0.000000 1.000000
vn 0.000000 -0.000000 1.000000
vn 0.000000 -0.000000 -1.000000
vn 0.000000 -0.000000 -1.000000
vn 0.000000 -0.000000 -1.000000
vn 0.000000 -0.000000 -1.000000
vn 0.000000 0.000000 1.000000
vn 0.000000 0.000000 1.000000
vn 0.000000 0.000000 1.000000
vn 0.000000 0.000000 1.000000
vn 0.000000 1.000000 0.000000
vn 0.000000 1.000000 0.000000
vn 0.000000 1.000000 0.000000
vn 0.000000 1.000000 0.000000
s off
g obj_A0018_c Paredes Assets
usemtl lambert4SG
f 6/1/1 5/2/2 7/3/3 8/4/4
f 2/9/5 1/10/6 4/11/7 3/12/8
f 2/18/9 3/21/10 5/22/11 6/19/12
f 4/25/13 1/26/14 8/27/15 7/28/16
f 1/17/17 2/18/18 6/19/19 8/20/20
f 5/22/21 3/21/22 9/23/23 10/24/24
f 3/12/25 4/11/26 12/13/27 11/14/28
f 4/25/29 7/28/30 13/29/31 12/30/32
f 7/3/33 5/2/34 14/5/35 13/6/36
f 9/15/37 3/12/38 11/14/39 15/16/40
f 5/2/41 10/7/42 16/8/43 14/5/44
f 10/31/45 9/32/46 15/33/47 16/34/48
