# This file uses meters as units for non-parametric coordinates.

mtllib obj_A0003_e.mtl
g default
v 0.000000 100.000000 0.000000
v 50.000000 0.000000 0.000000
v 0.000000 100.000000 -50.000000
v 50.000000 0.000000 -50.000000
v 50.000000 24.836525 0.000000
v 50.000000 25.000000 -50.000000
v 0.000000 75.000000 0.000000
v 0.000000 75.000000 -50.000000
v 25.000000 25.000000 0.000000
v 25.000000 25.000000 -50.000000
v 0.000000 58.383869 0.000000
v 0.000000 58.383869 -50.000000
v 8.327362 66.755875 0.000000
v 8.327358 66.755875 -50.000000
v 41.636795 33.220398 -50.000000
v 41.636795 33.220398 0.000000
vt 1.702944 0.371313
vt 1.640444 0.371355
vt 1.640769 0.246355
vt 1.702861 0.246313
vt 1.430984 0.246291
vt 1.430946 0.371291
vt 1.401651 0.371283
vt 1.401689 0.246283
vt 1.339189 0.246264
vt 1.339151 0.371264
vt 1.611127 0.371346
vt 1.611164 0.246346
vt 1.564734 0.371332
vt 1.460467 0.371300
vt 1.460505 0.246300
vt 1.564772 0.246332
vn 1.000000 0.000000 0.000000
vn 1.000000 0.000000 0.000000
vn 1.000000 0.000000 0.000000
vn 1.000000 0.000000 0.000000
vn 0.703546 0.710649 -0.000000
vn 0.703546 0.710649 -0.000000
vn 0.703546 0.710649 -0.000000
vn 0.703546 0.710649 -0.000000
vn 1.000000 0.000000 0.000000
vn 1.000000 0.000000 0.000000
vn 1.000000 0.000000 0.000000
vn 1.000000 0.000000 0.000000
vn 0.704511 0.709693 0.001160
vn 0.704511 0.709693 0.001160
vn 0.704511 0.709693 0.001160
vn 0.704511 0.709693 0.001160
vn 0.800436 0.599418 0.000000
vn 0.800436 0.599418 0.000000
vn 0.800436 0.599418 0.000000
vn 0.800436 0.599418 0.000000
vn 0.708995 -0.705214 -0.000000
vn 0.708995 -0.705214 -0.000000
vn 0.708995 -0.705214 -0.000000
vn 0.708995 -0.705214 -0.000000
vn -0.442984 0.896530 0.000000
vn -0.442984 0.896530 0.000000
vn -0.442984 0.896530 0.000000
vn -0.442984 0.896530 0.000000
s off
g obj_A0003_e Paredes Assets
usemtl lambert4SG
f 4/1/1 6/2/2 5/3/3 2/4/4
f 13/5/5 14/6/6 8/7/7 7/8/8
f 1/9/9 7/8/10 8/7/11 3/10/12
f 6/2/13 15/11/14 16/12/15 5/3/16
f 10/13/17 12/14/18 11/15/19 9/16/20
f 12/14/21 14/6/22 13/5/23 11/15/24
f 16/12/25 15/11/26 10/13/27 9/16/28
