# This file uses meters as units for non-parametric coordinates.

mtllib obj_A0003_d.mtl
g default
v 0.000000 100.000000 0.000000
v 50.000000 0.000000 0.000000
v 0.000000 99.999939 -50.000000
v 50.000000 0.000000 -50.000000
v 50.000000 25.000000 0.000000
v 50.000000 25.000000 -50.000000
v 0.000000 75.000000 0.000000
v 0.000000 75.000000 -50.000000
vt 1.631298 0.156983
vt 1.567775 0.156983
vt 1.567775 0.025674
vt 1.631298 0.025674
vt 1.407543 0.156983
vt 1.407543 0.025674
vt 1.344020 0.025674
vt 1.344020 0.156983
vn 1.000000 0.000000 0.000000
vn 1.000000 0.000000 0.000000
vn 1.000000 0.000000 0.000000
vn 1.000000 0.000000 0.000000
vn 0.707107 0.707107 0.000000
vn 0.707107 0.707107 0.000000
vn 0.707107 0.707107 0.000000
vn 0.707107 0.707107 0.000000
vn 1.000000 0.000000 0.000000
vn 1.000000 0.000000 0.000000
vn 1.000000 0.000000 0.000000
vn 1.000000 0.000000 0.000000
s off
g obj_A0003_d Paredes Assets
usemtl lambert4SG
f 4/1/1 6/2/2 5/3/3 2/4/4
f 6/2/5 8/5/6 7/6/7 5/3/8
f 1/7/9 7/6/10 8/5/11 3/8/12
