# This file uses meters as units for non-parametric coordinates.

mtllib obj_A0011.mtl
g default
v 0.000000 0.000000 50.000000
v 25.000000 0.000000 50.000000
v 0.000000 75.000000 32.662529
v 25.000000 75.000000 32.662529
v 0.000000 75.000000 0.000000
v 25.000000 75.000000 0.000000
v 0.000000 0.000000 0.000000
v 25.000000 0.000000 0.000000
v 7.714294 8.336040 5.766403
v 19.247101 8.336040 5.766403
v 7.714294 19.868851 5.766403
v 19.247101 19.868851 5.766403
v 7.714294 19.868851 -5.547470
v 19.247101 19.868851 -5.547470
v 7.714294 8.336040 -5.547470
v 19.247101 8.336040 -5.547470
v 10.592819 18.368851 -5.766403
v 16.368576 18.368851 -5.766403
v 16.368576 9.836040 -5.766403
v 10.592819 9.836040 -5.766403
v 10.945969 17.847130 -3.756226
v 16.015427 17.847130 -3.756226
v 16.015427 10.357761 -3.756226
v 10.945969 10.357761 -3.756226
v 7.714294 35.857681 5.766403
v 19.247101 35.857681 5.766403
v 7.714294 47.390495 5.766403
v 19.247101 47.390495 5.766403
v 7.714294 47.390495 -5.547470
v 19.247101 47.390495 -5.547470
v 7.714294 35.857681 -5.547470
v 19.247101 35.857681 -5.547470
v 10.592819 45.890495 -5.766403
v 16.368576 45.890495 -5.766403
v 16.368576 37.357681 -5.766403
v 10.592819 37.357681 -5.766403
v 10.945969 45.368774 -3.756226
v 16.015427 45.368774 -3.756226
v 16.015427 37.879402 -3.756226
v 10.945969 37.879402 -3.756226
v 7.714294 59.822342 5.766403
v 19.247101 59.822342 5.766403
v 7.714294 71.355148 5.766403
v 19.247101 71.355148 5.766403
v 7.714294 71.355148 -5.547470
v 19.247101 71.355148 -5.547470
v 7.714294 59.822342 -5.547470
v 19.247101 59.822342 -5.547470
v 10.592819 69.855148 -5.766403
v 16.368576 69.855148 -5.766403
v 16.368576 61.322342 -5.766403
v 10.592819 61.322342 -5.766403
v 10.945969 69.333435 -3.756226
v 16.015427 69.333435 -3.756226
v 16.015427 61.844063 -3.756226
v 10.945969 61.844063 -3.756226
vt 0.556471 0.227697
vt 0.556471 0.173182
vt 0.745583 0.173182
vt 0.799465 0.173182
vt 0.745583 0.072371
vt 0.745583 0.002483
vt 0.556471 0.072371
vt 0.556471 0.002483
vt 0.799465 0.072371
vt 0.745583 0.331210
vt 0.556471 0.331210
vt 0.745583 0.227697
vt 0.217600 0.010781
vt 0.246158 0.010781
vt 0.246158 0.039338
vt 0.217600 0.039338
vt 0.116586 0.031423
vt 0.104595 0.031423
vt 0.104595 0.013289
vt 0.116586 0.013289
vt 0.189043 0.039338
vt 0.160486 0.039338
vt 0.160486 0.010781
vt 0.189043 0.010781
vt 0.131929 0.039338
vt 0.131929 0.010781
vt 0.126338 0.039953
vt 0.094830 0.039953
vt 0.101630 0.033967
vt 0.119540 0.033967
vt 0.094830 0.004771
vt 0.101630 0.010758
vt 0.126338 0.004772
vt 0.119540 0.010758
vt 0.217600 0.010781
vt 0.246158 0.010781
vt 0.246158 0.039338
vt 0.217600 0.039338
vt 0.116586 0.031423
vt 0.104595 0.031423
vt 0.104595 0.013289
vt 0.116586 0.013289
vt 0.189043 0.039338
vt 0.160486 0.039338
vt 0.160486 0.010781
vt 0.189043 0.010781
vt 0.131929 0.039338
vt 0.131929 0.010781
vt 0.126338 0.039953
vt 0.094830 0.039953
vt 0.101630 0.033967
vt 0.119540 0.033967
vt 0.094830 0.004771
vt 0.101630 0.010758
vt 0.126338 0.004772
vt 0.119540 0.010758
vt 0.217600 0.010781
vt 0.246158 0.010781
vt 0.246158 0.039338
vt 0.217600 0.039338
vt 0.116586 0.031423
vt 0.104595 0.031423
vt 0.104595 0.013289
vt 0.116586 0.013289
vt 0.189043 0.039338
vt 0.160486 0.039338
vt 0.160486 0.010781
vt 0.189043 0.010781
vt 0.131929 0.039338
vt 0.131929 0.010781
vt 0.126338 0.039953
vt 0.094830 0.039953
vt 0.101630 0.033967
vt 0.119540 0.033967
vt 0.094830 0.004771
vt 0.101630 0.010758
vt 0.126338 0.004772
vt 0.119540 0.010758
vn 0.000000 0.225227 0.974306
vn 0.000000 0.225227 0.974306
vn 0.000000 0.225227 0.974306
vn 0.000000 0.225227 0.974306
vn 0.000000 1.000000 0.000000
vn 0.000000 1.000000 0.000000
vn 0.000000 1.000000 0.000000
vn 0.000000 1.000000 0.000000
vn 0.000000 0.000000 -1.000000
vn 0.000000 0.000000 -1.000000
vn 0.000000 0.000000 -1.000000
vn 0.000000 0.000000 -1.000000
vn 1.000000 0.000000 0.000000
vn 1.000000 0.000000 0.000000
vn 1.000000 0.000000 0.000000
vn 1.000000 0.000000 0.000000
vn -1.000000 0.000000 0.000000
vn -1.000000 0.000000 0.000000
vn -1.000000 0.000000 0.000000
vn -1.000000 0.000000 0.000000
vn 0.000000 1.000000 0.000000
vn 0.000000 1.000000 0.000000
vn 0.000000 1.000000 0.000000
vn 0.000000 1.000000 0.000000
vn 0.000000 0.000000 -1.000000
vn 0.000000 0.000000 -1.000000
vn 0.000000 0.000000 -1.000000
vn 0.000000 0.000000 -1.000000
vn 0.000000 -1.000000 0.000000
vn 0.000000 -1.000000 0.000000
vn 0.000000 -1.000000 0.000000
vn 0.000000 -1.000000 0.000000
vn 1.000000 0.000000 0.000000
vn 1.000000 0.000000 0.000000
vn 1.000000 0.000000 0.000000
vn 1.000000 0.000000 0.000000
vn -1.000000 0.000000 0.000000
vn -1.000000 0.000000 0.000000
vn -1.000000 0.000000 0.000000
vn -1.000000 0.000000 0.000000
vn 0.000000 0.144425 -0.989516
vn 0.000000 0.144425 -0.989516
vn 0.000000 0.144425 -0.989516
vn 0.000000 0.144425 -0.989516
vn 0.075838 0.000000 -0.997120
vn 0.075838 0.000000 -0.997120
vn 0.075838 0.000000 -0.997120
vn 0.075838 0.000000 -0.997120
vn 0.000000 -0.144425 -0.989516
vn 0.000000 -0.144425 -0.989516
vn 0.000000 -0.144425 -0.989516
vn 0.000000 -0.144425 -0.989516
vn -0.075838 0.000000 -0.997120
vn -0.075838 0.000000 -0.997120
vn -0.075838 0.000000 -0.997120
vn -0.075838 0.000000 -0.997120
vn 0.000000 -0.967931 -0.251217
vn 0.000000 -0.967931 -0.251217
vn 0.000000 -0.967931 -0.251217
vn 0.000000 -0.967931 -0.251217
vn -0.984917 0.000000 -0.173031
vn -0.984917 0.000000 -0.173031
vn -0.984917 0.000000 -0.173031
vn -0.984917 0.000000 -0.173031
vn 0.000000 0.967931 -0.251217
vn 0.000000 0.967931 -0.251217
vn 0.000000 0.967931 -0.251217
vn 0.000000 0.967931 -0.251217
vn 0.984917 0.000000 -0.173031
vn 0.984917 0.000000 -0.173031
vn 0.984917 0.000000 -0.173031
vn 0.984917 0.000000 -0.173031
vn 0.000000 1.000000 0.000000
vn 0.000000 1.000000 0.000000
vn 0.000000 1.000000 0.000000
vn 0.000000 1.000000 0.000000
vn 0.000000 0.000000 -1.000000
vn 0.000000 0.000000 -1.000000
vn 0.000000 0.000000 -1.000000
vn 0.000000 0.000000 -1.000000
vn 0.000000 -1.000000 0.000000
vn 0.000000 -1.000000 0.000000
vn 0.000000 -1.000000 0.000000
vn 0.000000 -1.000000 0.000000
vn 1.000000 0.000000 0.000000
vn 1.000000 0.000000 0.000000
vn 1.000000 0.000000 0.000000
vn 1.000000 0.000000 0.000000
vn -1.000000 0.000000 0.000000
vn -1.000000 0.000000 0.000000
vn -1.000000 0.000000 0.000000
vn -1.000000 0.000000 0.000000
vn 0.000000 0.144425 -0.989516
vn 0.000000 0.144425 -0.989516
vn 0.000000 0.144425 -0.989516
vn 0.000000 0.144425 -0.989516
vn 0.075838 0.000000 -0.997120
vn 0.075838 0.000000 -0.997120
vn 0.075838 0.000000 -0.997120
vn 0.075838 0.000000 -0.997120
vn 0.000000 -0.144425 -0.989516
vn 0.000000 -0.144425 -0.989516
vn 0.000000 -0.144425 -0.989516
vn 0.000000 -0.144425 -0.989516
vn -0.075838 0.000000 -0.997120
vn -0.075838 0.000000 -0.997120
vn -0.075838 0.000000 -0.997120
vn -0.075838 0.000000 -0.997120
vn 0.000000 -0.967931 -0.251216
vn 0.000000 -0.967931 -0.251216
vn 0.000000 -0.967931 -0.251216
vn 0.000000 -0.967931 -0.251216
vn -0.984917 0.000000 -0.173031
vn -0.984917 0.000000 -0.173031
vn -0.984916 0.000000 -0.173031
vn -0.984916 0.000000 -0.173031
vn 0.000000 0.967931 -0.251217
vn 0.000000 0.967931 -0.251217
vn 0.000000 0.967931 -0.251217
vn 0.000000 0.967931 -0.251217
vn 0.984917 0.000000 -0.173031
vn 0.984917 0.000000 -0.173031
vn 0.984916 0.000000 -0.173031
vn 0.984916 0.000000 -0.173031
vn 0.000000 1.000000 0.000000
vn 0.000000 1.000000 0.000000
vn 0.000000 1.000000 0.000000
vn 0.000000 1.000000 0.000000
vn 0.000000 0.000000 -1.000000
vn 0.000000 0.000000 -1.000000
vn 0.000000 0.000000 -1.000000
vn 0.000000 0.000000 -1.000000
vn 0.000000 -1.000000 0.000000
vn 0.000000 -1.000000 0.000000
vn 0.000000 -1.000000 0.000000
vn 0.000000 -1.000000 0.000000
vn 1.000000 0.000000 0.000000
vn 1.000000 0.000000 0.000000
vn 1.000000 0.000000 0.000000
vn 1.000000 0.000000 0.000000
vn -1.000000 0.000000 0.000000
vn -1.000000 0.000000 0.000000
vn -1.000000 0.000000 0.000000
vn -1.000000 0.000000 0.000000
vn 0.000000 0.144425 -0.989516
vn 0.000000 0.144425 -0.989516
vn 0.000000 0.144425 -0.989516
vn 0.000000 0.144425 -0.989516
vn 0.075838 0.000000 -0.997120
vn 0.075838 0.000000 -0.997120
vn 0.075838 0.000000 -0.997120
vn 0.075838 0.000000 -0.997120
vn 0.000000 -0.144425 -0.989516
vn 0.000000 -0.144425 -0.989516
vn 0.000000 -0.144425 -0.989516
vn 0.000000 -0.144425 -0.989516
vn -0.075838 0.000000 -0.997120
vn -0.075838 0.000000 -0.997120
vn -0.075838 0.000000 -0.997120
vn -0.075838 0.000000 -0.997120
vn 0.000000 -0.967932 -0.251212
vn 0.000000 -0.967932 -0.251212
vn 0.000000 -0.967932 -0.251212
vn 0.000000 -0.967932 -0.251212
vn -0.984916 0.000000 -0.173031
vn -0.984917 0.000000 -0.173031
vn -0.984917 0.000000 -0.173031
vn -0.984917 0.000000 -0.173031
vn 0.000000 0.967931 -0.251217
vn 0.000000 0.967931 -0.251217
vn 0.000000 0.967931 -0.251217
vn 0.000000 0.967931 -0.251217
vn 0.984917 0.000000 -0.173031
vn 0.984916 0.000000 -0.173031
vn 0.984917 0.000000 -0.173031
vn 0.984917 0.000000 -0.173031
s off
g obj_A0011 Paredes Assets
usemtl lambert3SG
f 1/1/1 2/2/2 4/3/3 3/12/4
f 3/4/5 4/3/6 6/5/7 5/9/8
f 5/6/9 6/5/10 8/7/11 7/8/12
f 2/2/13 8/7/14 6/5/15 4/3/16
f 7/11/17 1/1/18 3/12/19 5/10/20
f 11/13/21 12/14/22 14/15/23 13/16/24
f 21/17/25 22/18/26 23/19/27 24/20/28
f 15/21/29 16/22/30 10/23/31 9/24/32
f 10/23/33 16/22/34 14/25/35 12/26/36
f 15/21/37 9/24/38 11/13/39 13/16/40
f 13/27/41 14/28/42 18/29/43 17/30/44
f 14/28/45 16/31/46 19/32/47 18/29/48
f 16/31/49 15/33/50 20/34/51 19/32/52
f 15/33/53 13/27/54 17/30/55 20/34/56
f 17/30/57 18/29/58 22/18/59 21/17/60
f 18/29/61 19/32/62 23/19/63 22/18/64
f 19/32/65 20/34/66 24/20/67 23/19/68
f 20/34/69 17/30/70 21/17/71 24/20/72
f 27/35/73 28/36/74 30/37/75 29/38/76
f 37/39/77 38/40/78 39/41/79 40/42/80
f 31/43/81 32/44/82 26/45/83 25/46/84
f 26/45/85 32/44/86 30/47/87 28/48/88
f 31/43/89 25/46/90 27/35/91 29/38/92
f 29/49/93 30/50/94 34/51/95 33/52/96
f 30/50/97 32/53/98 35/54/99 34/51/100
f 32/53/101 31/55/102 36/56/103 35/54/104
f 31/55/105 29/49/106 33/52/107 36/56/108
f 33/52/109 34/51/110 38/40/111 37/39/112
f 34/51/113 35/54/114 39/41/115 38/40/116
f 35/54/117 36/56/118 40/42/119 39/41/120
f 36/56/121 33/52/122 37/39/123 40/42/124
f 43/57/125 44/58/126 46/59/127 45/60/128
f 53/61/129 54/62/130 55/63/131 56/64/132
f 47/65/133 48/66/134 42/67/135 41/68/136
f 42/67/137 48/66/138 46/69/139 44/70/140
f 47/65/141 41/68/142 43/57/143 45/60/144
f 45/71/145 46/72/146 50/73/147 49/74/148
f 46/72/149 48/75/150 51/76/151 50/73/152
f 48/75/153 47/77/154 52/78/155 51/76/156
f 47/77/157 45/71/158 49/74/159 52/78/160
f 49/74/161 50/73/162 54/62/163 53/61/164
f 50/73/165 51/76/166 55/63/167 54/62/168
f 51/76/169 52/78/170 56/64/171 55/63/172
f 52/78/173 49/74/174 53/61/175 56/64/176
