# This file uses meters as units for non-parametric coordinates.

mtllib obj_A0005_c.mtl
g default
v 40.024979 100.000000 -50.033752
v 90.024979 0.000000 -0.033752
v 40.024979 76.281464 -50.033752
v 89.165833 25.951029 -0.915222
v 0.000000 75.000000 -50.000000
v 0.000000 99.999992 -50.000000
v 0.000122 25.214981 0.393219
v 0.000122 0.002742 0.000000
v 50.000000 100.000000 -100.000000
v 100.000000 0.000000 -100.000000
v 50.000000 75.000000 -100.000000
v 100.000000 25.000000 -100.000000
v 49.934952 76.242172 -60.068085
v 49.934952 100.000000 -60.068085
v 99.478638 25.938265 -10.967545
v 99.806351 0.000000 -10.291504
v 54.983994 80.788742 -54.314850
v 45.737152 80.788704 -45.047119
v 54.983994 100.000000 -54.314850
v 45.737152 100.000015 -45.047119
v 104.493164 30.372921 -4.998962
v 95.164673 30.419640 4.187775
v 104.983994 0.000000 -4.314850
v 95.737152 0.000000 4.952881
v 100.360565 0.000000 0.319031
v 99.828918 30.396280 -0.405594
v 50.360565 80.788727 -49.680969
v 50.360565 100.000000 -49.680969
vt 1.529406 0.942998
vt 1.600407 0.942997
vt 1.600407 0.990805
vt 1.529406 0.990805
vt 1.600407 0.727864
vt 1.409177 0.727864
vt 1.600407 0.656153
vt 1.410115 0.656153
vt 1.696022 0.942997
vt 1.767974 0.942998
vt 1.767974 0.990805
vt 1.696022 0.990805
vt 1.887251 0.727864
vt 1.696022 0.727864
vt 1.887251 0.656153
vt 1.696022 0.656153
vt 1.624310 0.942997
vt 1.624310 0.990805
vt 1.648375 0.942997
vt 1.648375 0.990805
vt 1.648375 0.727864
vt 1.624310 0.727864
vt 1.624310 0.656153
vt 1.648375 0.656153
vt 1.672329 0.942997
vt 1.672329 0.727864
vt 1.672329 0.990805
vt 1.672329 0.656153
vn 0.000843 0.000000 1.000000
vn 0.000843 0.000000 1.000000
vn 0.000843 0.000000 1.000000
vn 0.000843 0.000000 1.000000
vn -0.003617 0.704067 0.710124
vn -0.003617 0.704067 0.710125
vn -0.003617 0.704067 0.710125
vn -0.003617 0.704067 0.710124
vn 0.007450 0.009667 0.999926
vn 0.007450 0.009667 0.999926
vn 0.007450 0.009667 0.999926
vn 0.007450 0.009667 0.999926
vn 0.999999 0.000000 0.001629
vn 0.999999 0.000000 0.001629
vn 0.999999 0.000000 0.001629
vn 0.999999 0.000000 0.001629
vn 0.711876 0.702253 -0.008636
vn 0.711876 0.702253 -0.008636
vn 0.711876 0.702253 -0.008636
vn 0.711876 0.702253 -0.008636
vn 0.999971 0.006486 0.003966
vn 0.999971 0.006486 0.003966
vn 0.999971 0.006486 0.003966
vn 0.999971 0.006486 0.003966
vn -0.657644 0.000000 0.753329
vn -0.657644 0.000000 0.753329
vn -0.657644 0.000000 0.753329
vn -0.657644 0.000000 0.753329
vn 0.707904 0.000000 0.706309
vn 0.707904 0.000000 0.706309
vn 0.707904 0.000000 0.706309
vn 0.707904 0.000000 0.706309
vn 0.413537 0.810821 0.414195
vn 0.413537 0.810821 0.414194
vn 0.413537 0.810821 0.414195
vn 0.413537 0.810821 0.414195
vn 0.704512 0.030159 0.709051
vn 0.704512 0.030159 0.709051
vn 0.704512 0.030159 0.709051
vn 0.704512 0.030159 0.709051
vn 0.733892 0.060666 -0.676552
vn 0.733892 0.060666 -0.676552
vn 0.733892 0.060666 -0.676552
vn 0.733892 0.060666 -0.676552
vn 0.751607 0.000000 -0.659611
vn 0.751607 0.000000 -0.659611
vn 0.751607 0.000000 -0.659611
vn 0.751607 0.000000 -0.659611
vn -0.675979 0.055999 0.734790
vn -0.675979 0.055999 0.734790
vn -0.675979 0.055999 0.734790
vn -0.675979 0.055999 0.734790
vn 0.761553 -0.004584 -0.648087
vn 0.761553 -0.004584 -0.648087
vn 0.761553 -0.004584 -0.648087
vn 0.761553 -0.004584 -0.648087
vn -0.653906 0.005492 0.756556
vn -0.653906 0.005492 0.756556
vn -0.653906 0.005492 0.756556
vn -0.653906 0.005492 0.756556
vn 0.704549 0.028293 0.709091
vn 0.704549 0.028293 0.709091
vn 0.704549 0.028293 0.709091
vn 0.704549 0.028293 0.709091
vn 0.413440 0.810920 0.414096
vn 0.413440 0.810920 0.414096
vn 0.413440 0.810920 0.414096
vn 0.413440 0.810920 0.414096
vn 0.707904 0.000000 0.706308
vn 0.707905 0.000000 0.706308
vn 0.707905 0.000000 0.706308
vn 0.707905 0.000000 0.706308
s off
g obj_A0005_c Paredes Assets
usemtl lambert4SG
f 5/1/1 3/2/2 1/3/3 6/4/4
f 4/5/5 3/2/6 5/1/7 7/6/8
f 2/7/9 4/5/10 7/6/11 8/8/12
f 13/9/13 11/10/14 9/11/15 14/12/16
f 12/13/17 11/10/18 13/9/19 15/14/20
f 10/15/21 12/13/22 15/14/23 16/16/24
f 3/2/25 18/17/26 20/18/27 1/3/28
f 27/19/29 28/20/30 20/18/31 18/17/32
f 26/21/33 27/19/34 18/17/35 22/22/36
f 22/22/37 24/23/38 25/24/39 26/21/40
f 15/14/41 13/9/42 17/25/43 21/26/44
f 13/9/45 14/12/46 19/27/47 17/25/48
f 22/22/49 18/17/50 3/2/51 4/5/52
f 21/26/53 23/28/54 16/16/55 15/14/56
f 4/5/57 2/7/58 24/23/59 22/22/60
f 25/24/61 23/28/62 21/26/63 26/21/64
f 21/26/65 17/25/66 27/19/67 26/21/68
f 17/25/69 19/27/70 28/20/71 27/19/72
