# This file uses meters as units for non-parametric coordinates.

mtllib obj_A0005_a.mtl
g default
v 40.024979 100.000000 -50.033752
v 40.024979 0.000000 -50.033752
v 0.000000 0.000000 -50.000000
v 0.000000 100.000000 -50.000000
v 50.000000 100.000000 -100.000000
v 50.000000 0.000000 -100.000000
v 49.934952 0.000000 -60.068085
v 49.806351 100.000000 -60.291504
v 54.983994 0.000000 -54.314850
v 45.737152 0.000008 -45.047119
v 54.983994 100.000000 -54.314850
v 45.737152 100.000000 -45.047119
v 50.360565 0.000000 -49.680969
v 50.360565 100.000000 -49.680969
vt 1.004343 0.351750
vt 1.084421 0.351742
vt 1.084421 0.618670
vt 1.004343 0.618678
vt 1.164410 0.351742
vt 1.257924 0.351750
vt 1.257924 0.618678
vt 1.164589 0.618670
vt 1.107053 0.351740
vt 1.107053 0.618667
vt 1.124525 0.351740
vt 1.124525 0.618667
vt 1.141997 0.618667
vt 1.141997 0.351740
vn 0.000843 0.000000 1.000000
vn 0.000843 0.000000 1.000000
vn 0.000843 0.000000 1.000000
vn 0.000843 0.000000 1.000000
vn 0.999995 0.000647 0.003248
vn 0.999995 0.000647 0.003248
vn 0.999995 0.000647 0.003248
vn 0.999995 0.000647 0.003248
vn -0.657644 0.000000 0.753329
vn -0.657644 0.000000 0.753329
vn -0.657644 0.000000 0.753329
vn -0.657644 0.000000 0.753329
vn 0.707904 0.000000 0.706309
vn 0.707903 0.000000 0.706309
vn 0.707903 0.000000 0.706309
vn 0.707903 0.000000 0.706309
vn 0.753753 -0.000249 -0.657158
vn 0.753753 -0.000249 -0.657158
vn 0.753753 -0.000249 -0.657158
vn 0.753753 -0.000249 -0.657158
vn 0.707905 0.000000 0.706308
vn 0.707905 0.000000 0.706308
vn 0.707905 0.000000 0.706308
vn 0.707905 0.000000 0.706308
s off
g obj_A0005_a Paredes Assets
usemtl lambert4SG
f 3/1/1 2/2/2 1/3/3 4/4/4
f 7/5/5 6/6/6 5/7/7 8/8/8
f 2/2/9 10/9/10 12/10/11 1/3/12
f 13/11/13 14/12/14 12/10/15 10/9/16
f 7/5/17 8/8/18 11/13/19 9/14/20
f 9/14/21 11/13/22 14/12/23 13/11/24
