# This file uses meters as units for non-parametric coordinates.

mtllib obj_A0012_a.mtl
g default
v -0.635605 22.597961 0.635605
v 0.635605 22.597961 0.635605
v -0.635605 22.597961 -0.635605
v 0.635605 22.597961 -0.635605
v -0.635605 1.927775 0.635605
v 0.635605 1.927775 0.635605
v 0.635605 1.927775 -0.635605
v -0.635605 1.927775 -0.635605
v -1.204330 -0.000002 1.204330
v 1.204330 -0.000002 1.204330
v 0.839233 1.927775 0.839233
v -0.839233 1.927775 0.839233
v 1.204330 -0.000002 -1.204330
v 0.839233 1.927775 -0.839233
v -0.839233 1.927775 -0.839233
v -1.204330 -0.000002 -1.204330
v 0.839233 0.963887 0.839233
v 0.839233 0.963887 -0.839233
v -0.839233 0.963887 -0.839233
v -0.839233 0.963887 0.839233
v 1.212982 22.714977 1.023209
v 1.212982 27.285025 1.023209
v -1.212982 22.714977 1.023209
v -1.212982 27.285025 1.023209
v -1.212982 22.714977 -1.023209
v -1.212982 27.285025 -1.023209
v 1.212982 22.714977 -1.023209
v 1.212982 27.285025 -1.023209
v 1.020432 27.499592 -0.860779
v 1.020432 27.499592 0.860779
v -1.020432 27.499592 -0.860779
v -1.020432 27.499592 0.860779
vt 0.580729 0.568141
vt 0.580729 0.571983
vt 0.534500 0.571983
vt 0.534500 0.568141
vt 0.534500 0.564362
vt 0.534500 0.576652
vt 0.580729 0.576652
vt 0.580729 0.579643
vt 0.584592 0.568024
vt 0.584592 0.572003
vt 0.582330 0.572003
vt 0.582330 0.568024
vt 0.584592 0.576652
vt 0.582330 0.576652
vt 0.582330 0.563122
vt 0.584592 0.563122
vt 0.586853 0.572003
vt 0.586853 0.576652
vt 0.586853 0.580883
vt 0.586853 0.568024
vt 0.533699 0.572288
vt 0.522840 0.572288
vt 0.522840 0.566834
vt 0.533699 0.566834
vt 0.522840 0.561528
vt 0.533699 0.581926
vt 0.522840 0.576652
vt 0.533699 0.576652
vt 0.519816 0.576655
vt 0.522337 0.576652
vt 0.522337 0.561528
vt 0.522337 0.566834
vt 0.522840 0.581926
vt 0.533699 0.561528
vt 0.534500 0.579643
vt 0.584592 0.580883
vt 0.586853 0.563122
vt 0.582330 0.580883
vt 0.580729 0.564362
vt 0.522337 0.572288
vt 0.522337 0.581310
vt 0.519816 0.581310
vn 0.000000 0.000000 1.000000
vn 0.000000 0.000000 1.000000
vn 0.000000 0.000000 1.000000
vn 0.000000 0.000000 1.000000
vn 0.000000 0.000000 -1.000000
vn 0.000000 0.000000 -1.000000
vn 0.000000 0.000000 -1.000000
vn 0.000000 0.000000 -1.000000
vn 1.000000 0.000000 0.000000
vn 1.000000 0.000000 0.000000
vn 1.000000 0.000000 0.000000
vn 1.000000 0.000000 0.000000
vn -1.000000 0.000000 0.000000
vn -1.000000 0.000000 0.000000
vn -1.000000 0.000000 0.000000
vn -1.000000 0.000000 0.000000
vn 0.000000 0.220560 0.975374
vn 0.000000 0.220560 0.975374
vn 0.000000 0.000000 1.000000
vn 0.000000 0.000000 1.000000
vn 0.975374 0.220560 0.000000
vn 0.975374 0.220560 0.000000
vn 1.000000 0.000000 0.000000
vn 1.000000 0.000000 0.000000
vn 0.000000 0.000000 -1.000000
vn 0.000000 0.000000 -1.000000
vn 0.000000 0.220560 -0.975374
vn 0.000000 0.220560 -0.975374
vn -0.975374 0.220560 0.000000
vn -0.975374 0.220560 0.000000
vn -1.000000 0.000000 0.000000
vn -1.000000 0.000000 0.000000
vn 0.000000 1.000000 -0.000001
vn 0.000000 1.000000 -0.000001
vn 0.000000 1.000000 -0.000001
vn 0.000000 1.000000 -0.000001
vn 0.000000 1.000000 0.000000
vn 0.000000 1.000000 0.000000
vn 0.000000 1.000000 0.000000
vn 0.000000 1.000000 0.000000
vn 0.000000 1.000000 0.000001
vn 0.000000 1.000000 0.000001
vn 0.000000 1.000000 0.000001
vn 0.000000 1.000000 0.000001
vn 0.000000 1.000000 0.000000
vn 0.000000 1.000000 0.000000
vn 0.000000 1.000000 0.000000
vn 0.000000 1.000000 0.000000
vn 0.935163 0.354217 0.000000
vn 0.935163 0.354217 0.000000
vn 0.000000 0.354217 -0.935163
vn 0.000000 0.354217 -0.935163
vn -0.935163 0.354217 0.000000
vn -0.935163 0.354217 0.000000
vn 0.000000 0.354217 0.935163
vn 0.000000 0.354217 0.935163
vn 0.000000 0.000000 1.000000
vn 0.000000 0.000000 1.000000
vn 0.000000 0.000000 1.000000
vn 0.000000 0.000000 1.000000
vn -1.000000 0.000000 0.000000
vn -1.000000 0.000000 0.000000
vn -1.000000 0.000000 0.000000
vn -1.000000 0.000000 0.000000
vn 0.000000 0.000000 -1.000000
vn 0.000000 0.000000 -1.000000
vn 0.000000 0.000000 -1.000000
vn 0.000000 0.000000 -1.000000
vn 1.000000 0.000000 0.000000
vn 1.000000 0.000000 0.000000
vn 1.000000 0.000000 0.000000
vn 1.000000 0.000000 0.000000
vn 0.000000 1.000000 0.000000
vn 0.000000 1.000000 0.000000
vn 0.000000 1.000000 0.000000
vn 0.000000 1.000000 0.000000
vn 0.198630 -0.980075 0.000000
vn 0.198630 -0.980075 0.000000
vn 0.198630 -0.980075 0.000000
vn 0.198630 -0.980075 0.000000
vn 0.000000 -0.957326 0.289010
vn 0.000000 -0.957326 0.289010
vn 0.000000 -0.957326 0.289010
vn 0.000000 -0.957326 0.289010
vn -0.198630 -0.980075 0.000000
vn -0.198630 -0.980075 0.000000
vn -0.198630 -0.980075 0.000000
vn -0.198630 -0.980075 0.000000
vn 0.000000 -0.957326 -0.289010
vn 0.000000 -0.957326 -0.289010
vn 0.000000 -0.957326 -0.289010
vn 0.000000 -0.957326 -0.289010
vn 0.744259 0.667891 0.000000
vn 0.744259 0.667891 0.000000
vn 0.744259 0.667891 0.000000
vn 0.744259 0.667891 0.000000
vn 0.000000 0.603571 -0.797309
vn 0.000000 0.603571 -0.797309
vn 0.000000 0.603571 -0.797309
vn 0.000000 0.603571 -0.797309
vn -0.744259 0.667891 0.000000
vn -0.744259 0.667891 0.000000
vn -0.744259 0.667891 0.000000
vn -0.744259 0.667891 0.000000
vn 0.000000 0.603571 0.797309
vn 0.000000 0.603571 0.797309
vn 0.000000 0.603571 0.797309
vn 0.000000 0.603571 0.797309
s off
g obj_A0012_a Paredes Assets
usemtl lambert3SG
f 5/1/1 6/2/2 2/3/3 1/4/4
f 3/35/5 4/6/6 7/7/7 8/8/8
f 6/2/9 7/7/10 4/6/11 2/3/12
f 8/39/13 5/1/14 1/4/15 3/5/16
s 1
f 20/9/17 17/10/18 11/11/19 12/12/20
s 2
f 17/10/21 18/13/22 14/14/23 11/11/24
s 3
f 15/38/25 14/14/26 18/13/27 19/36/28
s 4
f 19/16/29 20/9/30 12/12/31 15/15/32
s off
f 6/2/33 5/1/34 12/12/35 11/11/36
f 7/7/37 6/2/38 11/11/39 14/14/40
f 8/8/41 7/7/42 14/14/43 15/38/44
f 5/1/45 8/39/46 15/15/47 12/12/48
s 2
f 10/17/49 13/18/50 18/13/22 17/10/21
s 3
f 19/36/28 18/13/27 13/18/51 16/19/52
s 4
f 16/37/53 9/20/54 20/9/30 19/16/29
s 1
f 9/20/55 10/17/56 17/10/18 20/9/17
s off
f 21/21/57 22/22/58 24/23/59 23/24/60
f 23/24/61 24/23/62 26/25/63 25/34/64
f 25/26/65 26/33/66 28/27/67 27/28/68
f 27/28/69 28/27/70 22/22/71 21/21/72
f 30/29/73 29/30/74 31/41/75 32/42/76
f 27/28/77 21/21/78 2/3/79 4/6/80
f 21/21/81 23/24/82 1/4/83 2/3/84
f 23/24/85 25/34/86 3/5/87 1/4/88
f 25/26/89 27/28/90 4/6/91 3/35/92
f 22/22/93 28/27/94 29/30/95 30/40/96
f 28/27/97 26/33/98 31/41/99 29/30/100
f 26/25/101 24/23/102 32/32/103 31/31/104
f 24/23/105 22/22/106 30/40/107 32/32/108
