# This file uses meters as units for non-parametric coordinates.

mtllib obj_A0017_c.mtl
g default
v 3.362938 0.000000 3.362907
v 3.362938 0.000000 -28.362961
v 3.362938 25.800255 3.362907
v 3.362938 25.800255 -28.362961
v -28.362953 25.800255 3.362907
v -28.362953 25.800255 -28.362961
v -28.362930 0.000000 -28.362961
v -28.362930 0.000000 3.362907
vt 0.782529 0.842527
vt 0.853624 0.842527
vt 0.853624 0.916332
vt 0.782529 0.916332
vt 0.856923 0.989917
vt 0.782529 0.989917
vt 0.782529 0.917760
vt 0.856923 0.917760
vt 0.853624 0.766431
vt 0.782529 0.766432
vt 0.931317 0.917760
vt 0.856923 0.843366
vt 0.931317 0.843366
vt 0.856923 0.771211
vt 0.931317 0.771211
vt 0.931317 0.989917
vn 0.000000 -1.000000 0.000000
vn 0.000000 -1.000000 0.000000
vn 0.000000 -1.000000 0.000000
vn 0.000000 -1.000000 0.000000
vn 0.000000 1.000000 0.000000
vn 0.000000 1.000000 0.000000
vn 0.000000 1.000000 0.000000
vn 0.000000 1.000000 0.000000
vn 0.000000 0.000000 -1.000000
vn 0.000000 0.000000 -1.000000
vn 0.000000 0.000000 -1.000000
vn 0.000000 0.000000 -1.000000
vn -1.000000 -0.000001 0.000000
vn -1.000000 -0.000001 0.000000
vn -1.000000 -0.000001 0.000000
vn -1.000000 -0.000001 0.000000
vn 0.000000 0.000000 1.000000
vn 0.000000 0.000000 1.000000
vn 0.000000 0.000000 1.000000
vn 0.000000 0.000000 1.000000
vn 1.000000 0.000000 0.000000
vn 1.000000 0.000000 0.000000
vn 1.000000 0.000000 0.000000
vn 1.000000 0.000000 0.000000
s off
g obj_A0017_c Paredes Assets
usemtl lambert3SG
f 1/9/1 8/2/2 7/1/3 2/10/4
f 5/11/5 3/8/6 4/12/7 6/13/8
f 2/14/9 7/15/10 6/13/11 4/12/12
f 7/1/13 8/2/14 5/3/15 6/4/16
f 8/16/17 1/5/18 3/8/19 5/11/20
f 1/5/21 2/6/22 4/7/23 3/8/24
