# This file uses meters as units for non-parametric coordinates.

mtllib obj_A0007.mtl
g default
v 0.000000 0.000000 50.000000
v 50.000000 0.000000 50.000000
v 0.000000 0.000000 0.000000
v 50.000000 0.000000 0.000000
vt 0.255640 -0.275004
vt 0.380640 -0.275004
vt 0.255640 -0.150004
vt 0.380640 -0.150004
vn 0.000000 1.000000 0.000000
vn 0.000000 1.000000 0.000000
vn 0.000000 1.000000 0.000000
vn 0.000000 1.000000 0.000000
s off
g obj_A0007 Paredes Assets
usemtl lambert3SG
f 4/4/1 3/3/2 1/1/3 2/2/4
