# This file uses meters as units for non-parametric coordinates.

mtllib obj_A0017_d.mtl
g default
v 1.237434 0.556870 27.678162
v 1.237434 0.556870 -2.678215
v 1.237434 25.243401 27.678162
v 1.237434 25.243401 -2.678215
v 20.618034 21.500099 27.678169
v 20.618034 21.500099 -2.678200
v 20.618034 25.243401 -2.678200
v 20.618034 25.243401 27.678169
vt 0.855467 0.698985
vt 0.935438 0.698985
vt 0.935438 0.708846
vt 0.855467 0.708846
vt 0.855468 0.643811
vt 0.935438 0.643812
vt 0.855467 0.578777
vt 0.935438 0.578777
vt 0.935438 0.759902
vt 0.855467 0.759902
vt 0.575785 0.592218
vt 0.514068 0.592219
vt 0.514068 0.640670
vt 0.523427 0.640670
vt 0.587605 0.640884
vt 0.525888 0.640885
vt 0.578246 0.592433
vt 0.587604 0.592433
vn 1.000000 0.000000 0.000000
vn 1.000000 0.000000 0.000000
vn 1.000000 0.000000 0.000000
vn 1.000000 0.000000 0.000000
vn 0.000001 0.000000 -1.000000
vn 0.000001 0.000000 -1.000000
vn 0.000001 0.000000 -1.000000
vn 0.000001 0.000000 -1.000000
vn 0.000000 1.000000 0.000000
vn 0.000000 1.000000 0.000000
vn 0.000000 1.000000 0.000000
vn 0.000000 1.000000 0.000000
vn -0.000000 0.000000 1.000000
vn -0.000000 0.000000 1.000000
vn -0.000000 0.000000 1.000000
vn -0.000000 0.000000 1.000000
vn -1.000000 0.000000 0.000000
vn -1.000000 0.000000 0.000000
vn -1.000000 0.000000 0.000000
vn -1.000000 0.000000 0.000000
vn 0.733958 -0.679195 0.000000
vn 0.733958 -0.679195 0.000000
vn 0.733958 -0.679195 0.000000
vn 0.733958 -0.679195 0.000000
s off
g obj_A0017_d Paredes Assets
usemtl lambert3SG
f 5/1/1 6/2/2 7/3/3 8/4/4
f 2/11/5 4/12/6 7/13/7 6/14/8
f 4/9/9 3/10/10 8/4/11 7/3/12
f 3/15/13 1/16/14 5/17/15 8/18/16
f 1/5/17 3/7/18 4/8/19 2/6/20
f 5/1/21 1/5/22 2/6/23 6/2/24
